<svg xmlns="http://www.w3.org/2000/svg" xmlns:xlink="http://www.w3.org/1999/xlink" id="Capa_1" x="0px" y="0px" viewBox="0 0 1530.35 1310.05" style="enable-background:new 0 0 1530.35 1310.05;" xml:space="preserve"><style type="text/css"> .st0{fill:#CBB34E;}</style><g> <path class="st0" d="M564.74,39.52c-72,21.91-137.74,55.52-198.1,100.12c36.78-3.9,66.49,6.49,85.7,41.16 c0.43-8.75,1.11-16.58,2.34-24.35c4.08-25.74,16.08-47.04,35.61-64.18c4.04-3.55,5.85-3.44,7.94,1.46 c11.46,26.92,12.36,53.48-3.61,79.17c-8.02,12.9-18.07,24.45-24.62,38.37c-5.8,12.33-6.76,25.61-9.31,38.64 c-7.93,40.54-31.54,67.77-70.48,81.61c-19.52,6.94-40.06,8.66-60.38,11.37c-33.66,4.49-65.85,13.68-96.13,29.21 c-0.53,0.27-1.02,0.64-1.44,1.33c6.19-0.55,12.34-0.55,18.47-0.85c16.55-0.81,31.64,4.11,46.2,11.29c2.18,1.07,3.66,2.8,3.59,5.27 c-0.07,2.77-2.53,3.51-4.56,4.33c-20.84,8.32-41.3,17.52-61.6,27.09c-46.06,21.71-78.81,56.49-100.28,102.23 c-15.38,32.78-24.76,67.31-29.13,103.24c-1.14,9.39-2.48,18.75-3.69,28.13c-0.37,2.88-0.97,5.82-4.66,5.36 c-3.39-0.42-4.04-3.18-3.77-6.21c4.09-46.29,12.91-91.36,32.94-133.79c16.92-35.84,40.43-66.09,73.04-88.92 c15.56-10.89,32.77-18.79,49.87-26.89c11.69-5.54,23.54-10.68,36.5-15.36c-14.51-5.76-28.62-7.73-43.37-6.48 c-26.52,2.25-47.41,14.82-65.61,33.57c-23.61,24.33-41.53,52.42-57.01,82.3c-21.16,40.84-31.97,84.7-38.35,129.89 c-0.51,3.61-0.46,7.36-2.02,10.82c-1.81-0.57-1.86-2.23-2.29-3.47c-6.13-17.78-9.26-35.49-5.27-54.65 c6.57-31.6,13.84-62.93,24.35-93.47c10.44-30.35,23.17-59.74,37.62-88.39c17.06-33.82,36.83-65.98,58.87-96.76 c18.97-26.49,39.44-51.75,61.95-75.34c2.77-2.9,5.49-5.83,8.25-8.73c1.59-1.67,3.61-1.55,5.31-0.58c2.03,1.15,2.13,3.53,1.04,5.12 c-8.97,13.03-9.39,28.46-12.03,43.18c-3.4,18.98-12.79,32.83-31.09,40.19c-4.61,1.85-8.59,5.03-12.05,8.66 c-8.92,9.36-9.76,20.1-1.96,30.39c2.35,3.1,2.58,5.47-0.37,7.62c-2.89,2.1-5.1,0.03-6.94-2.13c-11.25-13.22-8.92-33.41,5.11-44.56 c4.16-3.31,8.71-6.06,13.49-8.32c15.46-7.31,23.34-19.85,25.75-36.37c0.83-5.69,1.83-11.35,2.32-17.24 C169.46,334.28,112.94,438.08,85,556.93c0.37,0.19,0.74,0.38,1.11,0.57c3.7-10.87,7.03-21.88,11.17-32.58 c16.44-42.45,39.17-81.04,70.88-114.02c14.52-15.1,31.36-27.4,47.97-40c10.86-8.24,20.03-17.88,24.02-31.49 c1.72-5.88,2.01-11.63,0.12-17.47c-0.3-0.91-0.48-1.86-0.69-2.8c-0.6-2.76,0.47-5.08,2.97-5.84c2.45-0.75,4.19,1.22,5.07,3.4 c2.49,6.22,3.42,12.67,2.38,19.35c-1.21,7.81-3.99,15.04-8.57,22.09c14.76-4.88,24.24-15.31,32.89-26.75 c15.42-20.41,14.99-42.82,8.24-65.98c-1.21-4.14-2.69-8.21-4.17-12.26c-0.92-2.51-0.51-4.59,2.02-5.52 c2.31-0.85,4.37-0.2,5.54,2.34c11.34,24.5,16.65,59.67-4.63,87.18c-1.85,2.4-3.56,4.9-5.71,7.87c6.99-1.74,13.51-3.24,19.96-5 c19.44-5.31,39.43-7.18,59.33-9.56c26.98-3.23,51.47-11.91,71.14-31.47c24.73-24.59,29.17-63.7,9.24-91.69 c-26.87-37.76-81.02-40.64-109.36-1.5c-17.49,24.15-7.81,60.99,18.99,72.9c17.82,7.92,40.4,1.95,49.51-17.38 c7.34-15.59-1.27-33.77-17.82-36.45c-7-1.14-12.38,1.99-17.03,6.95c-1.91,2.04-3.64,6.05-7.23,3.25c-3.53-2.75-1.27-6.21,0.55-9.02 c5.47-8.45,18.85-12.41,29.82-8.99c19.72,6.14,28.94,30.32,19.04,49.91c-9.73,19.26-32.72,28.4-53.6,22.41 c-38.35-10.99-51.33-60.41-28.57-90.76c18.56-24.75,51.91-35.2,80.57-26.73c22.94,6.77,38.97,21.32,49.63,42.33 c0.44,0.86,0.81,1.74,1.23,2.61c0.34,0.7,0.71,1.39,1.54,3c0.47-6.12,0.12-11.25-1.13-16.26c-10.41-41.61-43.27-61.13-84.69-54 c-9.54,1.64-18.61,4.78-27.1,9.38c-2.84,1.54-4.97,1.11-6.76-1.17c-2-2.55,0.18-4.24,1.81-5.63 c14.42-12.29,29.71-23.43,45.45-33.95c27.35-18.29,55.68-34.92,85.21-49.44c23.15-11.38,47.21-20.56,71.4-29.48 c46.9-17.3,95.59-26.93,144.89-33.27c47.05-6.05,94.36-6.65,141.74-2.66c26.9,2.27,53.52,6.27,79.94,11.36 c33.15,6.39,65.78,14.96,97.41,27.05c5.35,2.04,10.78,3.94,16.16,5.94c2.85,1.06,6.18,2.27,4.41,6.45 c-1.57,3.71-4.55,2.73-7.37,1.72c-11.41-4.08-22.79-8.26-34.24-12.23c-5.39-1.87-10.92-3.32-16.52-4.68 c10.75,6.07,20.57,13.28,29.38,21.89c7.11,6.96,13.22,14.74,19.09,22.72c0.93,1.26,1.35,2.88,2.08,4.3 c1.13,2.19,0.2,3.81-1.58,4.89c-1.79,1.09-3.77,1.08-5.23-0.68c-1.94-2.35-3.8-4.77-5.58-7.24C969.75,41,914.52,19.93,861.81,31.8 c-22.46,5.06-42.07,15.27-57.02,33.21c-16.27,19.52-20.29,44.9-6.99,64.96c12.42,18.73,34.83,23.49,53.91,11.63 c17.18-10.68,17.24-37.47,0.12-47.14c-12.4-7.01-26.73-0.97-30.41,12.8c-0.21,0.78-0.35,1.57-0.57,2.34 c-0.67,2.39-1.97,4.14-4.74,3.74c-2.65-0.39-3.06-2.49-3.11-4.7c-0.12-6.05,1.17-11.82,3.92-17.19 c12.02-23.55,31.9-36.23,57.4-40.4c28.96-4.74,56.12,0.93,80.75,16.81c12.34,7.96,23.4,17.66,31.3,30.39 c1.36,2.2,2.9,4.54,0.09,6.73c-2.84,2.2-5.19,0.82-7.02-1.54c-7.17-9.3-14.99-17.94-24.69-24.67 c-28.69-19.92-59.7-26.16-93.32-15.03c-8.38,2.77-15.8,7.68-22.43,13.64c-1.79,1.61-3.5,3.24-4.8,6.28 c13.78-2.28,24.9,1.63,32.7,12.99c7.64,11.15,7.84,23.34,4.01,35.97c15.72-8.33,31.25-16.32,47.77-21.77 c24.49-8.08,46.98-3.06,66.07,14.1c13.4,12.04,22.89,27.08,28.65,44.3c0.9,2.69,1.7,5.57-1.88,6.84c-3.63,1.28-4.61-1.64-5.76-4.19 c-5.77-12.78-12.57-24.98-22.13-35.31c-19.88-21.47-48.46-26.78-72.31-12.16c-18.07,11.08-22.48,35.92-10,52.62 c10.47,14,32.1,13.35,40.35-1.21c5.08-8.97,1.85-20.55-6.63-23.77c-5.53-2.1-10.66-0.21-13.43,4.98c-0.22,0.42-0.28,0.93-0.53,1.33 c-1.33,2.15-2.92,4.12-5.79,2.97c-2.92-1.17-2.58-3.79-2.07-6.19c1.36-6.45,8.44-11.95,15.97-12.51 c12.54-0.94,23.59,9.72,23.78,22.95c0.3,20.48-19.05,34.83-39.55,29.33c-20.84-5.59-32.71-28.74-26.26-51.04 c1.05-3.64,2.68-7.06,4.74-11.68c-7.98,3.09-14.29,6.73-20.72,10.09c-7.94,4.15-15.62,8.79-24.22,11.58 c-30.06,9.74-59.16-7.66-64.55-38.81c-3.58-20.68,1.61-39.27,15.1-55.17c19.4-22.86,44.39-35.54,74.12-38.97 c2.7-0.31,5.39-0.76,8.08-1.15c-62.4-12.88-175.8-12.84-227.79,0.38c6.07,0.85,11.07,1.32,15.96,2.28 c20.61,4.04,39.41,12.32,54.87,26.57c19.15,17.66,29.88,39.35,25.21,66.07c-5.65,32.3-35.36,49.03-66.36,38.25 c-11.59-4.03-21.74-10.87-32.7-16.12c-2.99-1.43-5.96-2.9-8.94-4.35c-1.1,1.84,0.22,2.74,0.72,3.79 c9.84,20.88,2.69,45.54-16.66,55.54c-10.97,5.67-22.42,5.61-32.99-1.27c-9.14-5.95-14.54-14.34-13.94-25.79 c0.71-13.48,11.45-23.5,24.29-22.61c7.45,0.52,14.65,6.73,15.99,13.8c0.42,2.23,0.28,4.38-2.21,5.16c-2.16,0.68-3.99,0-5.28-2.16 c-4.54-7.66-8-9.47-13.87-7.47c-6.78,2.31-10.68,8.79-9.79,16.3c1.97,16.71,21.6,24.79,35.78,14.73 c16.39-11.64,18.61-35.17,5.63-50.99c-13.17-16.06-40.03-18.14-55.39-12.75c-17.01,5.97-28.05,18.63-37.33,33.16 c-13.92,21.8-23.12,45.59-30.24,70.4c-8.24,28.7-18.13,56.82-35.19,81.77c-18.22,26.65-43.19,44.23-73.49,54.78 c-21.92,7.63-44.71,9.8-67.6,11.57c-3.52,0.27-7.04,0.65-10.56,0.74c-2.91,0.08-5.63-0.63-5.85-4.24c-0.21-3.44,2.43-4.4,5.06-4.6 c7.68-0.59,15.39-0.69,23.06-1.35c20.35-1.75,40.52-4.58,59.49-12.67c20.23-8.62,38.38-20.07,53.07-37.03 c14.8-17.08,24.15-36.86,32.07-57.58c12.44-32.54,20.24-66.51,30.71-99.66c9.67-30.61,24.45-58.24,49.85-78.91 c27.43-22.32,58.65-30.57,93.58-23.87c16.3,3.13,30.67,10.19,42.25,22.12c8.9,9.16,14.77,20.12,16.05,33.12 c0.27,2.75,0.47,5.9-3.22,6.45c-3.42,0.51-4.11-2.37-4.74-4.92c-3.99-16.1-16.89-19.24-27.16-15.46 c-13.47,4.96-19.81,20.09-14.87,34.18c4.84,13.82,20.72,22.87,36.36,20.73c21.51-2.94,37.28-22,36.77-44.21 c-0.44-19.17-8.99-34.67-22.91-46.87c-31.53-27.64-68.66-33.52-108.43-24.71c-36.53,8.09-64.96,28.53-85.1,60.21 c-1.96,3.09-3.51,6.45-5.5,9.52c-1.6,2.47-3.23,5.79-7.07,3.45c-3.56-2.17-2.24-5.02-0.68-7.92 c12.46-23.04,29.29-41.98,51.87-55.58C563.24,41.31,564.38,41.2,564.74,39.52z M529.56,144.15c1.98-2.7,3.88-5.47,5.96-8.09 c15.86-20.01,35.76-31.19,62.07-28.16c14.39,1.66,27.22,7.84,40.02,14.04c7.07,3.42,14.1,6.92,21.58,10.6 c-3.96-13.07-3.43-25.39,4.35-36.27c7.93-11.1,19.52-14.59,32.91-12.64c-0.28-1.89-1.36-2.67-2.25-3.55 c-9.01-8.94-19.58-15.5-31.84-18.57c-20.54-5.15-40.67-3.96-60.8,3.64C564.05,79.31,543.46,108.49,529.56,144.15z M461.34,208.93 c5.65-13.53,14.26-25.09,22.87-36.58c15.57-20.8,16.05-43.43,9.26-67.22c-0.84-2.95-1.77-2.35-3.36-0.7 c-6.81,7.08-12.79,14.76-17.13,23.63C460.41,153.73,460.81,181.28,461.34,208.93z"></path> <path class="st0" d="M317.64,854.9c-1.12-64.13,14.01-132.42,44.86-197.26c18.73-39.36,42.64-75.25,71.68-107.82 c26.72-29.97,56.69-56.06,89.97-78.47c31.97-21.53,66.27-38.27,102.84-50.31c54.89-18.06,111.21-25.25,168.87-21.18 c37.29,2.63,73.69,9.91,109.16,21.81c34.35,11.52,66.84,27.02,97.07,46.91c30.29,19.93,58.21,42.8,83.16,69.29 c15.87,16.85,30.41,34.68,43.71,53.57c40.75,57.86,66.72,121.78,77.93,191.62c9.73,60.63,7.75,120.91-6.95,180.62 c-9.7,39.4-24.02,77.02-43.59,112.65c-19.88,36.19-44.13,68.99-73.05,98.49c-25.49,26-53.52,48.79-84.31,68.1 c-27.89,17.49-57.37,31.78-88.57,42.63c-49.48,17.21-100.32,25.37-152.63,24.43c-47.85-0.86-94.38-9.14-139.55-25.14 c-43.73-15.49-83.56-37.85-120.75-65.57c-42.2-31.45-76.93-69.68-105.77-113.31c-25.98-39.3-45.01-81.95-57.6-127.42 C323.62,940.6,317.91,902.01,317.64,854.9z M762.54,1300.97c68.91-0.28,131.39-14.19,190.46-42.94 c30.61-14.9,58.87-33.51,85.53-54.6c13.94-11.02,26.8-23.25,39.15-35.98c28.42-29.29,52.2-62.05,71.71-97.86 c21.16-38.83,35.74-80.05,45.08-123.29c11.05-51.14,12.12-102.54,4.72-154.12c-6.95-48.43-21.56-94.57-43.66-138.33 c-18.69-37-41.67-70.92-69.64-101.59c-17.31-18.99-35.72-36.7-55.86-52.61c-22.67-17.92-46.98-33.37-72.77-46.39 c-53.73-27.13-110.83-41.55-170.85-44.74c-39.19-2.08-77.92,1.59-116.2,9.88c-43.42,9.4-84.09,25.95-122.21,48.67 c-33.48,19.96-63.61,44.13-90.99,71.92c-24.3,24.67-45.82,51.44-63.78,80.99c-35.52,58.42-57.47,121.6-64.41,189.69 c-6.74,66.2,0.58,130.85,22.65,193.82c21.44,61.16,54.59,115.05,99.08,161.99c22.89,24.15,48.53,45.03,76.28,63.46 c26.4,17.54,54.31,32.07,83.77,43.52c24.06,9.35,48.91,16.07,74.37,20.84C711.76,1298.33,738.68,1300.63,762.54,1300.97z"></path> <path class="st0" d="M132.13,1038.91c4.83-9.89,7.63-20.41,10.83-30.76c5.42-17.49,9.62-35.25,10.39-53.68 c1.21-28.98-9.52-53.58-27.58-75.44c-10.05-12.17-22.25-22.21-33.62-33.05c-16.96-16.17-30.4-34.87-39.4-56.39 c-7.95-19.02-11.7-39.23-13.27-59.81c-2.53-33.13,1.45-65.66,8.92-97.86c0.79-3.41,1.07-8.29,5.76-8.35 c4.37-0.05,4.02,4.71,4.95,7.71c5.74,18.54,17.15,33.5,29.57,47.94c13.1,15.22,28.48,28.14,42.12,42.81 c19.97,21.48,35.02,45.38,39.32,75.02c2.79,19.23,0.36,38.09-3.84,56.82c-1.75,7.82-3.71,15.61-6.07,23.27 c-1.9,6.16-0.8,12.14,0.14,18.11c7.41,47.31,0.84,92.98-15.66,137.55c-9.05,24.44-19.41,48.33-29.41,72.38 c-11.57,27.82-21.64,56.29-23.15,86.92c-0.86,17.3,0.08,34.35,6.82,50.59c13.53,32.62,37.49,51.94,72.7,56.96 c18.77,2.67,37.1,0.63,55.17-4.72c0.58-0.17,1.3-0.11,1.58-1.34c-5.54,0-11.02,0.25-16.48-0.04 c-35.68-1.88-64.36-16.64-83.52-47.28c-13.15-21.01-16.91-44.45-14.18-68.93c3.29-29.48,13.54-56.93,24.82-84.07 c10.49-25.23,19.39-50.95,23.21-78.16c0.37-2.66,1.28-4.75,4.45-4.5c3.52,0.28,3.99,2.99,3.78,5.62 c-0.85,10.92-3.4,21.53-6.21,32.08c-4.43,16.59-10.36,32.65-16.96,48.5c-10.29,24.71-19.94,49.64-23.47,76.44 c-3.31,25.11-0.35,48.94,13.81,70.64c16.12,24.73,39.57,37.02,68.28,40.32c29.42,3.38,56.98-3.19,83.53-15.58 c23.37-10.9,46.27-22.97,70.82-31.12c47.79-15.87,93.47-11.01,136.98,14.59c17.36,10.21,32.88,22.64,46.94,36.96 c5.07,5.16,4.48,7.7-2.32,10.32c-30.37,11.7-60.54,10.32-90.63-1.26c-16.03-6.17-31.34-13.91-46.81-21.28 c-35.35-16.85-70.83-18.32-106.7-1.63c-17.28,8.04-34.37,16.51-52.35,23.01c-22.25,8.05-44.86,13.3-68.73,11.12 c-42.15-3.85-74.6-27.74-88.2-69.78c-8.71-26.91-6.56-53.75-0.49-80.75c5.26-23.4,15.19-45.25,21.95-68.14 c7.88-26.65,14.84-53.5,16.72-81.34c1.96-29.11-0.03-57.84-12.09-84.9c-8.01-18-21.01-31.07-40.17-37.6 c-21.68-7.4-47.78,0.86-59.66,20.28c-13.68,22.38-3.48,53.08,19.1,61.64c17.4,6.6,36.67-4.13,38.06-21.38 c0.71-8.76-4.55-17.41-12.74-20.76c-4.98-2.03-9.44-0.58-13.5,2.49c-1.14,0.86-2.09,1.99-3.05,3.06c-1.94,2.15-4.27,2.38-6.43,0.78 c-2.18-1.61-1.79-3.82-0.56-6.04c3.96-7.16,16.13-11.56,24.55-9.08c22.62,6.65,26.62,34.38,12.65,49.62 c-15.71,17.14-43.57,15.49-60.08-2.86c-21.66-24.07-17.21-72.84,25.56-86.34c27.37-8.64,58.26,2.43,75.72,27.28 c13.14,18.7,18.27,40.14,20.75,62.27c2.6,23.21,2.18,46.46-2.6,69.47C132.03,1037.76,132.13,1038.34,132.13,1038.91z M153.89,862.63c2.14-0.95,2.06-2.63,2.33-4.17c1.3-7.25,2.94-14.43,4.13-21.71c5.68-34.84-1.81-66.16-23.81-93.98 c-11.6-14.67-25.28-27.3-38.49-40.4c-16.91-16.78-33-34.16-43.02-56.2c-0.06-0.14-0.54-0.09-0.93-0.14 c-4.28,22.78-6.88,45.72-6.49,68.9c0.33,19.47,2.81,38.63,8.45,57.41c9.41,31.38,28.94,55.58,52.73,77.06 c13.09,11.82,25.69,24.18,35.17,39.26c2.62,4.17,5.03,8.47,7.54,12.71c0.68-1.47,0.68-2.59,0.52-3.68 c-2.99-20.54-8.27-40.5-15.79-59.84c-10.09-25.98-23.02-50.38-40.54-72.2c-1.66-2.07-2.23-4.5,0.11-6.42 c2.26-1.86,4.73-1.85,6.79,0.57c0.83,0.98,1.62,1.99,2.38,3.03c18.58,25.18,33.43,52.33,43.33,82.1 C150.24,850.79,152.02,856.69,153.89,862.63z M344.05,1254.05c1.7,0.92,3.45,0.39,5.11,0.44c8.03,0.25,16.01,0.84,23.91,2.38 c22.48,4.38,42.41,15.17,62.72,24.97c31.75,15.33,64.28,22.71,98.79,10.44C481.16,1239.64,414.18,1220.46,344.05,1254.05z"></path> <path class="st0" d="M1301.8,1293.01c6.89,3.82,14.23,5.11,21.62,6.24c21.25,3.26,42.06,1.43,61.83-7.11 c26.3-11.36,41.72-32.38,49.34-59.29c6.92-24.43,4.72-48.98-1.31-73.28c-5.88-23.71-14.68-46.37-24.44-68.75 c-15.24-34.93-29.59-70.22-37.18-107.85c-5.69-28.2-5.46-56.52-1.85-84.82c1.35-10.58,1.06-20.52-2.16-30.73 c-7.1-22.56-10.33-45.68-7.43-69.35c2.85-23.25,12.44-43.53,27.11-61.69c13.46-16.66,29.42-30.84,44.33-46.08 c15.78-16.12,30.23-33.3,38-55.01c0.86-2.41,1.51-4.89,2.26-7.34c0.67-2.17,1.2-4.51,4.14-4.55c3-0.04,4.21,2.13,4.86,4.52 c1.26,4.64,2.45,9.3,3.39,14.01c6.2,31.15,9.33,62.49,6.26,94.28c-4.25,43.9-21.38,81.45-53.92,111.73 c-10.09,9.39-20.72,18.25-29.91,28.57c-23.42,26.27-33.42,56.69-28.43,91.85c3.21,22.66,9.72,44.4,17.4,65.85 c0.48,1.34,1.08,2.63,2.32,3.81c-0.47-3.48-0.96-6.96-1.41-10.44c-4.2-32.83-4.03-65.48,6.97-97.08 c9.71-27.87,27.54-48.07,57.83-54.19c25.53-5.15,51.59,6.97,63.01,28.68c12.52,23.8,4.5,55.43-17.36,68.43 c-18.06,10.75-39.61,6.97-51.76-9.06c-12.53-16.55-4.73-41.23,14.68-46.45c8.67-2.33,19.23,1.5,24.26,8.85 c1.34,1.96,2.29,4.12,0.05,6c-2.04,1.72-4.34,1.98-6.5-0.03c-0.35-0.33-0.67-0.69-1-1.04c-4.37-4.68-9.49-7.42-15.9-4.85 c-6.9,2.77-11.31,7.99-12.16,15.46c-2.15,18.96,17.67,33.49,36.32,26.77c24.46-8.82,34.44-40.18,19.92-62.57 c-14.48-22.33-45.48-28.99-69.96-14.89c-19.1,11.01-29.55,28.46-35.31,49.03c-7.65,27.32-8.13,55.12-4.39,83.06 c4.36,32.54,13.09,63.95,24.57,94.67c11.53,30.85,20.52,62.44,17.15,95.77c-3.75,37.08-19.81,67.21-54.46,84.58 c-26.3,13.19-54.14,13.64-82.15,7.03c-24.92-5.88-48.18-16.42-71.09-27.66c-20.34-9.98-41.54-16.13-64.41-14.66 c-21.37,1.37-40.83,9.11-59.77,18.47c-15.8,7.81-31.61,15.57-48.63,20.5c-27.16,7.87-53.88,6.55-80.12-3.97 c-4.41-1.77-4.83-3.81-1.67-7.67c7.54-9.2,16.62-16.81,26.01-23.93c15.49-11.75,32.21-21.55,50.53-28.31 c30.15-11.12,60.82-13.35,92.21-5.67c27.49,6.73,52.57,19.25,77.82,31.41c18.55,8.93,37.43,16.79,58.02,19.48 c22.5,2.93,44.86,1.61,65.71-7.51c27.87-12.19,44.45-34.19,50.75-63.99c4.8-22.69,0.81-44.64-5.1-66.49 c-5.67-20.95-14.62-40.68-22.24-60.91c-7.18-19.05-14.06-38.2-17.37-58.4c-0.54-3.32-0.7-6.7-1.12-10.04 c-0.33-2.6-0.21-4.96,2.89-5.69c3.54-0.84,4.64,1.76,5.05,4.34c1.64,10.14,3.78,20.17,6.45,30.08 c5.56,20.61,14.01,40.19,21.83,59.98c9.03,22.86,16.8,46.06,19.78,70.62c3.8,31.28-2.65,59.88-23.54,84.02 c-17.86,20.64-41.22,31.08-68.27,33.16C1316.74,1293.49,1309.25,1293.01,1301.8,1293.01z M1377.86,903.32 c1.09-1.75,1.55-2.37,1.89-3.05c6.64-13.34,15.2-25.3,25.92-35.64c9.71-9.36,19.67-18.45,29.3-27.88 c23.67-23.19,37.84-51.45,44.2-83.79c5.77-29.37,4.54-58.76,0.22-88.15c-0.96-6.51-1.54-13.12-3.74-20.5 c-10.16,23.11-25.79,40.86-42.81,57.57c-13.39,13.15-27.33,25.79-38.96,40.63c-13.62,17.39-22.74,36.75-25.08,58.94 c-2.16,20.44,1.43,40.29,6.36,59.98c0.15,0.59,0.54,1.1,1.48,0.87c0.75-3.04,1.3-6.22,2.33-9.24 c9.48-27.72,21.11-54.42,37.85-78.65c3.19-4.62,6.55-9.12,9.88-13.64c1.84-2.5,4.26-3.8,6.97-1.61c2.73,2.2,1.7,4.83-0.08,7.2 c-0.95,1.27-2.03,2.45-2.95,3.74c-19.87,27.75-34.92,57.87-44.38,90.69C1382.37,874.31,1379.39,888.02,1377.86,903.32z M995.46,1292.38c18.08,5.91,36.1,7.48,54.48,4.49c23.13-3.77,43.77-14.14,64.44-24.39c17.92-8.89,36.36-15.94,56.57-17.28 c5.26-0.35,10.52-0.7,16.53-1.1C1108.04,1217.62,1042.7,1246.27,995.46,1292.38z"></path> <path class="st0" d="M284.05,553.2c0,13.18,0.11,25.64-0.02,38.1c-0.29,27.74-0.69,55.48-1.08,83.22c-0.04,3.05-0.3,6.08-1.26,9.02 c-1.74,5.35-5.91,8.48-11.04,8.24c-5.06-0.24-9.21-3.79-10.01-9.4c-0.77-5.39-1.03-10.86-1.26-16.31 c-1.91-45.87-3.77-91.75-5.62-137.63c-0.08-1.92-0.04-3.86,0.19-5.76c0.25-2.07,1.25-3.71,3.64-3.76c2.34-0.05,4.06,1.01,4.71,3.32 c0.34,1.22,0.49,2.52,0.54,3.79c1.87,50.21,3.71,100.42,5.6,150.63c0.09,2.28-0.42,5.53,3.14,5.36c3.32-0.16,2.94-3.26,2.95-5.62 c0.14-42.55,0.51-85.1,2.07-127.62c0.28-7.53,1.17-15.04,1.83-22.56c0.1-1.1,0.36-2.22,0.72-3.27c0.72-2.1,2-3.68,4.42-3.83 c2.67-0.17,4.16,1.36,5,3.67c3.21,8.83,4,18.14,5.19,27.34c4.03,31.03,7.67,62.11,10.2,93.29c1.99,24.46,3.96,48.94,1.8,73.55 c-1.68,19.14-9.57,35.14-23.27,48.31c-12.85,12.36-19.12,27.33-19.42,45.07c-0.77,45.45,0.12,90.87,2.36,136.27 c2.58,52.29,9.47,104.17,14.59,156.22c3.36,34.16,8.12,68.27,7,102.73c-0.47,14.51-4.06,28.27-13.3,39.93 c-18.13,22.88-46.03,17.31-59.39-5.42c-7.29-12.4-9.62-26.12-9.96-40.2c-0.57-23.48,1.83-46.83,4.12-70.14 c3.49-35.61,7.59-71.17,11.27-106.76c6.91-66.82,9.32-133.85,8.66-200.99c-0.07-6.89-0.61-13.79-1.07-20.67 c-1.08-16.12-10.25-27.97-20.86-39c-13.71-14.25-20.92-31.09-21.53-50.99c-1.04-33.48,2.18-66.71,5.29-99.95 c2.56-27.32,5.54-54.59,10.22-81.64c0.38-2.2,0.92-4.4,1.65-6.5c0.84-2.43,2.42-4.21,5.3-4.04c2.67,0.16,3.86,2,4.56,4.29 c1.42,4.65,1.53,9.5,1.82,14.28c2.66,44.72,2.92,89.5,3.2,134.28c0.01,2.24-0.05,4.51,0.24,6.73c0.22,1.73,0.77,3.95,2.91,3.83 c2.09-0.12,2.4-2.25,2.47-4.09c0.21-6.1,0.4-12.19,0.63-18.29c1.68-44.59,3.38-89.19,5.07-133.78c0.03-0.8,0.04-1.61,0.14-2.4 c0.36-2.87,1.66-5.02,4.86-4.81c3.32,0.22,4.04,2.66,3.92,5.52c-0.46,10.75-0.95,21.49-1.37,32.24 c-1.56,39.78-3.1,79.57-4.68,119.35c-0.08,2.07-0.35,4.15-0.76,6.18c-1.21,5.91-4.4,9.01-9.32,9.25 c-5.17,0.25-10.11-3.06-11.91-8.04c-1.12-3.08-1.02-6.31-1.06-9.52c-0.43-38.19-0.86-76.38-1.33-114.57 c-0.02-1.52,0.43-3.19-1.26-5.4c-1,7.57-2.11,14.37-2.76,21.22c-3.87,40.89-9.23,81.66-9.6,122.81 c-0.15,16.31,1.18,32.37,10.46,46.67c3.71,5.71,8.24,10.71,12.98,15.43c13.46,13.39,19.94,29.59,20.29,48.34 c0.81,44.31,0.39,88.61-1.93,132.88c-1.92,36.71-5.02,73.3-9.15,109.84c-4.34,38.42-9,76.83-11.2,115.46 c-0.79,13.93-2.52,27.83-0.7,41.81c1.48,11.43,3.96,22.44,11.58,31.6c12.6,15.15,29.85,14.34,41.65-1.48 c7.99-10.71,10.49-22.88,11.17-35.67c1.11-20.92-1.15-41.71-3.24-62.46c-2.92-29.05-6.08-58.07-9.36-87.08 c-3.89-34.45-7.15-68.95-9-103.58c-2.55-47.79-3.98-95.6-2.27-143.44c0.64-17.99,7.15-33.86,20.48-46.36 c15.71-14.74,22.66-32.92,22.81-54.23c0.22-30.23-2.13-60.29-5.43-90.3c-2.09-18.98-4.1-37.96-6.19-56.94 C285.95,557.07,286.32,555.2,284.05,553.2z"></path> <path class="st0" d="M1289.12,358.21c-6.49-10.51-10.79-21.28-8.69-33.74c0.38-2.26,1.16-4.3,1.83-6.43 c0.9-2.84,2.45-5.43,5.61-4.52c3.26,0.94,3.74,3.73,2.67,7.07c-3.67,11.41-1.02,22,5.43,31.57c5.48,8.14,12.48,14.99,20.53,20.72 c18.56,13.22,36.43,27.25,51.87,44.15c8.01,8.77,14.82,18.48,21.73,28.08c8.33,11.57,15.87,23.68,22.63,36.24 c9.36,17.37,17.67,35.22,23.9,53.99c2.56,7.73,5.41,15.37,8.43,22.94c-12.16-58.96-33.9-114.48-62.1-167.44 c-28.27-53.1-62.41-102.24-104.02-147.8c2.75,15.2,2.56,29.74,11.86,41.68c4.25,5.46,9.95,8.95,15.96,12.09 c7.68,4.03,15.25,8.16,20.48,15.53c7.92,11.15,8.44,24.59,1.13,36.07c-0.7,1.1-1.55,1.97-2.52,2.84c-2.41,2.16-5.11,2.52-7.34,0.41 c-2.43-2.3-1.51-5.13,0.65-7.22c7.31-7.11,6.65-19.01,0.77-26.95c-3.72-5.02-8.74-8.42-14.16-11.33 c-3.81-2.05-7.73-3.92-11.39-6.22c-11.8-7.39-17.55-18.8-20.46-31.89c-2.82-12.65-2.95-25.85-7.75-38.11 c-0.23-0.58-0.23-1.27-0.2-1.91c0.13-2.69-0.37-6.03,2.43-7.32c2.99-1.39,4.4,1.92,6,3.65c27.25,29.42,52.54,60.38,75.12,93.61 c23.95,35.24,44.69,72.2,62.16,110.99c22.07,49.01,37.82,99.96,47.54,152.95c3.52,19.19-0.09,36.5-5.56,54.17 c-0.21,0.68-0.78,1.25-1.56,2.46c-2.22-6.54-2.83-12.73-3.78-18.82c-8.02-51.63-22.46-101.06-50.34-145.78 c-15.97-25.62-32.57-51.01-56.35-70.19c-28.54-23.02-60.77-27.75-96.88-15.94c7.69,3.28,14.2,6.05,20.72,8.83 c24.51,10.43,48.66,21.59,70.39,37.21c23.38,16.81,41.88,38.11,56.43,62.9c22.58,38.47,35.03,80.32,41.45,124.17 c1.4,9.52,2.53,19.08,3.73,28.63c0.2,1.59,0.05,3.21,0.19,4.81c0.24,2.78-0.72,4.99-3.57,5.34c-2.97,0.37-4.26-2.02-4.73-4.47 c-0.66-3.46-0.98-6.98-1.33-10.49c-3.42-34.14-10.4-67.5-22.48-99.67c-9.11-24.27-20.64-47.27-37-67.64 c-17.31-21.55-38.03-38.88-62.56-51.67c-21.9-11.42-44.56-21.13-67.34-30.61c-1.77-0.74-3.49-1.61-5.21-2.47 c-1.72-0.86-3.43-1.64-3.36-4.13c0.08-2.62,1.36-4.09,3.6-5.15c14.08-6.66,28.73-10.94,44.47-10.84 c6.88,0.04,13.75,0.28,20.73,1.41c-0.56-2.04-2.24-2.09-3.42-2.72c-25-13.43-51.97-20.72-79.76-25.42 c-11.56-1.95-22.9-4.62-33.61-9.54c-3.07-1.41-5.7-3.32-3.6-6.9c1.84-3.14,4.68-1.95,7.52-0.65c9.4,4.33,19.46,6.48,29.61,8 c12.55,1.88,24.82,4.95,37.15,7.82c0.6,0.14,1.23,0.14,2.42,0.26c-6.81-7.97-12.63-16.02-15.99-25.46 c-7.88-22.11-6.61-43.79,3.85-64.83c1.13-2.27,2.38-5.41,6.08-3.63c3.49,1.68,2.31,4.52,1.38,7.08 c-3.62,9.97-6.94,20.01-7.53,30.71c-1.12,20.52,7.11,37.31,20.6,52.12C1270.66,348.53,1278.63,354.71,1289.12,358.21z"></path> <path class="st0" d="M1330.3,768.31c-1.27,53.43-4.96,106.82-3.37,160.3c1.21,40.59,3.83,81.12,7.15,121.59 c3.18,38.7,6.09,77.43,9.02,116.16c1.04,13.76,2.26,27.53,1.1,41.35c-1.12,13.34-4.61,25.94-12.63,36.84 c-16.38,22.26-46.6,19.98-60.13-4.19c-6.12-10.93-8.92-22.5-9.41-34.9c-0.94-23.82,1.48-47.47,3.2-71.15 c2.21-30.57,4.81-61.11,7.14-91.68c2.85-37.45,5.52-74.91,7.04-112.44c0.43-10.71,1.11-21.49-0.7-32.2 c-1.39-8.21-4.31-15.74-9.23-22.45c-5.41-7.39-9.94-15.33-14.54-23.23c-6.06-10.4-7.37-22.15-8.87-33.72 c-8.89-68.63-5.21-136.73,9.29-204.3c4.85-22.62,11.77-44.61,21.48-65.66c4.12-8.95,9.09-17.38,16.2-24.29 c6.18-6.01,13.46-9.53,22.26-6.94c8.1,2.39,11.82,8.96,13.88,16.53c0.87,3.21,1.18,6.66,1.25,10c0.51,27.44,0.89,54.89,1.34,82.33 C1332.56,673.64,1331.02,720.97,1330.3,768.31z M1322.9,682.16c0.7-42.1-0.36-88.49-1.24-134.87c-0.1-5.43-0.07-10.91-2.94-15.9 c-3.73-6.48-8.95-8.01-15.32-4.02c-4.72,2.95-8.04,7.33-10.95,11.98c-13.62,21.76-20.97,45.93-26.84,70.63 c-8.92,37.58-13.62,75.71-15.21,114.29c-1.18,28.46,0.39,56.77,3.17,85.09c2.18,22.18,8.09,42.6,22.58,60.22 c6.66,8.1,10.37,17.96,11.52,28.63c1,9.29,1.05,18.59,0.74,27.9c-1.28,39.16-4.36,78.2-7.34,117.26 c-2.34,30.57-4.97,61.11-7.11,91.69c-1.48,21.13-4.01,42.21-3.77,63.42c0.15,13.1,2.04,25.9,9.15,37.38 c8.81,14.22,22.23,18.93,35.11,12.14c7.31-3.85,11.66-10.42,15.07-17.59c5.87-12.38,6.65-25.65,6.17-39.06 c-1.11-31.13-4.19-62.12-6.51-93.16c-3.97-52.98-8.43-105.92-10.83-159c-1.68-37.09,0.08-74.12,1.34-111.19 C1321.3,780.83,1323.06,733.66,1322.9,682.16z"></path> <path class="st0" d="M1145.67,0.15c28.74,0,57.47-0.01,86.21,0.01c6.78,0,7.22,0.59,9.03,7.27c7.56,27.89,13.7,56.08,17.85,84.67 c4.11,28.34,6.98,56.86,0.4,85.2c-7.81,33.64-25.38,60.94-54.17,80.72c-9.09,6.24-18.79,11.77-26.19,20.26 c-10.02,11.5-14.36,25.27-15.67,40.07c-2.41,27.22-3.13,54.5-0.13,81.72c1.63,14.77,5.39,28.84,17.75,38.73 c8.7,6.96,19.02,10.41,29.72,12.9c8.41,1.96,17.05,3.09,25.01,6.73c2.78,1.27,5.43,2.76,7.36,5.21c4.37,5.57,2.69,11.29-4.17,12.81 c-6.56,1.46-13.26,2.47-19.95,3.09c-42.77,3.96-85.59,3.76-128.43,1.31c-10.73-0.61-21.47-1.33-32.1-3.04 c-2.21-0.36-4.44-0.76-6.55-1.48c-2.92-1-5.89-2.48-6.15-5.95c-0.27-3.66,1.2-6.85,4.42-9.04c8.93-6.07,19.48-7.05,29.57-9.39 c9.13-2.12,17.93-5.13,25.89-10.02c11.89-7.3,17.11-18.96,20.07-32.06c4.4-19.5,3.24-39.28,3.21-58.99 c-0.02-12.19-0.69-24.35-2.22-36.49c-2.66-21.04-12.49-37.23-30.39-48.87c-12.89-8.38-25.35-17.43-35.69-29.09 c-13.38-15.09-21.52-32.86-27.42-51.84c-6.96-22.37-6.38-45.33-4.54-68.25c3-37.39,11.17-73.81,21.29-109.86 c1.43-5.09,3.97-6.51,8.82-6.49c29.06,0.13,58.11,0.06,87.17,0.06C1145.67,0.09,1145.67,0.12,1145.67,0.15z M1233.85,468.31 c-1.71-2.15-3.93-2.52-6.06-3.14c-10.61-3.07-21.56-4.77-32.04-8.45c-23.18-8.13-37.12-24.03-40.54-48.42 c-4.39-31.32-3.67-62.78-0.7-94.16c1.84-19.37,9.4-36.23,24.88-48.73c6.85-5.53,14.01-10.71,21.22-15.77 c23.44-16.45,39.28-38.3,47.49-65.75c8.15-27.27,6.68-54.89,3.06-82.57c-3.79-28.98-10.2-57.43-17.14-85.79 c-1.14-4.68-2.8-6.38-7.87-6.36c-54.11,0.23-108.22,0.26-162.33,0.08c-4.78-0.02-6.44,1.79-7.46,5.91 c-3.35,13.49-6.84,26.95-9.65,40.57c-5.86,28.32-10.75,56.78-10.57,85.82c0.29,46.11,17.11,83.86,56.17,110.34 c8.21,5.56,16.52,11.06,23.65,18.08c11.78,11.59,17.03,26.23,19.2,42.09c3.45,25.22,3.27,50.58,2.21,75.95 c-0.29,6.9-1.2,13.73-2.43,20.53c-3.26,17.98-10.7,33.21-27.5,42.38c-8.07,4.41-16.69,7.36-25.58,9.65 c-8.49,2.18-17.2,3.61-25.35,7.68C1115.61,475.58,1174.68,475.92,1233.85,468.31z"></path> <path class="st0" d="M250.12,616.77c0,22.28,0,44.55,0,66.83c0,1.28,0.17,2.6-0.05,3.84c-0.4,2.32-2.1,3.83-4.26,3.95 c-2.37,0.14-3.78-1.72-4.06-3.95c-0.29-2.37-0.19-4.8-0.18-7.21c0.05-42.18,0.11-84.35,0.18-126.53c0-1.6,0.06-3.21,0.08-4.81 c0.04-3.46,0.06-7.56,4.55-7.63c5.12-0.08,4.01,4.62,4.03,7.66c0.13,22.61,0.07,45.23,0.07,67.84 C250.36,616.77,250.24,616.77,250.12,616.77z"></path> <path class="st0" d="M340.81,849.65c1.47-71.68,18.83-139.19,53.13-202.27c24.13-44.38,54.89-83.56,92.35-117.4 c21.68-19.59,45.15-36.73,70.41-51.58c38.63-22.7,79.86-38.53,123.51-47.94c39.97-8.61,80.47-10.06,121.18-6.86 c26.29,2.06,52.19,6.43,77.44,14.01c38.2,11.47,74.46,27.22,108.12,48.9c35.69,22.99,67.39,50.53,95.28,82.4 c26.21,29.96,47.64,63.11,64.66,99.14c23.55,49.87,37.26,102.22,41.34,157.26c5.3,71.38-7.02,139.58-35.37,205.09 c-13.35,30.85-30.36,59.52-50.49,86.43c-14.89,19.91-31.44,38.31-49.5,55.33c-28.45,26.81-59.89,49.52-94.66,67.48 c-51.74,26.73-106.47,42.94-164.75,46.75c-47.02,3.07-93.29-1.28-138.66-13.97c-30.45-8.52-59.62-20.29-87.54-35.36 c-35.83-19.35-68.13-43.33-97.28-71.59c-15.22-14.76-28.83-31.01-41.72-47.86c-14.26-18.63-26.76-38.4-37.61-59.13 c-23.55-44.98-39.1-92.6-45.9-143.02C341.81,893.61,340.54,871.7,340.81,849.65z M765.47,1278.25c27.11-0.19,55.01-2.02,88.74-9.97 c28.65-6.75,56.4-15.95,83.02-28.51c19.87-9.37,38.94-20.11,57.16-32.49c20.86-14.17,40.43-29.94,58.3-47.56 c14.21-14.01,27.59-28.95,39.77-44.93c29.25-38.39,51.54-80.3,66.6-126.15c11.69-35.58,18.64-72.04,20.93-109.34 c2.16-35.09-0.79-69.92-7.43-104.42c-9.46-49.12-26.97-95.25-52.5-138.22c-22.35-37.63-50.13-70.87-82.65-100.21 c-26.21-23.65-54.75-43.95-86.12-60.07c-43.59-22.4-89.63-37.09-138.5-42.58c-34.8-3.91-69.53-3.84-104.2,1.01 c-30.43,4.26-59.92,12.09-88.61,23.22c-39.8,15.45-76.27,36.61-109.41,63.34c-24.5,19.76-46.63,42.06-66.25,66.75 c-20.23,25.45-37.73,52.64-51.83,81.96c-19.18,39.88-32.02,81.71-38.4,125.52c-5.85,40.16-5.94,80.35-0.06,120.45 c6.24,42.56,18.12,83.46,37.05,122.28c13.61,27.91,29.42,54.34,48.59,78.8c31.86,40.67,69.71,74.67,113.67,101.72 c21.42,13.18,44.07,24.07,67.64,32.94C667.55,1269.31,715.65,1278.48,765.47,1278.25z"></path> <path class="st0" d="M1056.54,135.19c3.36,0.51,4,3.03,3.99,5.97c-0.04,7.39,0.57,14.74,1.82,22.01 c5.35,31.02,21.74,54.58,48.39,71.13c1.89,1.18,3.49,2.64,3.58,4.78c0.07,1.66-1.71,2.55-3.14,3.3c-1.71,0.89-3.11-0.11-4.49-0.86 c-19.59-10.54-33.76-26.33-43.44-46.08c-8.4-17.14-11.48-35.55-11.08-54.58C1052.21,137.91,1052.57,135.3,1056.54,135.19z"></path> <path class="st0" d="M765.39,524.63c59.13,0.39,113.84,15.96,164.13,47.28c13.35,8.31,26.27,17.23,38.17,27.38 c31.76,27.09,57.85,58.99,77.7,95.75c20.23,37.46,33.51,77.26,38.24,119.74c7.15,64.31-1.72,125.97-30.01,184.54 c-16.75,34.66-38.49,65.67-65.99,92.67c-22.29,21.88-47.12,40.15-74.52,55.19c-34.12,18.74-70.42,30.56-108.93,35.4 c-43.05,5.41-85.4,1.75-127.11-10.53c-38.18-11.23-72.67-29.42-104.14-53.5c-19.82-15.16-37.6-32.47-53.43-51.81 c-25.85-31.59-45.32-66.67-58.45-105.31c-12.74-37.5-17.96-76.12-16.82-115.57c1.92-66.37,21.86-126.91,59.7-181.55 c26.98-38.96,60.64-70.79,101.28-95.14c37.63-22.55,78.24-36.58,121.76-42.23C739.71,525.27,752.51,524.59,765.39,524.63z M1077.26,862.15c-0.11-24.75-1.69-43.74-4.91-62.62c-6.33-37.06-19.01-71.89-37.48-104.49c-22.24-39.23-51.23-72.67-87.49-99.82 c-35.58-26.64-74.77-45.14-118.17-54.7c-38.08-8.39-76.44-9.34-114.78-2.58c-52.17,9.2-98.71,30.97-140.06,64.15 c-36.23,29.07-64.74,64.33-85.86,105.55c-19.38,37.81-30.94,78-34.44,120.36c-5.42,65.76,7.97,127.62,39.99,185.3 c18.45,33.23,42.5,62.01,71.07,87.06c20.71,18.16,43.68,32.95,68.3,45.15c28.37,14.06,58.4,22.85,89.69,27.39 c49.24,7.14,97.36,1.96,144.08-14.7c27.42-9.78,52.8-23.78,76.38-40.96c32.24-23.49,59.41-51.83,81.17-85.23 C1059.48,978.71,1076.58,920.06,1077.26,862.15z"></path> <path class="st0" d="M747.1,561.63c2.95,0.06,5.16-0.51,6.72,1.43c0.94,1.18,1.46,2.55,0.83,4.03c-1,2.36-3.07,3.11-5.43,3.3 c-8.31,0.68-16.63,1.28-24.87,2.66c-40.11,6.71-77.02,21.36-110.57,44.38c-20.33,13.95-38.9,29.98-54.78,48.83 c-35.82,42.5-58.73,90.94-66.81,146.26c-6.32,43.25-3.54,85.78,9.02,127.57c12.91,42.96,35.41,80.45,65.95,113.24 c17.05,18.31,36.22,33.98,57.46,47.15c2.78,1.72,4.83,3.74,2.86,6.95c-2.01,3.26-4.85,2.13-7.52,0.52 c-25.33-15.28-47.54-34.2-66.94-56.54c-30.03-34.59-51.08-73.91-62.97-118.13c-12.61-46.91-13.18-94.22-3.25-141.55 c6.08-29,16.56-56.56,31.15-82.48c12.58-22.35,27.5-42.99,45.23-61.48c16.59-17.3,35.39-31.88,55.75-44.64 c27.77-17.4,57.65-29.19,89.56-36.07C721.5,564.25,734.74,562.8,747.1,561.63z"></path> <path class="st0" d="M1049.36,879.69c-3.99,51.45-20.43,98.58-48.98,141.53c-10.23,15.4-21.85,29.65-34.9,42.73 c-18.36,18.39-38.73,34.26-61.23,47.21c-37.51,21.58-77.84,34.12-121.15,36.62c-5.4,0.31-6.64-0.87-6.14-5.2 c0.44-3.82,3.49-3.3,5.86-3.47c15.23-1.12,30.25-3.49,45.12-6.95c23.42-5.44,45.35-14.63,66.48-25.94 c21.93-11.74,41.68-26.44,59.54-43.68c30.84-29.76,53.82-64.77,69.04-104.81c10.1-26.57,15.8-54.12,17.68-82.48 c0.06-0.96,0.19-1.92,0.38-2.86c0.51-2.66,2.28-3.8,4.85-3.63c2.52,0.17,3.71,1.99,3.87,4.2 C1049.91,875.19,1049.52,877.45,1049.36,879.69z"></path> <path class="st0" d="M882.6,587.74c6.49,1.86,11.97,5.58,17.72,8.68c25.14,13.56,47.36,31.16,67.03,51.62 c19,19.78,35.08,42,48.19,66.21c1.54,2.84,3.31,6.09-0.86,8.23c-3.98,2.04-5.68-0.83-7.33-3.85 c-28.88-52.99-69.72-93.76-123.77-121.02c-1.28-0.65-2.48-1.48-3.78-2.09c-2.46-1.17-2.5-3.27-1.83-5.31 C878.67,588.08,880.67,587.73,882.6,587.74z"></path></g></svg>