<svg xmlns="http://www.w3.org/2000/svg" xmlns:xlink="http://www.w3.org/1999/xlink" id="Capa_1" x="0px" y="0px" viewBox="0 0 1420.08 1401.35" style="enable-background:new 0 0 1420.08 1401.35;" xml:space="preserve"><style type="text/css"> .st0{fill:#CBB34E;}</style><g> <path class="st0" d="M327.74,273.93c-21.08,5.94-39.22,10.94-57.29,16.19c-8.55,2.48-9.06,10.96-11.68,17.44 c-6.49,16.07-6.22,16.1-23.21,16.05c-73.87-0.21-147.74-0.3-221.61-0.71C8.99,322.87,0.2,325.84,0,318.25 c-0.21-8.37,8.68-4.63,13.39-4.65c72.12-0.26,144.24-0.45,216.36,0.13c12.25,0.1,19.57-2.52,19.73-17.28 c-14.76,2.48-29.62,5.2-44.56,7.45c-49.5,7.43-99.02,7.92-148.42-0.81c-12.84-2.27-24.98-6.76-35.53-14.81 c-14.92-11.4-21.27-29.13-16.62-46.5c5.19-19.37,29-30.41,47.03-21.82c10.59,5.05,16.06,16.67,12.26,25.97 c-1.13,2.78-2.62,5.12-6.05,4.66c-3.45-0.47-2.88-3.03-2.84-5.6c0.22-15.83-11.79-22.99-26.69-16.01 c-14.76,6.91-19.02,26.26-9.05,41.55c7.7,11.81,19.2,18.18,32.42,21.64c29.77,7.81,60.29,8.67,90.73,8.01 c36.1-0.78,71.87-5.33,106.9-14.55c3.96-1.04,8.1-1.52,10.38-6.07c17.46-34.85,41.19-64.88,71.19-90.36 c-3.84-2.44-5.69,0.49-7.73,1.58c-58.03,31.21-117.6,58.89-180.79,78.07c-28.72,8.71-57.99,13.43-87.96,6.78 c-4.72-1.05-9.3-2.97-13.75-4.94c-2.38-1.05-3.67-3.37-2.25-6.13c1.34-2.59,3.54-3.2,6.19-2.11c39.57,16.27,77.41,3.74,114.52-8.52 c64.98-21.46,126.18-51.68,185.58-85.43c74.63-42.4,152.23-76.98,237.17-92.98c28.92-5.45,58-9.71,87.38-11.32 c6.83-0.37,10.95-3.08,14.44-8.44c8.87-13.62,15.05-28.33,19.45-43.95c1.21-4.31,0.52-11.81,6.43-11.79 c4.84,0.01,4.39,7.12,5.78,11.21c5.29,15.59,10.78,31.04,20.18,44.8c3.66,5.36,7.96,7.62,14.66,8.02 c82.62,4.94,161.39,25.09,236.91,59.03c47.96,21.56,92.23,49.94,139.39,72.91c57.89,28.2,115.79,56.42,179.3,70.15 c22.85,4.94,45.78,6.15,68.21-2.74c3.14-1.24,7.18-3.33,8.79,1.62c1.4,4.3-2.28,6.26-5.63,7.51c-20.63,7.74-41.93,7.25-63.21,4.19 c-46.97-6.75-89.75-26.25-132.96-44.37c-30.96-12.98-60.43-29.03-91-44.99c0.87,5,4.4,6.71,6.85,8.97 c25.24,23.21,45.74,50.09,62.09,80.14c2.73,5.01,6.14,8.04,11.67,9.41c61.93,15.39,124.45,18.42,187.51,8.83 c16.63-2.53,31.76-8.73,42.26-22.93c11.91-16.1,6.49-37.64-10.91-43.62c-13.97-4.8-24.47,2.25-24.41,16.58 c0.01,2.67,0.12,5.12-2.81,5.9c-3.35,0.9-5.35-1.27-6.31-4.13c-3.01-8.95-0.91-16.48,6.54-22.48c10.94-8.82,26.81-9.34,39.27-1.22 c12.62,8.22,18.31,25,13.5,40.99c-6.02,20.03-20.68,31-39.9,36.66c-22.71,6.69-46.18,7.83-69.62,8.64 c-43.23,1.49-85.99-2.58-128.29-11.6c-2.63-0.56-5.36-1.88-8.08-0.17c3.82,15.88,3.82,16.02,19.56,16.03 c72.47,0.05,144.94,0.02,217.41,0.03c3.15,0,6.3,0.06,9.45,0.19c2.32,0.09,4.14,1.24,4.49,3.59c0.42,2.88-1.26,4.78-3.98,5.21 c-3.09,0.48-6.27,0.6-9.41,0.61c-77.37,0.24-154.74,0.36-232.11,0.82c-6.99,0.04-10.54-2.47-11.71-8.91 c-3.17-17.45-12.94-26.91-31.04-29.71c-12.91-1.99-25.3-7.38-39.83-11.83c9.03,15.66,17.58,29.43,25.11,43.73 c29.99,57.02,45.18,117.97,47.38,182.26c0.13,3.85,0.53,7.7,0.42,11.54c-0.17,6.14,2.1,7.95,8.24,6.25 c12.18-3.37,24.79-4.61,37.34-5.29c6.26-0.34,8.56-1.96,8.39-8.47c-0.37-13.99-0.16-28.01,0.21-42.01 c0.14-5.39-0.61-8.73-7.16-8.19c-3.58,0.29-7.47-0.77-7.06-5.61c0.35-4.13,4.01-4.43,7.19-4.45c36.41-0.25,72.81-0.43,109.22-0.59 c3.71-0.02,7.25,0.65,7.3,5.48c0.04,4.26-3.12,5.53-6.42,5.08c-9.37-1.27-9.98,4.16-9.94,11.33c0.52,85.07,0.87,170.14,1.3,255.21 c0.83,167,1.72,333.99,2.44,500.99c0.03,7.63-0.24,14.15,10.48,12.98c4.37-0.48,5.97,2.8,5.91,6.89 c-0.06,3.85,0.21,7.72-0.08,11.55c-0.62,8.2,0.01,14.32,11.22,13.3c7.29-0.66,6.18,6.16,6.2,10.85 c0.15,34.31,0.04,68.62,0.28,102.93c0.11,16.26-0.77,13.82,14.33,13.84c15.4,0.02,30.81-0.17,46.21-0.03 c3.49,0.03,9.08-1.47,9.11,4.08c0.03,5.51-5.5,4.2-9.06,4.21c-55.67,0.1-111.33,0.11-167,0.1 c-408.92-0.03-817.85-0.07-1226.77-0.11c-3.5,0-7,0.01-10.5-0.11c-2.91-0.1-5.95-0.48-5.82-4.37c0.14-4.14,3.64-3.67,6.26-3.69 c17.5-0.15,35.02-0.57,52.51-0.02c8.17,0.25,10.88-2.04,10.77-10.47c-0.44-35-0.01-70.02-0.35-105.03 c-0.08-8.61,1.84-13.69,11.6-12.41c5.65,0.74,7.43-2.24,7.08-7.46c-0.28-4.19,0.07-8.42-0.27-12.6 c-0.58-7.26,0.49-12.62,9.83-11.56c6.5,0.73,6.04-4.22,6.05-8.45c0.07-18.55,0.11-37.1,0.16-55.64 c0.67-234.57,1.31-469.14,2.12-703.7c0.03-7.41,0.29-13.32-9.86-12.03c-3.39,0.43-6.25-1.65-6-5.64c0.31-4.78,4.13-5.12,7.71-5.15 c19.95-0.16,39.91-0.2,59.86-0.3c15.75-0.08,31.51-0.16,47.26-0.31c4.09-0.04,8.41,0.32,8.88,5.18c0.5,5.2-4.06,6.19-7.96,6.11 c-6.11-0.13-6.56,3.35-6.5,8.07c0.19,14.35,0.25,28.71,0.12,43.06c-0.04,4.56,0.88,6.92,6.25,7.1c14.35,0.48,28.68,1.78,42.52,5.89 c7.91,2.35,6.02-3.52,6.08-7.04c0.63-37.98,5.84-75.31,15.45-112.04c10.99-42.02,29-80.89,52.67-117.22 C323.78,279.65,324.97,277.98,327.74,273.93z M374.5,938.66c-0.42,0-0.84,0-1.26,0c0,131.96,0.01,263.92-0.01,395.89 c0,14.5-0.06,14.47,14.82,14.47c141.76-0.05,283.53-0.1,425.29-0.13c74.21-0.01,148.41-0.07,222.62,0.16 c8.49,0.03,14.57-0.59,11.43-11.43c-0.28-0.97-0.04-2.09-0.04-3.14c-0.02-148.06,0.03-296.13-0.09-444.19 c-0.1-114.11,1.39-228.26-1.21-342.31c-2.16-94.58-39.09-175.59-110.42-238.82c-58.03-51.44-126.85-77.8-204.33-82.23 c-75.77-4.34-146.28,12.24-209.55,54.25c-95.85,63.64-143.97,155.59-146.56,268.98C372.22,679.59,374.5,809.15,374.5,938.66z M615.5,124.15c17.92,3.37,33.51,5.97,47.39,13.92c21.68,12.42,33.65,30.99,34.94,56.13c0.18,3.56,0.28,7.75-4.69,7.68 c-4.45-0.06-3.85-4.15-4.01-7.2c-0.66-12.27-4.38-23.6-12.54-32.73c-21.06-23.55-49.07-27.76-78.6-26.92 c-2.26,0.06-4.56,1.67-6.68,2.84c-32.2,17.66-64.74,34.73-96.46,53.21c-44.45,25.89-88.34,52.75-136.81,70.75 c-7.62,2.83-13.2,7.14-17.93,13.57c-52.81,71.93-73.15,153.82-74.78,241.59c-0.12,6.3,3.44,8.31,8.05,10.61 c25.03,12.47,43.32,31.6,55.43,56.72c5.14,10.67,7.48,21.93,5.54,33.66c-1.41,8.54-7.08,13.71-15.63,14.64 c-7.85,0.85-14.81-1.85-18.49-9.26c-3.69-7.42-3.32-15.09,2.33-21.57c2.81-3.22,7.25-6.01,11.02-2.46 c4.73,4.45-1.41,5.27-3.61,7.16c-3.83,3.29-3.95,7.37-2.09,11.43c1.74,3.79,5.14,5.66,9.42,5.35c4.53-0.33,6.86-3.4,7.89-7.33 c2.53-9.68-0.2-18.8-4.08-27.5c-9.58-21.51-25.13-37.7-45.5-49.28c-2.81-1.6-5.68-5.84-8.97-3.3c-1.65,1.28-1,5.82-0.98,8.89 c0.3,66.51,0.89,133.01,0.95,199.52c0.16,197.45,0.18,394.9-0.06,592.34c-0.01,9.57,2.49,12.72,12.16,12.45 c21.69-0.62,43.41-0.21,65.11-0.18c18.49,0.03,18.5,0.06,18.5-18.47c-0.01-249.27,0-498.54-0.09-747.81 c-0.01-27.36,1.61-54.57,6.23-81.54c14.43-84.32,52.58-155.39,119.93-209.06c76.58-61.03,164.46-84.45,261.46-74.39 c82.79,8.58,154.28,41.71,212.22,101.7c67.81,70.2,96.19,156.31,96.48,252.35c0.51,172.6,0.14,345.2,0.14,517.79 c0,81.92-0.01,163.85,0,245.77c0,12.81,0.78,13.56,13.83,13.55c23.11-0.01,46.22-0.44,69.31,0.06c8.93,0.19,12.28-2.07,12.03-11.62 c-0.66-24.49-0.24-49.01-0.23-73.51c0.13-238.77,0.27-477.53,0.41-716.3c0-3.98,0-7.96,0-12.44c-26.73,9.97-52.81,39.57-58.3,65.29 c-0.86,4.04-0.89,8.35-0.7,12.51c0.22,4.85,2.29,9.07,7.47,10.18c4.14,0.88,7.48-1.04,9.52-4.9c2.56-4.83,1.34-8.71-2.85-11.94 c-2.15-1.66-5.41-3.3-3.08-6.58c2.3-3.25,5.62-1.86,8.5-0.35c4,2.1,6.08,5.7,7.13,9.91c2.63,10.54-3.78,21.03-14.16,23.34 c-10.55,2.34-19.59-3.26-21.62-14.51c-2.83-15.66,2.81-29.61,10.46-42.87c12.06-20.91,29.26-36.52,50.55-47.52 c5.49-2.84,7.61-6.16,7.18-12.2c-1.04-14.66-1.07-29.4-2.5-44.02c-7.08-72.21-30.98-138.19-73.64-197.18 c-4.29-5.93-9.37-9.91-16.29-12.34c-24.5-8.58-47.88-19.79-70.45-32.46c-52.47-29.45-104.1-60.39-157.29-88.56 c-6.12-3.24-11.93-7.06-19.52-6.68c-12.3,0.6-24.52,1.87-36.21,5.59c-26.31,8.36-44.94,23.9-47.58,53.53 c-0.32,3.6,0.45,9.04-5.09,8.54c-5.34-0.48-4.1-5.79-3.75-9.37c2.34-23.43,12.74-41.71,33.8-53.54c14.24-8,29.64-11.87,48.15-14.45 c-22.7-13.41-42.63-26.5-61.47-43.34c-1.05,4.92-1.9,7.92-2.31,10.99c-2.93,21.91-11.16,41.8-22.81,60.4 c-6.74,10.76-8.44,10.59-15.59-0.1c-14.23-21.28-22.96-44.49-24.62-72.75C657.95,97.75,638.02,110.46,615.5,124.15z M1229.46,844.19c-1.17,0-2.34,0-3.51,0c0,22.74,0.15,45.49-0.03,68.23c-0.71,91.33-1.41,182.65-2.48,273.98 c-0.1,8.82,2.55,11.46,11.2,11.16c17.12-0.6,34.29-0.05,51.43-0.22c22.45-0.23,18.6,2.16,18.48-18.1 c-0.93-169.71-2.15-339.42-3.19-509.13c-0.34-55.99-0.61-111.98-0.42-167.96c0.03-8.83-2.65-11.4-11.25-11.08 c-15.72,0.59-31.53,0.86-47.22-0.16c-10.74-0.7-13.3,2.62-13.26,13.18C1229.61,617.44,1229.46,730.82,1229.46,844.19z M191.55,844.25c-0.63,0-1.26,0-1.89,0c0-73.15,0.08-146.3-0.03-219.45c-0.06-39.9-0.41-79.81-0.69-119.71 c-0.1-13.76-0.19-13.74-13.42-13.74c-15.05,0-30.14,0.63-45.14-0.28c-10.1-0.62-12.74,2.33-12.74,12.55 c0.04,113.06-0.48,226.12-0.82,339.17c-0.35,114.81-0.59,229.62-1.16,344.43c-0.04,7.76,1.98,10.45,9.91,10.19 c15.73-0.52,31.5-0.21,47.25-0.08c22.93,0.19,22.85,0.25,22.58-22.33C194.09,1064.75,192.83,954.5,191.55,844.25z M255.23,937.42 c-0.07,0-0.14,0-0.22,0c0-38.86,0.03-77.72-0.01-116.58c-0.09-93.83-0.31-187.65-0.12-281.48c0.02-8.16-2.36-12.08-10.37-13.57 c-10.67-1.99-21.28-3.86-32.12-4.87c-9.33-0.87-12.86,1.21-12.54,11.46c1.11,35.69,1.42,71.4,1.76,107.11 c1.72,180.99,3.36,361.98,5.02,542.97c0.13,14.35,0.28,28.71,0.34,43.06c0.02,4.17,0.32,8.25,5.87,7.69 c10.44-1.04,11.36,5.1,10.66,13.06c-0.33,3.82,0.12,7.7-0.02,11.55c-0.17,4.7,1.51,7.62,6.61,6.95 c10.21-1.35,12.37,3.77,12.15,12.91c-0.5,20.99-0.09,42.01-0.17,63.01c-0.02,4.55,1.1,7.21,6.45,7.12 c5.11-0.08,6.77-2.38,6.58-7.08c-0.14-3.49,0.11-7,0.11-10.5C255.23,1199.3,255.23,1068.36,255.23,937.42z M1165.01,937.66 c0.02,0,0.04,0,0.06,0c0,55.65,0.02,111.29-0.01,166.94c-0.04,77-0.19,153.99-0.02,230.99c0.01,4.24-3.39,11.45,5.76,11.75 c10.27,0.33,6.11-7.6,6.21-12.01c0.43-19.94,0.16-39.89,0.15-59.84c0-5.05-0.03-11.22,6.98-10.28 c12.35,1.67,12.99-5.14,12.08-14.16c-0.35-3.47-0.14-6.99-0.13-10.49c0.01-3.98,1.55-7.47,5.91-6.99 c10.23,1.11,10.13-5.16,10.18-12.4c0.54-79.44,1.2-158.89,1.87-238.33c0.65-77.34,1.31-154.68,2.04-232.02 c0.7-74.19,1.44-148.38,2.4-222.57c0.08-5.96-1.35-7.93-7.52-7.64c-12.3,0.57-24.28,2.65-36.3,5.14c-7.6,1.58-9.83,5.33-9.82,12.95 C1165.07,671.68,1165.01,804.67,1165.01,937.66z M709.52,1357.57c0-0.03,0-0.06,0-0.1c-147.73,0-295.46,0-443.19,0 c-24.42,0-24.08,0.01-23.88,24.42c0.07,7.99,2.7,9.79,10.37,9.79c301.76-0.19,603.53-0.15,905.29-0.15 c18.98,0,19.08-0.04,18.89-19.72c-0.15-15.51,2.37-14.2-13.79-14.21C1011.99,1357.55,860.76,1357.57,709.52,1357.57z M156.99,1275.32c-22.41,0-44.82,0.2-67.22-0.12c-6.72-0.1-9.1,1.88-9.03,8.89c0.29,33.26,0.23,66.52-0.1,99.77 c-0.07,6.55,2.15,8.33,8.43,8.3c44.46-0.23,88.92-0.27,133.38-0.07c6.64,0.03,9.19-1.73,9.11-8.82 c-0.34-33.26-0.33-66.52-0.03-99.78c0.06-6.54-2.08-8.39-8.38-8.3C201.11,1275.48,179.05,1275.3,156.99,1275.32z M1263.5,1391.17 c21.69,0,43.39-0.4,65.06,0.2c8.55,0.24,10.47-2.7,10.36-10.72c-0.44-32.18-0.44-64.37-0.09-96.55c0.07-6.9-1.96-9.05-8.75-9.01 c-44.43,0.27-88.85,0.33-133.28,0.15c-6.47-0.03-8.33,2.12-8.28,8.42c0.24,32.88,0.24,65.77-0.06,98.65c-0.06,6.8,1.96,9.12,8.92,9 C1219.41,1390.94,1241.46,1391.18,1263.5,1391.17z M751.43,74.67c22.81,22.14,47.42,35.97,72.63,48.89 c1.77,0.91,4.05,0.93,6.12,1.11c91.17,8.02,167.99,46.31,230.06,112.72c15.63,16.72,32.1,27.9,53.73,32.98 c10.59,2.49,21,5.71,33.72,9.21c-3.13-5.91-4.73-9.36-6.71-12.6c-22.52-36.97-51.62-67.88-86.86-92.9 c-55.52-39.43-117.74-64.02-183.15-81.03C832.76,83.11,793.86,76.79,751.43,74.67z M271.8,279.38 c21.93-4.48,40.31-11.02,58.89-16.92c5.6-1.78,9.6-4.94,13.38-9.37C401.4,186,473.29,144.2,560.3,128.38 c12.68-2.3,26.42-0.18,37.99-6.23c21.67-11.33,42.98-23.5,61.28-40.09c1.8-1.63,5.28-2.5,4.16-6.34c-2.16,0-4.24-0.12-6.31,0.02 c-75.04,5.2-146.59,23.83-215.3,54.44c-45.56,20.3-86.75,46.53-121.63,82.38C301.67,231.91,285.39,253.04,271.8,279.38z M363.4,248.47c73.12-28.47,136.55-74.96,205.97-110.34C488.25,151.54,418.94,187.08,363.4,248.47z M851.04,138.04 c68.51,35.8,131.87,81.15,204.08,110.11C1000.37,186.86,931.35,152,851.04,138.04z M709.06,144.33 c14.57-22.65,21.23-46.35,22.15-71.82c0.06-1.66-0.14-3.72-1.07-4.97c-8.65-11.64-15.16-24.48-21.31-40.72 c-5.19,16.11-11.62,28.33-19.94,39.54c-0.96,1.29-1.53,3.22-1.52,4.85C687.51,97.23,694.53,121.2,709.06,144.33z M1263.95,1242 c0,0.08,0,0.16,0,0.24c-15.7,0-31.42,0.54-47.08-0.21c-8.48-0.41-10.72,2.29-10.57,10.46c0.14,8.08,0.64,12.67,11.01,12.43 c31.73-0.74,63.49-0.64,95.22-0.12c8.67,0.14,9.63-3.47,9.39-10.51c-0.24-6.97,0.63-12.99-9.85-12.49 C1296.07,1242.57,1280,1242,1263.95,1242z M155.92,1264.7c0-0.08,0-0.16,0-0.23c15,0,30,0.12,45-0.06 c5.55-0.07,12.99,3.35,12.53-7.95c-0.59-14.39,0.05-14.49-13.17-14.48c-31.05,0.03-62.09,0.38-93.14,0.04 c-7.16-0.08-9.61,2.32-8.54,8.91c0.91,5.59-3.76,14.18,8.13,13.87C123.12,1264.39,139.52,1264.7,155.92,1264.7z M1264.05,1232.81 c0,0.06,0,0.12,0,0.18c7.34,0,14.69-0.01,22.03,0c19.49,0.02,19.07,0.02,19.15-19.47c0.03-7.88-3.2-9.36-9.96-9.25 c-17.48,0.28-34.98-0.19-52.46,0.19c-21.06,0.45-18.62-4.63-19.48,19.7c-0.22,6.32,1.72,8.91,8.19,8.73 C1242.36,1232.59,1253.21,1232.81,1264.05,1232.81z M156.94,1232.85c0,0.04,0,0.08,0,0.12c6.63,0,13.27-0.01,19.9,0 c19.55,0.04,19.17,0.04,19.27-19.24c0.04-7.63-2.77-9.48-9.76-9.35c-16.75,0.32-33.52-0.26-50.27,0.03 c-23.53,0.42-19.5-4.27-20.37,20.56c-0.21,5.96,1.87,8.07,7.71,7.94C134.6,1232.67,145.77,1232.85,156.94,1232.85z M1264.46,482.55 c0,0.02,0,0.04,0,0.06c5.25,0,10.5,0.05,15.75-0.01c21.48-0.23,21.26-0.23,20.39-21.65c-0.24-5.93-2.15-7.89-8.03-7.78 c-13.99,0.25-28-0.09-42-0.14c-22.47-0.07-22.28-0.06-20.98,22.35c0.32,5.52,2.32,7.35,7.56,7.22 C1246.26,482.39,1255.36,482.55,1264.46,482.55z M152.79,454.03c0-0.03,0-0.06,0-0.09c-4.89,0-9.77,0.01-14.66,0 c-21.39-0.03-21.18-0.04-20.32,21.62c0.22,5.58,2.15,7.16,7.39,7.1c14.31-0.16,28.62,0.12,42.93,0.11 c21.77-0.02,21.59-0.05,20.26-21.54c-0.33-5.29-1.84-7.47-7.33-7.29C171.65,454.26,162.21,454.03,152.79,454.03z"></path> <path class="st0" d="M1278.16,341.68c32.18,0,64.36,0,96.54,0c2.45,0,4.9-0.05,7.34,0.07c2.69,0.14,4.85,1.3,5.1,4.24 c0.3,3.47-1.84,4.93-5.05,5.36c-32.73,4.38-46.26,27.93-55.41,55.72c-1.13,3.44-2.8,7.55,2.58,9.7c2.58,1.03,3.61,3.34,2.66,6.03 c-1.03,2.93-3.78,2.77-6.18,2.78c-12.24,0.06-24.48,0.03-36.73,0.03c-25.18,0-50.37,0.07-75.55-0.08 c-3.53-0.02-8.56,1.87-9.97-3.16c-1.26-4.49,2.87-5.2,6.29-6.52c5.11-1.97,2.89-6.77,2.14-10.05 c-5.36-23.25-14.16-44.14-39.37-52.56c-3.69-1.23-4.85-3.79-4.3-7.28c0.77-4.85,4.62-4.46,8.13-4.44 c23.08,0.11,46.17,0.26,69.25,0.35c10.84,0.05,21.68,0.01,32.53,0.01C1278.16,341.81,1278.16,341.74,1278.16,341.68z M1351.65,351.91c-53.57,0-105.12,0-158.2,0c18.46,16.3,27.1,35.73,29.8,57.95c0.66,5.43,2.99,6.88,8.1,6.84 c25.15-0.17,50.31-0.17,75.46,0.04c4.73,0.04,6.91-1.61,7.81-6.18C1319.24,386.97,1331.77,368.16,1351.65,351.91z"></path> <path class="st0" d="M141.68,341.45c32.91,0,65.81-0.03,98.72,0.04c4.2,0.01,9.68-2.07,10.53,5.09c0.69,5.87-3.48,6.27-7.71,7.65 c-17.74,5.76-38.85,39.02-36.83,57.22c0.25,2.24,0.53,4.18,3.03,4.84c3.33,0.87,6.33,2.42,5.17,6.39c-1.33,4.58-5.67,3.3-8.93,3.3 c-24.86-0.02-49.71-0.2-74.57-0.32c-12.25-0.06-24.51-0.07-36.76-0.17c-2.76-0.02-6,0.27-7.01-3.16c-0.82-2.77,0.96-4.71,3.44-5.7 c4.3-1.71,3.03-5.01,2.28-7.96c-5.55-21.94-17.63-39.41-36.35-52.14c-4.71-3.21-10.17-4.49-15.89-4.79 c-3.67-0.19-8.74,0.67-8.72-4.93c0.02-5.84,5.31-4.53,8.79-4.55c33.61-0.13,67.21-0.08,100.82-0.08 C141.68,341.94,141.68,341.69,141.68,341.45z M67.53,351.38c20.26,17.43,32.76,36.74,37.24,60.67c0.78,4.18,3.14,4.79,6.61,4.77 c25.89-0.09,51.78-0.12,77.66-0.13c3.37,0,6.13-0.22,6.67-4.64c2.83-23.11,11.85-43.38,30.39-60.68 C172.69,351.38,121.43,351.38,67.53,351.38z"></path></g></svg>