<svg xmlns="http://www.w3.org/2000/svg" xmlns:xlink="http://www.w3.org/1999/xlink" id="Capa_1" x="0px" y="0px" viewBox="0 0 810.31 810.31" style="enable-background:new 0 0 810.31 810.31;" xml:space="preserve"><style type="text/css"> .st0{fill:#4A4A4A;}</style><g> <path class="st0" d="M410.18,748.46c-69.81,1.79-139.62,0.18-209.43-0.02c-40.77-0.11-58.86-18.22-58.9-59.12 c-0.1-99.36,0.12-198.72,0.25-298.08c0-3.57,0.67-7.17,0.46-10.71c-0.73-11.88,5.25-15.78,16.38-15.24 c11.61,0.57,23.26,0.17,34.89,0.29c3.58,0.04,7.51,0.85,9.65-2.91c2.36-4.15-1.05-6.99-3.53-9.14 c-14.54-12.54-28.96-24.96-50.56-22.61c-15.64,1.71-31.2,0.31-46.06-6.05c-8.85-3.79-13.96-9.7-13.02-19.54 c3.01-31.62,5.8-63.27,9.54-94.8c1.44-12.1,10.27-17.44,22.18-16.64c24.09,1.61,48.18,3.38,72.24,5.47 c16.04,1.39,32.01,3.45,48.02,5.18c3.93,0.42,8.38,1.74,10.88-2.63c2.4-4.19-0.61-7.75-2.58-11.15 c-3.81-6.58-8.05-12.9-11.81-19.51c-14.15-24.93-9.65-57.75,10.91-77.66c7.05-6.82,14.46-13.41,22.43-19.11 c30.9-22.08,68.29-16.32,93.88,12.26c22.42,25.05,33.93,55.42,46,85.74c1.24,3.12,0.88,8.08,5.34,8.24 c3.72,0.14,6.2-3.67,7.86-6.68c9.11-16.51,19.67-32.03,31.91-46.32c19.63-22.9,41.13-43.8,74.38-40.98 c34.08,2.89,56.41,23.68,69.79,53.52c12.89,28.75,6.42,55-15.51,77.54c-3.93,4.04-10.36,7.65-8.25,14.24 c2.45,7.65,10.44,5.66,16.28,6.2c32.07,2.97,64.18,5.57,96.28,8.26c26.12,2.19,31.92,8.78,29.55,35 c-2.42,26.74-5.27,53.44-8.09,80.14c-1.36,12.89-8.9,21.1-21.59,21.57c-11.56,0.43-13.15,6.48-13.06,15.56 c0.35,35.8,0.71,71.59,0.79,107.39c0.14,63.11,0.06,126.21,0.09,189.32c0.01,30.51-19.72,52.27-50.2,52.7 c-53.69,0.76-107.39,0.26-161.09,0.28C447.72,748.46,428.95,748.46,410.18,748.46z M458.66,558.95c0.27,0,0.53,0,0.8,0 c0,51.87,0.13,103.74-0.11,155.6c-0.05,10.63,3.43,14.95,14.85,14.84c48.29-0.5,96.58-0.04,144.88-0.11 c28.14-0.04,39.39-10.66,39.41-38.75c0.08-96.13-0.39-192.27-0.35-288.4c0.01-12.89-5.66-17.19-17.99-17.11 c-52.76,0.31-105.53,0.03-158.29,0.1c-22.03,0.03-23.25,1.55-23.22,23.59C458.71,458.79,458.66,508.87,458.66,558.95z M359.93,557.56c0.05,0,0.11,0,0.16,0c0-51.87-0.2-103.74,0.15-155.61c0.08-12.46-4.15-17.32-17.2-17.17 c-54.08,0.62-108.17,0.36-162.26,0.39c-18.28,0.01-19.67,1.18-19.71,19.93c-0.12,54.55-0.11,109.1-0.09,163.66 c0.01,42.93-0.16,85.86,0.31,128.78c0.22,19.91,12.54,31.51,32.07,31.61c49.18,0.25,98.35,0.47,147.53,0.57 c17.55,0.04,19.04-1.62,19.04-19.23C359.94,659.51,359.93,608.53,359.93,557.56z M469.4,313.06c-1.03,28.4-0.4,29.53,23.58,30.24 c21.55,0.63,42.44,5.9,63.79,7.76c40.47,3.53,80.94,7.08,121.37,11.1c11.15,1.11,14.32-4.97,15.23-13.92 c2.14-20.88,4.38-41.76,5.94-62.69c1.07-14.32-2.88-18.16-17.27-19.46c-25.35-2.3-50.71-4.6-76.04-7.07 c-37.76-3.69-75.51-7.56-113.27-11.3c-9.53-0.94-16.83,1.07-17.88,12.65C473.1,279.47,470.92,298.55,469.4,313.06z M339.93,273.04 c-0.04,0-0.08-0.01-0.11-0.01c0.49-7.13,0.85-14.28,1.49-21.4c1.02-11.34-3.34-17.77-15.3-18.85c-16.9-1.53-33.7-4.11-50.61-5.48 c-47.18-3.83-94.01-11.52-141.45-12.56c-9.63-0.21-15.63,2.76-16.69,12.85c-2.25,21.33-4.41,42.67-6.67,64 c-1.27,11.98,4.59,17.18,16.08,18c16.93,1.22,33.83,2.77,50.72,4.46c45.32,4.54,90.62,9.32,135.94,13.82 c18,1.79,21.44-1,23.44-18.76C338.13,297.11,338.9,285.06,339.93,273.04z M440.12,555.59c0-51.42-0.43-102.85,0.3-154.27 c0.19-13.35-4.32-17.65-16.96-16.27c-7.52,0.82-15.19,0.39-22.78,0.28c-21.45-0.33-21.76-0.13-21.75,21.32 c0.03,100.16,0.1,200.33,0.16,300.49c0,3.13,0.11,6.26,0.18,9.39c0.18,7.66,3.91,11.43,11.76,11.16 c10.72-0.37,21.49-1.16,32.17-0.58c12.86,0.7,17.21-4.6,17.1-17.25C439.85,658.44,440.12,607.02,440.12,555.59z M455.42,270.17 c0-6.15,0.24-11.53-0.06-16.87c-0.35-6.06-3.22-10.56-9.87-10.39c-23.8,0.63-46.92-5.78-70.59-6.45 c-7.65-0.22-12.25,3.37-13.07,10.51c-2.76,23.99-5.52,48-5.63,72.2c-0.03,6.7,3.09,11.84,10.16,11.67 c22.84-0.54,44.58,9.3,67.85,6.22c9.2-1.22,13.97-3.7,14.96-13C451.09,305.82,453.37,287.63,455.42,270.17z M314.09,79.92 c-28.48,0.08-61.27,29.03-64.15,54.49c-1.57,13.87,1.04,26.15,11.04,37.13c14.17,15.56,27.01,32.39,47.65,40.07 c3.7,1.38,8.35,2.88,10.85-1.6c2.52-4.52-1.16-7.32-4.45-9.86c-10.98-8.48-20.81-18.35-31.46-27.11 c-24.67-20.3-22.68-47.76,2.64-66.12c19.67-14.26,39.86-13.1,54.86,6.26c18.65,24.06,31.55,50.75,37.99,80.58 c1.12,5.19,3.09,10.28,5.34,15.11c2.24,4.82,6.35,8.06,11.91,6.2c6.26-2.08,5.43-7.59,4.14-12.42c-2.19-8.19-4.66-16.32-7.33-24.38 c-9.91-29.92-22.54-58.4-44.67-81.61C338.4,86.15,325.46,81.78,314.09,79.92z M523.27,105.96c-10.76,1.08-23.9,7.37-35.13,17.49 c-26.14,23.54-41.88,54.27-57.82,84.81c-2.28,4.37-2.91,8.81,2.16,11.6c4.63,2.55,9.03,0.75,11.9-3.07 c2.63-3.5,4.13-7.83,6.28-11.7c14.03-25.32,25.51-52.31,49.32-70.94c26.47-20.71,60.4-9.15,68.83,23.81 c4.39,17.14-5.15,35.61-24.99,47.45c-8.43,5.03-17.32,9.28-25.94,14.01c-2.29,1.25-5.39,2.49-5.14,5.58 c0.31,3.97,4.05,4.33,7.07,4.75c7.22,1,14.41,0.67,20.87-3.11c16.76-9.81,32.16-21.13,42.21-38.39c2.97-5.1,5.39-10.29,5.87-16.25 C591.12,142.83,556.99,105.84,523.27,105.96z M355.29,182.62c-6.55-23.39-18.54-45.57-38.05-62.77 c-7.65-6.74-16.01-2.42-22.34,4.54c-6.95,7.64-12.71,15.91-5.06,26.07c13.94,18.5,32.28,31.87,52.63,42.41 C350.49,197.04,355.28,193.77,355.29,182.62z M549.84,165.11c-1.54-8.41-6.61-16.19-15.07-21.12c-8.04-4.69-14.85,0.19-20.6,5.17 c-14.91,12.92-28.68,26.92-37.22,45.16c-1.95,4.16-3.62,8.53-0.39,12.61c2.99,3.77,7.34,2.64,11.23,1.71 c21.18-5.12,39.67-15.6,56.65-28.93C548.57,176.47,549.92,171.69,549.84,165.11z M345.91,365.14c0,0.14,0,0.28,0,0.42 c15.18,0,30.36,0.16,45.53-0.11c3.78-0.07,9.57,0.24,10.07-4.43c0.58-5.45-5.49-6.41-9.55-7.42c-5.15-1.28-10.58-1.55-15.91-2.02 c-23.59-2.05-47.2-3.79-70.76-6.16c-7.13-0.72-14.25-2.08-15.68,7.22c-1.49,9.72,5.45,12.31,13.39,12.43 C317.3,365.3,331.61,365.14,345.91,365.14z M251.08,365.63c4.55-0.53,10.55,0.75,13.88-4.75c1.82-2.99,0.41-6.5-1.89-8.61 c-8.76-8.06-18.81-13.68-31.12-13.62c-3.94,0.02-6.99,1.81-6.33,6.64C226.77,353.72,241.45,365.75,251.08,365.63z"></path></g></svg>