<svg xmlns="http://www.w3.org/2000/svg" xmlns:xlink="http://www.w3.org/1999/xlink" id="Capa_1" x="0px" y="0px" viewBox="0 0 1336.29 1730.62" style="enable-background:new 0 0 1336.29 1730.62;" xml:space="preserve"><style type="text/css"> .st0{fill:#CBB34E;}</style><g> <path class="st0" d="M929.49,557.56c-6.93,33.21-13.63,64.37-16.08,96.21c-0.95,12.35,3.38,23.97,7.74,35.37 c18.83,49.26,38.37,98.26,54.26,148.6c4.14,13.13,3.28,15.93-9.44,21.34c-5.64,2.4-5.87,5.01-4.31,10.05 c18.16,58.98,37.66,117.5,58.55,175.57c1.01,2.81,2.3,5.22,4.47,7.21c9.73,8.91,14.31,20.25,15.15,33.17c0.2,3,1.01,5.59,2.37,8.14 c38.85,73.21,71.57,149.28,104.67,225.16c2.11,4.84,4.78,8.67,9.15,11.84c13.83,10.02,17.45,26.15,22.63,40.98 c0.96,2.74,1.08,4.79,3.78,5.9c9.76,4,19.6,7.81,29.28,12.01c5.32,2.31,10.08-0.17,14.94-1.11c9.13-1.77,18.18-3.82,27.57-3.12 c8.34,0.63,14.89,4.14,17.81,12.31c2.96,8.29-2.38,13.11-8.16,17.65c-19.68,15.45-42.28,25.02-65.71,32.99 c-4.71,1.6-8.83,0.16-12.93-1.74c-8.72-4.05-17.75-4.93-27.18-3.21c-0.59,3.95,1.06,7.37,2.95,10.01 c4.91,6.85,2.22,11.04-3.88,14.66c-3.03,1.79-5.95,3.79-9.05,5.44c-16.52,8.78-18.37,8.16-27.31-7.76 c-2.18-3.88-4.45-8.08-7.75-10.88c-10.72-9.12-17.48-20.24-19.72-34.13c-0.2-1.25-0.49-3.28-1.22-3.52 c-16.33-5.43-14.85-23.03-23.28-33.8c-0.17-0.22-0.49-0.34-1.68-1.13c-0.87,10.83-5.11,20.35-2.71,31.54 c2.79,13,3.57,26.59-1.59,39.58c-0.85,2.13,0.3,3.62,1.35,5.24c5.91,9.13,11.63,18.39,17.72,27.4 c5.94,8.79,15.46,12.06,24.99,15.02c9.89,3.08,19.34,6.77,26.3,14.98c3.5,4.13,5.67,8.54,3.83,14.05c-1.77,5.3-6.53,5.73-10.95,6.2 c-6.67,0.72-13.46,1.84-20.08,1.29c-12.29-1.02-21.11,4.7-30.54,13.76c17.85,0,34.31,0.27,50.76-0.11 c9.12-0.21,21.03,4.16,26.58-2.16c4.86-5.54,3.03-17.01,4-25.88c1.32-12.09,2.77-24.18,3.63-36.31c0.44-6.1,4.63-7.65,9.64-10.19 c-2.57,26.54-5.08,52.29-7.53,78.04c-0.63,6.62-5.41,5.93-9.92,5.92c-27.23-0.03-54.46,0.09-81.68-0.16 c-6.04-0.05-10.99,1.48-16.04,4.86c-61.9,41.35-129.35,69.68-202.13,85.25c-3.37,0.72-8.35,3.58-9.66-2.17 c-1.49-6.52,4.83-5.73,8.34-6.48c65.76-13.94,127.16-38.67,184.2-74.23c2.8-1.75,6.47-2.59,8.6-7.17c-79.77,0-158.85,0-237.93,0 c9.75-5.58,19.45-9.37,30.74-9.3c72.07,0.42,144.14,0.23,216.21,0.65c10.72,0.06,16.34-7.55,26.02-13.11 c-9.82-1.67-17.69-3.15-25.61-4.3c-6.1-0.89-10.22-3.68-13.58-9.17c-6.62-10.83-15.91-18.99-29.25-24.38 c-0.64,8.7-1.43,16.47-1.7,24.27c-0.2,5.8-2.01,8.39-8.52,8.43c-23.44,0.16-23.42,0.41-24.87-22.76c-0.18-2.87-0.79-5.72-0.95-8.59 c-0.32-5.77-4.58-6.64-8.04-4.67c-31.09,17.62-65.69,17.46-99.72,20.53c-8.22,0.74-16.23,3.57-24.43,4.82 c-8.43,1.29-12.87,8.7-19.57,12.01c-28.6,14.12-59.05,20.7-91.09,18.83c-18.63-1.09-36.84-4.42-54.53-10.43 c-3.36-1.14-6.51-2.87-8.48,2.15c-1.28,3.28-4.76,4.07-7.78,5.1c-75.19,25.72-146.8,18.01-214.73-23.2 c-4.48-2.72-7.76-5.63-10.92,1.43c-1.19,2.65-4.94,2.39-7.83,2.73c-67.55,7.92-130.63-3.64-187.84-42.19 c-24.09-16.23-51.18-26.21-78.72-34.83c-7.96-2.49-9.95-5.4-3.72-11.97c2.82-2.98,4.82-6.73,7.5-10.58 c-9.61-3.55-19.01-6.59-28.06-10.46c-21.45-9.19-37.73-23.92-46.61-45.91c-1.84-4.55-4.78-7.11-9.25-8.84 c-15.33-5.92-29.56-13.76-41.99-24.7c-16.51-14.53-26.22-32.84-30.5-54.21c-0.62-3.09-2.11-7.08,0.83-9.06 c7.26-4.89,3.86-9.25,1.03-14.93c-8.44-16.93-12.81-34.7-8.98-53.88c1.08-5.42,3.49-9.04,7.78-12.48 c61.5-49.28,121.66-100.13,179.53-153.66c5.72-5.29,7.32-8.91,3.14-16.51c-9.64-17.5-7.48-27.29,7.43-40.64 c15-13.43,29.53-29,51.01-30.16c12.04-0.65,17.95-6.61,24.29-14.88c44.59-58.13,93.32-112.36,151.19-157.73 c39.59-31.03,82.29-56.46,131.3-69.91c4.62-1.27,9.34-2.27,14.06-3.05c13.35-2.19,23.11-15.61,20.89-28.97 c-1.16-7.01-5.07-8.5-10.95-4.2c-17.72,12.97-17.72,12.97-28.84-6.05c-1.29-2.21-2.67-4.38-3.79-6.68 c-10.83-22.41-15.18-45.37,8.28-67.24c9.75-9.09,9.21-9.61-3.35-12.65c-3.41-0.83-6.74-2.02-10.06-3.17 c-8.09-2.82-11.36-7.59-7.19-16.15c3.72-7.66,1.89-15.62,0.24-23.53c-1.59-7.61-3.4-15.47,6.29-19.67c2.99-1.3,2.22-4.4,2.21-6.83 c-0.03-18.28,6.15-34.38,16.43-49.27c7.24-10.49,11.16-22.23,11.25-35.12c0.03-4.51-1.21-8.06-5.56-10.23 c-19.72-9.85-34.69-24-40.69-45.96c-1.29-4.73-4.72-3.16-7.69-3.36c-22.71-1.51-37.31-19.71-35.25-43.95 c2.09-24.71,20.61-42.69,42.18-40.82c9.35,0.81,17.28,4.53,22.96,12.29c1.5,2.05,2.33,4.45,5.76,1.92 c21.05-15.49,44.82-17.46,69.62-13.23c10.08,1.72,20.05,4.13,30.07,6.2c8.47,1.75,12,7.29,10.57,15.4 c-0.91,5.14,0.23,9.24,2.7,13.55c3.54,6.18,6.68,13.05,5.47,20.06c-2.08,12.05,2.91,21.23,9.9,29.79 c4.42,5.42,4.94,9.97-1.87,12.94c-5.6,2.44-2.07,6.63-2.77,9.92c-1.72,8.04-4.81,15.71-3.45,24.46 c1.17,7.55-5.04,10.44-11.36,11.72c-7.28,1.47-14.7,1-22.03,0.36c-6.16-0.53-8.85,2.18-9.28,8.09c-0.61,8.43,0.34,16.73,2.93,24.66 c2.16,6.62,8.68,8,14.55,8.83c6.38,0.9,13.18,1.13,18.55,4.39c8.08,4.91,11.25,0.31,14.3-5.58c4.12-7.95,8.1-15.98,11.96-24.06 c3.52-7.36,9.14-11.93,16.85-14.61c11.47-3.99,22.5-9.4,34.16-12.63c12.94-3.58,18.65-15.35,28.44-22.36 c1.07-0.77,1.17-2.17,0-4.02c-5.43,0.36-10.08,4.49-15.9,4.71c-9.57,0.37-14.72-2.54-15.04-11.88 c-0.38-10.99-9.23-18.1-11.02-28.28c-0.52-2.97-4.2-2.26-6.68-2.33c-8.28-0.23-10.4-4.28-8.37-12.03 c3.16-12.12,5.45-23.92-2.35-35.93c-3.9-6.01-2.07-14.38-1.57-21.72c0.28-4.07,0.11-6.38-4.99-8.21 c-11.1-3.98-13.76-26.29-4.77-34.07c1.31-1.14,2.71-1.84,4.34-1.41c12.38,3.26,22.4-2.76,32.47-8.33 c14.66-8.11,29.52-15.48,46.83-15.54c11.84-0.05,23.12,1.49,31.1,11.64c1.35,1.72,2.87,2.13,4.92,2.22 c14.15,0.64,21.76,9.89,26.79,21.55c9.46,21.94,8.45,44.27,0.95,66.54c-1.83,5.45-4.12,10.75-6.12,16.15 c-4.36,11.77,0.22,20.77,7.25,30.46c15.64,21.55,40.33,26.17,62.44,35.61c6.67,2.85,8.02-5.2,11.5-8.5 c1.38-1.31,1.17-4.22,1.89-6.34c4.85-14.3,6.51-15.39,20.62-9.97c4.62,1.77,8.03,0.79,11.71-1.06c8.21-4.13,14.6-2.5,19.8,5.19 c2.31,3.41,5.43,6.28,8.26,9.33c1.77,1.9,4.3,4.17,3.49,6.51c-4.21,12.23,2.11,25.97-5.88,37.66c-6.43,9.42-3.89,17.54,1.43,27.64 c13.56,25.76,27.91,51.04,42.07,76.46c14.73,26.45,6.74,52.45-4.43,77.33c-5.34,11.9-30.97,12.72-42.17,2.3 c-11.03-10.27-20.32-22.17-29.59-34.04C945.32,577.23,937.95,568.16,929.49,557.56z M628.33,356.62 c13.04-12.37,25.62-24.96,29.77-43.53c1.6-7.16,0.95-11.58-7.65-12.65c-7.58-0.94-14.96-3.36-22.49-4.75 c-23.85-4.39-47.13-3.92-68.7,9.08c-2.9,1.75-5.97,2.86-5.11,7.86c3.26,18.85-3.68,34.83-16.68,47.74 c-6.03,5.99-5.82,10.81-3.11,17.64c7.06,17.83,21.2,28.18,37.06,37.26c4.08,2.34,7.12,3.01,10.97,0.82c0.2,3.48-5.21,3.21-4.5,7.57 c2.03,12.37-0.35,24.41-4.94,36.91c19.48-3.43,36.98,1.65,55.3,6.43c-2.37-10.51-4.81-20.06-3.02-30.02 c1.41-7.8,5.32-11.83,13.74-11.26c7.33,0.49,14.71,0.33,22.07,0.15c3.61-0.09,8.6-1.52,7.42-5.48c-2.15-7.25-0.09-14.66,1.65-20.32 c1.77-5.74-1.54-14.11,5.77-17.72c5.18-2.56,3.2-4.84,0.81-7.91c-6.87-8.85-10.87-18.54-9.79-30.18 c0.64-6.89-1.57-13.42-6.01-20.15c-7.04,14.96-17.31,25.73-29.63,34.64c-1.03,0.75-2.53,3.66-4.02,0.39 C627,358.59,627.94,357.48,628.33,356.62z M826.78,335.23c2.55,2.27,5.1,4.55,8.26,7.36c3.53-9.58,7.23-18.34,9.99-27.39 c5.76-18.89,6.31-37.88-1.44-56.42c-4.23-10.12-10.43-18.5-22.74-19.31c-2.11-0.14-3.31-1.04-4.71-2.59 c-5.42-6-12.63-8.39-20.42-9.47c-17.76-2.47-33.36,3.85-48.59,11.76c-11.9,6.18-23.44,13.5-37.79,11.86 c-2.76-0.32-3.83,1.21-4.77,3.58c-3.48,8.8,0.82,18.65,10.18,21.12c4.51,1.19,5.43,2.78,4.79,7.22 c-1.09,7.59-2.72,16.03,0.58,22.79c6.54,13.37,6.05,26.46,2.5,40.12c-0.73,2.8-1.24,6.14,3.41,6.04 c12.82-0.27,11.74,11.18,16.28,18.3c3.91,6.14,4.92,12.68,6.93,19.18c1.31,4.25,5.33,4.57,8.82,3.43c5.44-1.78,10.61-4.37,16-6.35 c3.56-1.31,8.97-6.54,6.91,4.03c-1.17,5.98,11.15,16.76,14.87,14.5c14.46-8.79,29.35-16.93,42.32-28.04 c4.33-3.71,4.81-6.93,2.75-12.27c-3.93-10.16-8.39-19.9-15.06-28.55C826.15,335.83,826.46,335.53,826.78,335.23z M557.92,1226.65 c0.51,0.16,1.02,0.31,1.53,0.47c-1.98,6.59-3.94,13.18-5.95,19.76c-27.64,90.65-57.61,180.37-106.8,262.22 c-3.66,6.08-1.27,8,3.5,10.81c63.61,37.38,130.69,45.68,201.51,24.87c7.84-2.3,12.22-6.26,15.21-13.91 c32.24-82.55,47.8-169.07,61.36-256.07c7.61-48.83,13.11-97.94,18.47-147.08c0.33,5.45,0.65,10.89,0.28,16.28 c-2.81,41.52-5.44,83.05-10.79,124.36c-11.43,88.36-26.76,175.8-59.68,259.19c-1.99,5.05-0.84,6.42,3.99,7.84 c44.05,12.95,87.57,13.48,130.75-4.03c7.77-3.15,11.32-7.79,12.86-15.8c9.02-46.91,14.98-94.21,17.42-141.88 c6.06-118.36-6.61-235.29-28.11-351.48c-1.51-8.15-2.93-16.31-4.4-24.47c21.12,84.62,36.04,170.16,40.63,257.35 c4.6,87.5-0.17,174.36-17.57,261.72c23.65-7.84,46.66-9.06,69.63-10.53c15.76-1.01,30.89-4.63,45.86-9.64 c9.19-3.07,12.43-7.6,12.23-17.83c-1.67-85.23-16.34-168.72-32.68-252c-3.33-16.99-7.07-33.89-10.62-50.84 c2.41,3,3.39,6.32,4.29,9.67c26.06,97.27,46.46,195.46,47.62,296.72c0.05,4.23,0.45,6.33,5.79,5.57 c25.67-3.68,48.61-13.24,68.57-29.95c3.93-3.29,4.89-6.45,3.75-11.58c-21.69-97.54-50.94-192.92-81.72-287.88 c-1.83-5.64-4.8-9.13-10.29-11.5c-11.45-4.93-22.71-10.34-33.86-15.91c-41.65-20.8-70.74-52.87-87.5-96.47 c-10.69-27.81-19.39-56.21-27.93-84.7c-6.49-21.63-13.09-43.22-20.07-66.26c-1.91,4.89-0.67,7.95-0.24,11.01 c6.75,47.51,0.33,93.34-19.27,136.96c-34.28,76.26-95.1,120.11-174.68,139.96c-42.26,10.54-85.7,14.85-128.36,23.31 c-59.46,11.79-116.04,31.23-167.45,64.12c-4.95,3.17-8.85,7.11-12.05,12.08c-28.54,44.42-56.9,88.98-87.64,131.94 c-10.03,14.02-20.19,27.95-30.86,42.7c5.16,1.82,9.27,3.35,13.44,4.72c23.19,7.63,45.68,17.03,65.91,30.69 c53.37,36.04,112.32,47.7,175.59,42.1c7.24-0.64,12.14-2.91,16.1-9.63c37.76-63.92,64.91-132.59,90.96-201.76 C537.31,1283.56,547.51,1255.07,557.92,1226.65z M738.73,825.93c4.98,29.35,6.37,58.58,3.32,88.1 c-8.88,85.77-49.35,148.62-130.69,182.44c-38.72,16.1-78.58,28.95-118.13,42.71c-45.37,15.78-90.19,32.87-130.68,59.41 c-17.5,11.47-33.72,24.53-48.48,39.52c1.76,0.01,3.17-0.55,4.5-1.25c51.68-27.37,106.85-43.97,164.26-54.06 c38.11-6.7,76.69-10.77,114.23-20.71c109.77-29.07,175.58-109.01,181.64-222.12c2.76-51.55-8.64-100.43-31.24-146.78 c-1.37-2.8-4.04-5.39-2.97-10.26c2.66,4.16,4.85,7.3,6.76,10.59c17.34,29.98,30.79,61.77,42.54,94.23 c15.88,43.9,27.03,89.3,41.94,133.55c16.48,48.91,47.27,84.22,94.1,105.71c9.59,4.4,19.03,9.15,28.66,13.47 c18.22,8.18,35.41,17.33,40.21,39.57c-2.15-26.03-9.63-50.46-16.58-75.05c-4.7-16.62-15.15-27.47-31.39-34.62 c2.36,7.63,2.09,15.98,12.41,17.88c-14.33,0.49-26.64-4.24-37.98-11.59c-19.26-12.48-33.19-29.9-44.66-49.45 c-19.22-32.76-30.57-68.94-44.79-103.86c-5.25-12.89-10.31-25.85-16.09-40.38c4.8,3.13,5.37,6.73,6.72,9.69 c13.54,29.65,26.97,59.35,40.36,89.06c11.07,24.54,22.65,48.79,40.52,69.34c10.49,12.07,22.46,22.18,37.66,28.59 c0.19-1.37,0.5-2.04,0.31-2.53c-32.29-83.93-70.22-164.92-125.54-236.58c-24.52-31.77-51.21-61.58-84.66-84.49 c-1.92-1.31-3.48-3.99-7.02-2.48c0.46,7.55,0.92,15.22,1.53,25.3c-13.41-14.91-26.88-25.37-42.72-33.37 c-0.22,1.45-0.54,2.33-0.46,3.17c5.67,55.67-9.74,106.06-40.59,151.59c-34.87,51.46-82.16,89.42-137.19,117.49 c-45.33,23.12-92.85,40.31-144.38,42.35c-49.41,1.96-95.78-10.33-139.52-32.92c-3.64-1.88-5.86-3.23-9.68,0.57 c-62.76,62.43-130.88,118.77-199.49,174.52c-3.78,3.07-5.79,6.47-6.51,11.16c-2.3,15.14,1.34,29.26,7.27,42.94 c4.51,10.39,4.7,10.36,13.15,2.8c62.34-55.78,120.3-116.08,179.69-174.89c2.28-2.26,4.72-4.35,7.09-6.52 c0.04,2.27-0.83,3.5-1.83,4.61c-60.94,67.57-122.68,134.38-191.76,193.87c-5.9,5.08-6.63,9.79-4.73,16.61 c8.21,29.43,28.43,47.79,54.93,60.51c14.63,7.03,14.77,7.1,24.93-5.33c54.52-66.72,106.22-135.62,157.9-204.53 c2.07-2.76,3.43-6.34,7.82-8.03c-0.6,1.59-0.76,2.52-1.25,3.22c-51.89,74.27-102.87,149.21-161.97,218.11 c-4.48,5.22-5.84,9-2.76,15.79c10.95,24.08,30.68,36.92,54.54,45.05c18.98,6.47,19.04,6.52,30.47-9.59 c68.57-96.61,132-196.66,197.41-295.39c1.69-2.55,3.45-5.05,5.17-7.57c-21.66,41.95-47.22,81.3-71.17,121.65 c10.43-8.84,20.79-17.34,31.71-25.23c38.53-27.84,81.59-46.42,125.95-62.48c48.69-17.62,98.27-32.85,145.71-53.88 c50.62-22.44,86.15-58.9,104.28-111.64c8.57-24.93,13.72-50.61,16.48-76.79C740.47,873.11,740.39,849.46,738.73,825.93z M602.12,833.55c0.61,1.45,0.91,1.82,0.82,2c-26.25,54.13-61.48,100.3-115.66,129.4c-60.62,32.56-124.67,47.85-193.41,35.68 c-22.11-3.92-43.76-10.46-57.72-30.53c-1.84-2.65-3.43-0.86-4.75-0.02c-12.19,7.8-23.29,16.9-33.03,27.65 c-2.65,2.92-2.29,4.43,1.18,6.32c8.43,4.58,16.48,9.85,24.98,14.3c47.81,25,98.33,37.98,152.55,32.78 c61.62-5.91,117.08-29.13,167.97-63.22c43.47-29.12,81.86-63.88,107.14-110.73c21.22-39.34,32.68-81.06,28.27-126.35 c-0.72-7.42-3.5-11.32-10.15-14.29c-16.13-7.21-32.78-12.48-49.87-16.88c-23.43-6.04-46.08-4.49-68.88,3.21 c-37.28,12.59-71.7,30.55-103.55,53.5c-75.22,54.2-133.53,124.7-189.92,197.08c-3.19,4.1-2.13,5.78,1.92,7.67 c11.64,5.45,23.64,10.13,36.35,11.81c98.19,13,182.76-14.6,252.22-85.87C569.67,885.41,586.62,860.53,602.12,833.55z M780.41,638.58c-10.54-19.94-18.14-39-22.53-59c-2.12-9.67-6.63-12.31-15.52-11.83c-4.4,0.24-6.27,0.36-5.01,5.71 c2.06,8.8,2.56,18.11-0.56,26.59c-3.55,9.65-2.15,18.45,0.08,28.02c6.41,27.56,16.94,54.65,10.65,83.93 c-2.28,10.62-3.54,21.46-5.14,32.22c-0.44,2.99-2.35,6.3,0.95,8.89c8.19,6.43,16.42,12.81,25.64,20 c4.48-31.83,8.76-62.34,15.97-92.6c6.1,14.61,11.12,29.34,16.32,44.01c10.58,29.88,22.5,59.17,38.97,86.39 c8.7,14.38,21.09,21.6,38.32,20.6c15-0.87,30.01-1.79,45.11-0.71c14.89,1.06,29.48,3.45,44.39,8.09 c-15.56-46.28-31.84-91.08-49.99-135.12c-10.55-25.59-15.04-50.99-9.27-78.59c5.53-26.48,8.91-53.4,16.55-81.06 c12.54,12.27,22.07,25.44,32.29,38c8.9,10.92,17.4,22.21,27.74,31.85c8.72,8.12,29.17,8.55,32.78-0.21 c9.14-22.2,18.21-44.88,4.76-68.97c-11.51-20.63-24.11-40.66-34.85-63.96c-4.54,20.47-16.07,33.82-33.28,41.26 c-7.84,3.39-6.71,6.76-4.44,12.72c6.56,17.19,12.64,34.55,19.09,52.35c-1.15-0.75-2.07-1.08-2.57-1.73 c-1.57-2.02-3.11-4.07-4.42-6.26c-16.21-27.03-23.79-57.12-30.65-87.43c-1.12-4.96-0.1-9.87,3.68-13.33 c5.24-4.8,4.89-8.9-0.76-13.73c-1.32,1.58-2.5,3.1-3.79,4.52c-31.03,34.3-64.08,66.32-103.17,91.54c-2.48,1.6-4.2,3.79-5.82,6.24 C806.98,589.54,790.91,611.43,780.41,638.58z M1011.79,1043.37c-24.39-65.95-45.18-130.45-64.64-195.39 c-1.74-5.82-4.97-8.19-10.88-8.47c-16.96-0.81-33.95-2.28-50.87-0.5c-25.52,2.67-42.83-8.27-54.98-30.15 c-12.47-22.45-23.32-45.58-31.38-69.92c-2.3-6.95-6.55-7.34-12.38-7.19c-6.59,0.17-5.48,5.28-6.08,8.94 c-1.44,8.84-1.74,17.91-3.71,26.61c-2.39,10.57,1.36,17.64,10.05,23.13c1.37-3.86-1.95-7.58,1.33-13.24 c-0.35,18.36,11.52,27.99,20.99,39.06c2.08,2.43,4.07,4.95,6.09,7.43c55.79,68.76,96.05,146.26,128.18,228.29 c2.24,5.72,5.18,9.71,10.86,12.36c18.42,8.59,30.01,22.78,35.99,42.47c5.78,19.01,11.1,38.05,14.17,57.67 c2.12,13.54,2.74,27.77-5.76,38.92c-8.22,10.77-5.58,19.71-0.46,29.66c1.46,2.84,2.88,5.71,4.37,8.54 c28.17,53.09,58.15,105.24,83.21,159.94c1.49,3.26,3.08,5.3,7.09,4.75c27.51-3.78,52.77-12.78,73.96-31.39 c1.9-1.67,4.61-3.58,3.18-6.36c-5.67-10.92-7.57-23.97-18.19-32.11c-9.45-7.24-19.05-14.35-26.48-24.21 c3.82,1.78,7.64,3.56,13.95,6.5c-38.84-81.94-70.33-164.57-114.9-240.93c2.22-0.94,3.93,4.18,7.41,2.48 c-2.12-19.24-20.45-27.25-28.22-42.46C1005.75,1039.21,1007.82,1040.63,1011.79,1043.37z M570.23,587.24 c3.24,8.33,6.09,15.65,9.21,23.69c4.86-4.05,9.42-7.16,14.51-9.81c11.52-6.02,22.85-1.02,34.18-1.31c6.4-0.17,8.7,7.57,4.19,13.07 c-5.1,6.21-11.97,8.24-19.81,6.59c-2.31-0.48-4.68-2.72-6.74,1.53c3.68,2.48,7.75,2.04,11.63,1.45c9.48-1.45,19.13-2.44,28.31-5.03 c13.53-3.82,11.65,9.37,17.05,14.39c3.33,3.1,3.3,7.47,1.99,11.67c-0.27,0.86-0.91,1.77-1.64,2.29 c-6.18,4.45-4.32,15.59-14.26,17.04c-1.46,0.21-0.8,2.07-0.02,3.15c5.55,7.61-0.6,10.45-5.76,12.81 c-12.12,5.54-24.72,5.8-37.51,2.23c-2.25-0.63-6.25-3.61-6.24,1.84c0.02,9.12-3.41,17.14-7.59,25.72 c48.35,3.79,90.93,20.16,129.15,51.15c-0.68-13.14-3.11-24.74-6.35-35.85c-11.33-38.74-9.03-75.54,11.02-111.28 c6.41-11.42,8.54-24.72,5.07-38.22c-1.35-5.27-3.57-8.18-9.51-8.7c-9.55-0.83-19.07-2.32-28.48-4.17c-4.81-0.95-8.46-0.46-12.3,2.8 c-6.93,5.91-15.77,9.36-24.08,6.01c-10.91-4.4-19.41-0.26-28.66,3.67C609.57,581.64,590.57,585.66,570.23,587.24z M670.36,550.13 c44.54,9.01,87.37,12.86,130.56,13.06c9.24,0.04,17.57-3.16,24.93-8.7c12.26-9.22,24.64-18.3,36.63-27.87 c25.83-20.61,47.68-45.41,71.23-68.41c7.23-7.06,5.32-21.03-3.44-28.32c-12.71,24.22-34.67,37.69-57.54,50.39 c-22.92,12.73-46.43,24.23-69.75,36.15c-6.99,3.57-12.15,8.23-22.49,4.32c-16.51-6.24-34.84-7.62-52.33-11.39 c-4.22-0.91-7.18-0.24-10.34,2.71C703.58,525.41,688.89,538.2,670.36,550.13z M1193.93,1440.8c1.43-0.47,2.34-0.77,3.24-1.08 c21.93-7.4,42.87-16.81,61.44-30.86c2.92-2.21,7.15-4.32,5.71-9.01c-1.32-4.31-5.04-6.55-9.44-7.11 c-5.43-0.69-11.11-0.9-16.19,0.94c-18.18,6.58-35.02,3.45-51.33-5.8c-3.05-1.73-6.64-2.56-9.52-4.5c-4.27-2.88-7.19-1.62-10.88,1.3 c-15.24,12.06-32.79,19.54-51.16,25.61c-5.36,1.77-14.69-1.55-15.49,6.7c-0.56,5.77,3.1,12.3,5.97,17.94 c1.95,3.84,5.55,6.96,8.81,9.98c5.47,5.05,10.97,10.33,13.22,17.4c2.72,8.52,6.93,8.56,13.95,5.24c14.21-6.72,14.33-6.46,8.05-20.9 c-0.64-1.47-1.16-3-1.95-4.38c-2.69-4.7-0.18-6.25,4.02-6.91c11.85-1.87,23.57-2.33,34.86,2.8 C1189.54,1439.2,1191.94,1440.02,1193.93,1440.8z M724.43,500.47c-7.2-2.66-13-4.5-18.53-6.94c-3.38-1.49-4.71-0.28-6.99,2.2 c-30.89,33.56-69.31,54.13-113.48,64.07c-10.38,2.34-21.25,2.36-32.51-0.77c1.32-0.94,1.79-1.57,2.27-1.58 c55.03-0.68,99.36-25.45,138.64-61.55c2.34-2.15,6.63-5.04,1.19-8.02c-4.04-2.22-6.46-10.25-13.76-2.68 c-26.32,27.32-59.27,43.34-95.83,51.44c-14.38,3.18-29.95,4.88-43.01-6.32c-1.5,4.12-0.1,8.11,0.66,12.16 c1.43,7.6,2.8,15.47-0.16,22.77c-3.05,7.51,0.62,9.5,6.64,11.34c15.55,4.74,31.01,3.41,46.51,0.05 c42.03-9.12,75.98-32.75,107.81-60.15C710.13,511.12,715.6,504.82,724.43,500.47z M636.34,476.31 c-17.89-8.02-41.12-12.91-54.81-12.24c-7.58,0.37-13.26,2.93-17.32,9.81c-5.59,9.47-10.59,19.17-11.56,30.17 c-2.54,28.76-5,30.33,26.93,26.34c33.42-4.17,62.13-20.78,88.95-40.51c0.89-0.65,1.32-1.92,1.99-2.94 c-14.6-8.11-29.29-9.54-44.85-4.58C628.92,480.51,632.18,478.67,636.34,476.31z M1096.01,1528.81c0.01,0.24,0.02,0.49,0.03,0.73 c9.25-0.62,18.5-1.15,27.73-1.93c1.98-0.17,4.96,0.73,5.57-2.28c0.48-2.37-1.42-4.11-2.96-5.73c-5.27-5.52-12.12-8.11-19.18-10.35 c-17.24-5.47-32.53-13.22-39.69-31.58c-1.83-4.68-5.53-8.6-7.92-13.11c-2.83-5.34-5.18-6.51-10.42-1.9 c-13.02,11.48-27.59,20.71-44.18,26.32c-6.03,2.04-12.16,3.98-18.4,5.16c-4.48,0.84-5.25,3.3-4.25,6.7 c2.32,7.9-3.11,18.75,4.65,23.65c8.29,5.24,14.43,0.22,15.29-10.02c0.43-5.1,0.93-10.24,0.69-15.32c-0.35-7.23,3.39-8.17,8.99-6.5 c11.04,3.29,21.56,8.99,27.25,18.54c9.03,15.14,22.83,16.73,37.62,17.56C1083.21,1529.1,1089.62,1528.81,1096.01,1528.81z M627.86,607.18c-7.59,1.38-14.09-4.8-20.38-3.51c-9.06,1.85-18.72,3.87-25.15,12.41c-3.61,4.8-8.68,8.74-14.53,10.69 c-4.56,1.52-6.14,4.41-5.73,8.57c0.7,6.98,1.91,13.91,2.71,20.89c0.36,3.11,1.75,4.26,4.91,4.47c7.88,0.53,14.48,4.41,21.18,8.29 c14.22,8.24,29.65,9.56,45.47,6.29c2.9-0.6,8.45-1,7.23-5.49c-1.2-4.4-5.31-0.84-8.2-0.47c-7.56,0.97-15.09,1.4-22.16-2.91 c11.4-2.16,22.87-2.64,32.87-8.75c2.29-1.4,6.93-1.66,5.74-5.13c-1.26-3.65-4.83-0.74-7.31-0.11c-9.97,2.49-19.9,5.26-30.33,1.96 c12.64-3.11,25.29-5.87,37.51-10.08c3.15-1.08,9.28-0.63,7.9-6.14c-1.4-5.59-6.24-2.3-9.67-1.52c-5.61,1.26-11.11,3.24-16.78,3.99 c-6.15,0.8-12.43,3.64-21.42,0c14.08-3.94,25.68-7.17,37.26-10.44c2.11-0.59,4.79-0.89,4.31-4.03c-0.53-3.45-3.17-3.54-5.87-3.02 c-3.76,0.72-7.49,1.62-11.25,2.34c-8.76,1.68-17.39,4.27-26.52,3.18c-6.21-0.74-11.51-3.66-10.03-10.04 c1.35-5.84,7.16-7.4,13.19-5.2C619.43,615.84,624.27,613.41,627.86,607.18z M818.54,501.06c8.55-4.26,15.92-7.92,23.29-11.61 c13.71-6.86,27.33-13.31,34.63-28.58c3.23-6.76,4.28-10.01-2.92-14.22c-6.21-3.63-13.31-6.86-18.21-15.33 c9.23,0.6,16.81,1.1,24.39,1.56c2.32,0.14,5.94,1.58,4.95-3.01c-3.45-16.01,0.43-36.01-22.75-41.41 C845.85,424.51,828.99,460.85,818.54,501.06z M760.05,421.8c-11.94,5.01-23.25,11.78-35.45,14.43 c-20.02,4.36-27.6,18.59-33.65,35.28c-0.91,2.51-2.23,4.84,0.82,6.64c5.45,3.21,10.87,6.48,16.38,9.58 c8.63,4.86,20.64,3.76,25.97,14.62c1.78,3.62,6.22,3.62,9.36,3.4c4.01-0.28,2.34-4.54,2.57-7.01c2.02-21.7,5.45-43.09,12.74-63.73 C760.26,430.86,760.93,426.45,760.05,421.8z M489.95,330.76c0.58,11.51,3.77,21.25,13.06,28.02c12.27,8.93,22.95,7.49,32.34-4.4 c6.6-8.37,11.53-17.66,13.29-28.26c1.87-11.24-1.03-21.1-10.69-27.81c-9.58-6.65-19.9-6.43-29.81-0.74 C495.25,304.96,490.62,317.11,489.95,330.76z M951.45,388.79c13.28,0.78,22.36,11.27,25.26,31.08 c-8.1-19.79-18.7-34.32-43.13-20.74c17.48-0.3,29.07,6.23,30.12,25.4c-5.97-13.98-16.55-20.33-31.12-20.43 c-3.37-0.02-8.16-2.23-8.75,2.51c-0.49,3.96,4.7,3.07,7.48,3.73c13.59,3.19,19.52,8.59,22.07,20.57 c-18.25-15.85-22.28-17.68-31.6-14.31c1.46,3.38,5.07,3.63,7.71,5.17c10.99,6.43,15.49,16.15,12.87,28.09 c-1.4,6.4-1.56,12.91,2.03,18.62c3.76,5.99,7.43,11.92,9.14,18.88c0.42,1.71,0.74,3.8,3.57,3.36c5.92-0.91,17.69-14.78,16.22-20.92 c-2.91-12.14,0.14-23.22,5.72-33.28c7.79-14.05,4.2-26.24-3.23-38.55c-0.83-1.37-1.66-2.73-2.5-4.09 C965.99,381.96,964.42,381.6,951.45,388.79z M839.95,421.02c-3.68,4.39-7.03,9.11-11.12,13.08c-4.72,4.59-5.73,14.67-12.52,14.24 c-5.66-0.36-11.22-6.63-16.25-10.96c-4.22-3.63-6.68-3.38-7.97,1.97c-5.49,22.68-9.17,45.63-10.11,68.99 c-0.13,3.29,0.65,5.23,4.46,5.92c7.56,1.36,23.54-7.19,25.67-14.52C819.83,473.11,829.61,447.24,839.95,421.02z M1055.89,1445.88 c1.71-12.66,2.7-25.15-0.71-37.48c-0.66-2.39-1.16-4.09-0.39-6.94c4.79-17.79,8.78-34.78-2.63-52.96 c-15.51-24.7-28-51.31-41.78-77.1C1025.68,1329.64,1041.92,1387.38,1055.89,1445.88z M728.17,625.03 c-11.75,24.21-16.93,47.44-11.35,72.38c3.07,13.72,5.67,27.55,8.38,41.35c0.78,3.99,3.46,6.69,6.93,7.01 c4.19,0.39,2.8-4.07,3.39-6.4c1.01-4.01,0.92-8.3,1.95-12.3C746.37,692.46,738.41,659.48,728.17,625.03z M761.4,444.77 c-4.77,15.32-7.18,30.4-8.23,45.68c-1.2,17.38-0.94,16.97,16,20.53c6.63,1.4,8.43-0.28,8.78-6.5c1.03-18.19,5.01-35.95,8.42-53.79 c1.03-5.37,6.16-12.95,1.79-15.59c-4.09-2.48-8.7,5.6-13.23,8.81C770.64,446.97,766.75,451.76,761.4,444.77z M877.3,470.64 c17.44-9.55,31.66-19.39,41.91-34.15c3.75-5.41,10.67-10.79-1.33-14.92c-2.45-0.84-3.38-3.72-3.04-6.52 c0.25-2.05,0.08-3.72-2.29-4.51c-8.3-2.78-16.56-5.65-25.87-8.84c1.48,9.05,2.56,16.57,3.97,24.03 c2.75,14.53,2.83,14.5-11.96,13.52c-1.04-0.07-2.54-0.74-3.04,1.05C890.35,454.46,890.21,448.23,877.3,470.64z M797.75,411.86 c5.1-2.58,10.1-5.37,15.31-7.71c10.98-4.93,13.39-3.29,13.66,9.03c0.09,4.18,0.01,8.37,0.01,14.8 c8.7-10.91,15.63-20.03,23.03-28.75c7.27-8.57,6.34-16.52-1.01-25C834.07,389.94,814.96,399.38,797.75,411.86z M980.05,467.01 c-2.94,13.92-9.77,23.56-20.52,27.75c-10.65,4.16-13.1,9.32-8.28,18.97c0.36,0.72,0.76,1.41,1.14,2.1 C974.54,504.5,984.57,487.89,980.05,467.01z M971.15,1155.51c5.97,18.08,11.28,34.17,16.84,51 C1000.67,1188.02,994.47,1168.27,971.15,1155.51z M821.34,418.56c-1.12-4.21,2.34-10.72-2.63-11.16 c-5.73-0.51-11.16,4.14-15.63,8.36c-3.4,3.2-2.97,5.66,1.63,7.58c1.28,0.53,0,2.01-1.34,2.52c-5.79,2.2-2.1,4.89-0.07,6.95 c2.23,2.25,5.06,3.9,7.52,5.95c4.09,3.42,6.73,3.03,7.65-2.63C819.43,430.12,820.43,424.14,821.34,418.56z M767.19,441.39 c11.5-4.71,16.7-12.22,14.99-23.43c-0.83-5.42-5.88-7.99-10.37-8.75c-5.07-0.86-4.25,4.7-4.69,7.61 C765.94,424.67,766.12,432.63,767.19,441.39z M549.11,648.4c-0.33-9.39-1.32-16.8,1.08-23.88c1.8-5.31,4.24-9.88,11.56-8.74 c3.44,0.53,7.12,5.55,10.33,1.17c3.1-4.22-1.22-8.31-2.35-12.39c-0.7-2.51-1.29-5.52-4.25-7.11 C551.3,611.01,539.74,625.31,549.11,648.4z M776.48,612.29c-0.26-12.68,0.46-25.12,0.55-37.56c0.06-8.63-6.96-4.16-10.75-4.94 c-5.74-1.18-4.04,3.14-3.29,6.02C766.28,588.38,770.18,600.73,776.48,612.29z M789.17,605.76c7.91-11.76,15.83-23.51,23.74-35.27 c-5.86,1.79-13.77-4.85-17,3.74C792.13,584.29,788.99,594.64,789.17,605.76z M648.99,564.76c15.09,4.63,22.55,2.99,28.64-5.35 C667.02,552.28,658.33,556.83,648.99,564.76z M782.26,601.21c0.42,0.11,0.83,0.23,1.25,0.34c2.58-8.37,5.24-16.72,7.69-25.13 c0.73-2.5,2.43-5.69-2.52-6.23c-4.25-0.47-6.59,0.61-6.48,5.45C782.4,584.16,782.26,592.68,782.26,601.21z M561.55,618.06 c-7.07,4.06-7.73,8.79-8.09,13.49c-1.13,14.59,2.12,28.39,7.86,41.7c3.44,7.97,7.64,7.7,12.95,0.98c-3.76-0.22-7.12,3.49-10.4-1.33 C556.3,661.79,553.8,631.19,561.55,618.06z M193.27,1007.84c2.12,6.75,3.44,10.89,4.72,15.04c2.56,8.29,5.87,6.71,10.57,1.34 c3.23-3.69,3.04-5.37-1.22-7.56C203.18,1014.52,199.38,1011.72,193.27,1007.84z M787.98,706.8c-0.61,0.06-1.22,0.11-1.83,0.17 c-0.81,5.02-1.64,10.05-2.43,15.07c-0.29,1.84-1.16,4.31,1.18,4.96c2.35,0.65,5.32,0.86,7.47-0.04c2.91-1.23,0.72-3.86,0.16-5.79 C791.11,716.34,789.5,711.58,787.98,706.8z M238.91,966.59c9.44,9.02,10.55,8.7,16.26-4.32 C249.51,962.87,244.17,963.1,238.91,966.59z M795.87,422.76c-0.28-3.08,0.65-7-4.38-6.74c-4.34,0.22-4.81,3.74-4.83,6.89 c-0.02,3.23,0.74,6.8,4.95,6.8C796.34,429.72,795.54,425.73,795.87,422.76z M968.61,849.37c-4.91-3.44-9.34-5.16-14.56-6.08 C957.01,856.96,957.32,857.09,968.61,849.37z M945.23,384.72c-6.72-3.41-10.9-2.35-11.81,7.05 C937.78,389.4,943.18,390.81,945.23,384.72z"></path> <path class="st0" d="M332.24,187.61c15.97-2.07,31.72-4.26,47.52-6.12c31.19-3.68,62.56-6.79,93.9-5.27 c30.05,1.46,58.38-5.46,86.89-12.67c12.02-3.04,23.98-6.36,38.55-10.23c-4.99-1.98-7.64-3.05-10.3-4.08 c-22.44-8.73-34.31-30.07-28.45-51.14c5.94-21.37,26.45-32.9,50.74-28.85c23.27,3.88,40.28,17,53.7,35.61 c2.04,2.83,3.88,5.8,6.23,9.33c5.33-4.59,8.55-10.33,12.48-15.52c2.83-3.74,0.54-6.59-0.87-9.69c-9.63-21.3-13.21-43.38-8.25-66.46 c0.93-4.34,2.45-8.63,4.31-12.66c5.55-12.05,12.58-12.99,21.81-3.12c5.51,5.9,7.62,13.29,8.47,21.01 c2.07,18.84,0.3,37.53-8.44,54.3c-5.39,10.34-4.34,17.68,3.21,25.36c1.76,1.79,3.17,3.92,5.35,6.66 c6.96-9.73,13.59-19.01,22.3-26.45c16.06-13.71,34.18-21.2,55.64-18.1c17.41,2.52,28.62,12.73,32.76,29.54 c4.11,16.68-1.15,30.92-14.36,42.1c-6.6,5.59-14.39,8.79-22.83,12.59c18.78,4.79,37.76,8.91,56.28,14.53 c21.11,6.4,42.45,8.01,64.36,7.87c47.44-0.31,94.7,2.69,141.5,11.1c1.47,0.26,3.03,0.03,5.69,0.03 c-21.74-23.04-46.56-40.23-73.4-54.66c-39-20.96-80.83-33.52-124.23-41.37c-4.04-0.73-10.86,0.08-10.19-6.03 c0.72-6.67,7.25-3.68,10.99-2.97c60.98,11.64,118.69,31.38,169.03,69.08c13.62,10.2,26.55,21.21,37.57,34.21 c3.55,4.19,7.56,6.47,12.73,7.65c19.46,4.45,38,11.28,54.98,21.95c3.16,1.98,5.62,3.16,9.28,0.32 c40.88-31.73,110.26-24.2,154.48,19.63c50.46,50.02,57.97,134.24,17.34,192.43c-7.41,10.62-16,20.32-27.13,26.82 c-7.48,4.37-6.92,8.58-4.31,15.38c23.65,61.49,38.64,125.25,48.12,190.3c10.51,72.17,12.88,144.74,8.56,217.52 c-5.58,93.91-20.05,186.34-46.43,276.76c-4.48,15.34-8.72,30.82-14.42,45.72c-5.27,13.77-6.99,27.58-6.74,42.17 c0.62,35.55,0.52,71.1,0.71,106.66c0.02,4.16,0.09,8.33-0.04,12.49c-0.11,3.5,0.06,7.93-4.9,7.68c-4.51-0.23-3.63-4.52-3.63-7.57 c-0.07-32.99-0.08-65.98-0.1-98.97c0-5.07,0-10.15-1.76-15.81c-2.61,6.23-5.29,12.43-7.81,18.69 c-13.27,32.95-27.76,65.33-44.58,96.64c-1.2,2.23-2.4,4.67-4.23,6.31c-1.63,1.46-3.81-0.28-5.09-1.35c-2.91-2.42,0-4.7,1.01-6.67 c14.49-28.17,26.92-57.32,40.6-85.85c17.16-35.8,22.66-72.55,22.47-112.16c-1.08-226.45-0.48-452.9-0.47-679.36 c0-16.39-0.02-16.16-15.41-14.18c-31.66,4.07-54.37-10.61-71.38-35.6c-12.81-18.83-19.62-40.92-31.54-60.34 c-9.35-15.23-18.61-30.45-30.98-45.2c-1.67,7.29,0.93,12.91,1.78,18.55c0.9,5.97,2.76,11.82,4.48,17.65 c9.84,33.34,26.9,62.78,48.67,89.65c1.81,2.24,3.61,4.5,5.38,6.77c1.72,2.21,2.67,4.57,0.14,6.77c-2.64,2.3-4.73,0.74-6.49-1.41 c-3.45-4.21-6.89-8.43-10.22-12.74c-30.26-39.09-49.99-82.5-53.76-132.31c-0.36-4.69-2.83-7.51-5.61-10.64 c-47.46-53.28-106.97-87.18-173.49-111.19c-33.63-12.14-67.17-16.37-102.52-14.11c-34.82,2.22-69.75,2.79-104.54,5.77 c-3.35,0.29-7.78,1.85-8.2-3.55c-0.41-5.3,4.22-4.68,7.56-4.93c37.36-2.78,74.69-5.98,113.2-5.97c-2.4-2.95-5.11-3.05-7.58-3.66 c-27.34-6.8-54.46-14.24-80.04-26.4c-7.54-3.59-14.87-7.59-21.15-13.11c-4.44-3.9-6.38-2.21-7.76,2.44 c-2.01,6.74-3.98,13.47-4.72,20.54c-0.3,2.87,0.14,7.46-4.6,6.89c-5.04-0.61-3.93-4.99-3.46-8.4c1.09-7.95,2.45-15.96,5.88-23.19 c2.91-6.13,2.21-10.49-2.64-15.14c-3.39-3.24-5.82-7.49-9.15-11.92c-4.62,5.63-8.67,10.94-13.15,15.89 c-2.81,3.11-1.38,5.79-0.26,8.78c3.25,8.71,5.93,17.58,6.82,26.88c0.28,2.87,0.45,6.31-3.41,6.84c-4.18,0.57-3.96-3.01-4.58-5.81 c-1.66-7.49-3.52-14.93-5.28-22.4c-0.76-3.24-1.71-5.68-5.66-2.79c-31.83,23.25-69.39,31.81-106.54,41.4 c-2.06,0.53-4.06,1.3-8.41,2.71c29.53,1.52,56.56,2.87,83.59,4.33c11.51,0.62,23.01,1.44,34.51,2.22c3.46,0.23,8-0.03,7.64,4.96 c-0.37,5.13-4.76,3.87-8.24,3.62c-49.2-3.62-98.46-5.94-147.79-6.57c-3.81-0.05-7.8-0.15-11.43,0.81 c-75.9,20.04-146.24,50.73-203.34,106.64c-1.14,1.12-2.24,2.31-3.47,3.32c-13.16,10.82-19.42,24.13-21.52,41.68 c-5.89,49.34-30.72,90.27-62.06,127.63c-1.57,1.87-3.43,5.57-6.87,2.42c-2.92-2.67-0.96-5.25,0.88-7.56 c12.01-15.01,23.71-30.23,33.27-46.98c14.76-25.83,24.84-53.22,28.19-83.08c-3.7-0.58-4.4,2.52-5.75,4.21 c-18.49,23.12-33.45,48.36-45.2,75.54c-7.29,16.87-16.28,32.72-30.92,44.5c-17.1,13.76-36.43,20.17-58.22,15.16 c-8.81-2.03-10.45,0.1-10.44,8.78c0.28,196.34,0.24,392.69,0.32,589.03c0,6.44,0.62,12.92-7.91,16.53c0-205.49,0-410.43,0-615.37 c-0.63-0.15-1.27-0.3-1.9-0.45c-1.75,4.25-3.67,8.43-5.23,12.75c-28.65,79.38-44.3,161.46-50.98,245.4 c-10.09,126.89,2.1,251.9,32.03,375.36c1.47,6.05,0.32,9.8-6.05,12.57c-7.26-26.67-13.1-53.41-17.77-80.35 c-15.04-86.69-22.52-174.02-19.31-262.02c3.79-103.97,21.23-205.48,57.9-303.23c1.46-3.88,3.75-7-1.63-10.38 c-36.88-23.12-51.45-59.18-55.97-100.19c-7.88-71.51,36.65-138.2,104.37-156.36c31.65-8.48,62.26-5.1,90.38,12.92 c4.07,2.61,7.16,4.16,12.03,1.18c17.06-10.46,35.82-16.85,55.12-21.78c3.95-1.01,7.81-1.86,10.98-5.26 c51.68-55.5,116.73-86.11,189.85-101.56c7.2-1.52,14.42-2.94,21.66-4.24c2.72-0.49,6.14-1.59,7.02,2.57 c0.92,4.35-2.3,5.3-5.66,6.04c-16.23,3.6-32.58,6.73-48.64,11c-55.38,14.71-105.09,40.01-146.62,80.14 C335.29,183.07,332.62,184.13,332.24,187.61z M271.76,279.74c-3.75,3.04-6.49,5.73-9.65,7.74c-10.11,6.44-20.84,8.35-31.78,2.35 c-10.39-5.7-13.91-15.37-13.83-26.67c0.1-14.94,7.99-26.15,18.32-35.65c5.02-4.62,4.03-6.19-1.25-9.07 c-31.42-17.1-63.74-17.64-96.31-4.55c-59.44,23.89-94.22,91.67-80.61,155.85c6.49,30.59,18.66,57.74,45.29,76.49 c5.9,4.15,8.9,4.52,12.1-3.15c12.36-29.59,27.71-57.64,45.43-84.38c1.59-2.4,3.15-4.83,4.93-7.09c1.43-1.81,3.31-3.39,5.74-1.76 c2.71,1.82,2.29,4.24,0.72,6.66c-1.22,1.88-2.42,3.77-3.66,5.63c-18.15,27.21-33.61,55.87-46.5,85.95 c-2.37,5.54-1.81,7.84,4.06,9.57c21.23,6.26,41.26,4.73,59.24-9.02c23.75-18.17,35.15-43.11,35.54-72.37 c0.98-72.02-59.45-114.15-119.87-87.96c-2.7,1.17-5.63,2.84-7.22-1.09c-1.45-3.56,1.38-5.25,4.04-6.52 c10.52-5.02,21.63-7.96,33.26-8.46c46.77-2.01,83.03,26.73,95.03,75.46c2.13,8.65,3.26,17.54,5.06,27.5 c9.3-16.93,18.35-32.79,30.81-45.51C274.98,315.07,277.59,299.37,271.76,279.74z M1153.2,378.4c-0.07-19,3.25-34.4,9.42-49.17 c20.06-48.03,71.7-69.87,117.93-49.74c3.51,1.53,9.59,2.22,7.45,7.86c-2.51,6.61-6.95,1.27-10.24-0.01 c-27.93-10.86-54.71-9.27-79.38,8.33c-38.4,27.4-48.12,87.27-21.57,129.73c18.62,29.78,47.66,41.76,78.74,32.77 c6.01-1.74,9.05-3.83,5.22-10.43c-2.71-4.68-4.53-9.88-6.79-14.82c-11.89-25.96-26.47-50.38-42.24-74.14 c-1.77-2.67-5.37-6.07-0.58-8.9c4.04-2.38,5.34,2.06,7.27,4.27c1.46,1.67,2.52,3.69,3.77,5.55c18.05,26.9,33.69,55.12,46,85.09 c2.47,6.02,4.53,6.2,9.35,2.61c9.32-6.94,17.89-14.55,24.55-24.12c19.66-28.27,27.59-59.9,23.78-93.79 c-6.29-55.99-33.28-97.77-87.81-117.64c-31.13-11.34-62.23-10.05-91.55,7.36c-4.35,2.58-6.28,4.46-0.96,8.66 c8.7,6.88,14.65,16.05,18.04,26.67c4.06,12.71,0.04,26.68-9.52,33.88c-9.48,7.13-23.88,6.71-35.17-0.65 c-3.07-2-4.99-5.84-9.56-6.23c-0.75,6.55-1.8,12.86-2.1,19.21c-0.21,4.29-1.66,8.85,1.79,12.84 C1125.52,332.7,1139.28,353.73,1153.2,378.4z M1269.02,470.5c-2.97,15.26-2.31,710.55,0.2,719.69 C1340.61,948.49,1353.49,709.49,1269.02,470.5z M283.63,301.17c26.89-28.05,55.4-52,88.06-70.76c32.53-18.69,67-33.01,102.49-45.12 c-49.32-0.25-98.01,3.38-146.25,12.2c-6.05,1.11-10.26,4.11-13.87,9.1c-13.57,18.75-23.7,39.38-33.79,60.06 c-1.35,2.76-1.48,5.33-0.93,8.29C280.84,283.08,282.03,291.26,283.63,301.17z M908.92,185.87c35.56,12.39,70.27,26.14,102.59,45.22 c32.28,19.06,60.89,42.83,86.84,71.3c1.55-10.75,2.81-19.87,4.22-28.96c0.36-2.35-0.09-4.28-1.23-6.36 c-11.03-20.2-21-40.97-33.88-60.15c-3.73-5.55-8.25-8.52-14.64-9.47c-15.18-2.26-30.3-5-45.52-6.96 C974.66,186.29,941.85,185.01,908.92,185.87z M609.72,77.84c-26.12-0.31-38.33,8.12-41.7,24.2c-3.84,18.32,8.1,35.16,28.82,41.26 c26.68,7.86,45.95-7.46,65.96-20.65c2.76-1.82,1.4-3.75,0.19-5.71C649.19,94.53,631.01,78.81,609.72,77.84z M763.6,145.53 c16.01-0.04,28.27-4.13,36.8-11.03c11.08-8.98,15.28-22.24,11.14-35.18c-4.1-12.82-14.33-20.42-28.84-21.41 c-25.92-1.78-53.68,14.8-64.75,38.53c-1.16,2.49-2.32,4.51,0.48,6.67C733.01,134.37,748.47,143.65,763.6,145.53z M1156.9,263.54 c-0.17-6.22-2.54-13.19-7.27-18.97c-17.03-20.85-16.24-17.48-28.77,0.56c-1.62,2.34-2.91,4.93-4.13,7.51 c-7.75,16.33,0.35,30.26,18.57,32.02C1147.7,285.86,1156.95,277.39,1156.9,263.54z M243.49,284.38c7.79,0.04,14.23-3.19,19.63-8.51 c2.87-2.83,6.94-5.69,5.71-10.33c-3.38-12.78-9.21-24.35-18.52-33.98c-2.12-2.2-3.93-2.67-6.48-0.6 c-11.07,8.96-19.36,19.51-18.98,34.59C225.13,276.8,232.88,284.34,243.49,284.38z M690.43,85.95c6.11-12.81,9.56-24.44,10.6-36.6 c0.98-11.46,1.67-23.1-4.3-33.73c-1.54-2.75-3.21-6.29-6.71-6.2c-3.78,0.1-4.53,4.22-5.45,7.02 C676.89,39.76,679.86,62.25,690.43,85.95z M275.73,257.62c9.56-19.32,18.89-37.08,31.28-54.81c-18,3.74-33.51,9.98-48.36,18.05 c-2.87,1.56-3.54,3.17-1.16,5.87C265.19,235.44,269.83,246.03,275.73,257.62z M1105.33,258.07c5.16-12.2,10.73-22.12,18.29-30.77 c2.29-2.62,2.09-4.01-1.05-5.7c-14.69-7.89-29.75-14.7-47.76-18.31C1086.7,221.06,1095.53,238.64,1105.33,258.07z"></path> <path class="st0" d="M691.14,1618.89c3.87-4.68,7.73-9.73,12.01-14.39c2.66-2.9,1.96-5.55,1.11-8.8 c-2.02-7.72-3.75-15.52-5.3-23.35c-0.52-2.64-1.39-6.21,2.97-6.71c4.17-0.48,4.17,3.14,4.84,5.8c1.34,5.25,2.87,10.49,3.72,15.83 c1.01,6.4,2.56,6.96,8.21,3.1c23.16-15.83,48.28-19.99,74.67-9.17c16.24,6.66,26.24,19.31,28.85,36.77 c3.75,25.06-14.5,45.24-41.24,45.35c-27.19,0.11-46.29-14.45-60.89-35.97c-3.73-5.49-6.71-11.49-10.35-17.8 c-5.4,5.08-9.03,10.99-12.77,16.89c-2.54,4.02,0.42,6.68,1.73,9.68c9.98,22.89,13.76,46.49,8.54,71.18 c-1.4,6.63-4.19,12.7-7.64,18.52c-3.43,5.79-7.61,6.06-12.71,2.39c-10.37-7.48-12.83-18.81-14.09-30.33 c-2.11-19.38-0.86-38.94,7.94-56.32c6.78-13.39,1.64-21.38-7.72-30.39c-3.65,5.74-6.97,11.45-10.76,16.82 c-14.34,20.31-32.9,34.04-58.56,35.43c-21.36,1.16-37.63-9.58-43.38-27.71c-5.8-18.29,1.63-37.77,18.79-49.25 c22.9-15.32,57.68-14.36,81.6,2.29c2.62,1.82,5.11,3.81,8.31,6.2c4.72-7.12,5.65-15.24,7.5-23.04c0.77-3.23,0.44-8.15,5.52-7.05 c4.28,0.93,2.5,5.28,2.16,8.24c-0.4,3.48-0.66,7.26-2.22,10.26C674.34,1597.95,679.4,1609.14,691.14,1618.89z M616.87,1584.55 c-15.3-0.22-29.27,3.59-40.19,14.83c-9.2,9.47-11.84,20.92-8.1,33.69c3.42,11.67,11.9,18.04,23.14,20.58 c8.14,1.84,16.51,1.51,24.69-0.89c23.62-6.95,37.66-24.1,48.49-44.9c2.12-4.07,0.01-5.67-2.69-7.71 C648.79,1589.98,633.93,1584.11,616.87,1584.55z M762.77,1584.24c-6.8-0.17-15.53,1.47-23.99,4.69 c-24.24,9.23-26.06,14.59-10.88,35.47c13.89,19.11,31.71,31.44,56.61,29.87c21.96-1.38,34.81-20.47,28.07-41.45 C806.93,1595.23,788.85,1584.36,762.77,1584.24z M690.88,1637.67c-7.1,15.62-10.18,30.34-10.47,45.74 c-0.2,10.61,0.75,21.03,5.45,30.76c1.36,2.81,2.65,6.65,6.28,6.33c3.1-0.27,3.49-4.19,4.41-6.75 C705.71,1688.2,701.03,1663.66,690.88,1637.67z"></path> <path class="st0" d="M213.33,1491.12c7.14,2,9.22,6.06,9.61,12.29c0.84,13.73,2.67,27.39,3.57,41.11c0.33,5.03,2.16,6.55,6.97,6.52 c22.39-0.16,44.79-0.07,67.83-1.04c-8.71-8.09-18.09-15.24-27.45-24.76c13.3,3.7,24.39,8.16,33.41,16.66 c7.94,7.47,17.12,9.73,28.01,9.56c38.09-0.62,76.19-0.21,114.28-0.64c10-0.11,18.79,2.47,29.27,8.87c-48.47,0-94.74,0-141.05,0 c-0.27,4.18,2.51,4.57,4.14,5.59c57.43,35.99,119.24,61.27,185.42,75.96c4,0.89,12.03-0.57,10.7,6.36 c-1.53,7.98-8.77,2.85-12.78,1.98c-70.74-15.43-136.46-43.03-196.98-82.78c-7.27-4.78-14.44-7.02-23.18-6.86 c-25.6,0.47-51.22-0.04-76.83,0.32c-6.84,0.1-9.54-1.67-9.96-8.93C217.15,1531.55,215.11,1511.83,213.33,1491.12z"></path> <path class="st0" d="M1152.93,1489.51c-5.08,5.45-10.14,10.91-15.25,16.33c-2.71,2.88-5.3,1.06-7.51-0.65 c-3.72-2.89,0.25-4.27,1.63-5.68C1137.23,1493.96,1144.37,1491.23,1152.93,1489.51z"></path> <path class="st0" d="M586.28,724.43c-76.01,36.72-139.48,89.78-197.6,149.88C444.95,811.77,502.76,751.22,586.28,724.43z"></path> <path class="st0" d="M775.89,657.18c0.34-5.48,2.97-10.03,10.12-10.3c6.75-0.25,11.9,5.7,11.73,13.29 c-0.15,6.7-3.55,10.88-10.2,11.47C781.1,672.22,775.73,665.66,775.89,657.18z M793.39,658.94c-0.88-3.94-2.61-7.55-7.22-7.38 c-3.49,0.13-5.77,2.79-5.72,6.46c0.05,4.2,1.78,7.83,6.45,7.94C791.02,666.06,792.84,662.89,793.39,658.94z"></path> <path class="st0" d="M961.68,526.02c5.44,1.09,8.29,4.72,8.49,9.88c0.16,4.29-2.56,7.23-7,7.25c-5.3,0.03-7.98-3.27-8.22-8.38 C954.74,530.11,956.88,526.99,961.68,526.02z"></path> <path class="st0" d="M825.83,336.13c-4.22-3.78-4.22-3.78-14.57,1.01c-0.97-3.86,2.63-4.65,4.37-6.48 c5.7-6.01,9.75-12.84,9.75-21.27c0-5.72-1.82-11.2-8.55-12.05c-6.17-0.78-9.11,3.78-11.1,8.75c-1.02,2.54-1.43,5.33-3.06,7.82 c-0.92-4.85-0.24-9.49,2.2-13.75c2.54-4.43,6.26-7.19,11.71-6.93c5.91,0.28,9.47,3.82,11.35,8.9c2.46,6.64,1.9,13.57-1.73,19.46 c-3.15,5.13-2.56,9.21,0.58,13.63C826.46,335.53,826.15,335.83,825.83,336.13z"></path> <path class="st0" d="M719.19,267.89c13.98,4.28,26.04,2.68,38.71-1.75C745.21,278.62,727.46,279.93,719.19,267.89z"></path> <path class="st0" d="M793.2,306.93c-7.03-11.36-25.26-15.48-21.64-33.72c3.83,5.64,3.31,13.72,10.25,17.64 C787.93,294.31,792.94,299.08,793.2,306.93z"></path> <path class="st0" d="M607.35,370.14c0.21,1.82,0.43,3.63,0.66,5.63c-2.98-0.4-3.15-3.49-4.82-5.08c-3.67-3.5-7.52-6.21-12.68-3.25 c-5.46,3.12-5.78,8.23-3.96,13.35c3.37,9.52,11.3,14.04,20.34,16.75c-0.53,3.36-2.6,3.02-4.34,2.19c-4.21-1.99-5.9-0.23-7.84,3.58 c-2.81,5.5-5.57,11.55-12.64,13.18c1.76-2.18,3.48-4.39,5.28-6.52c5.48-6.47,10.03-12.65,0.36-19.74 c-3.86-2.83-5.59-7.58-5.92-12.64c-0.42-6.37,1.65-11.42,7.54-14.18c5.62-2.63,10.52-0.91,14.65,3.49 C605.05,368.03,606.23,369.06,607.35,370.14z"></path> <path class="st0" d="M628.52,356.9c-7.9,3.28-12.31,12.13-21.45,13.42c11.01-12.34,22.33-24.49,25.76-44.19 C636.31,339.07,632.59,348.01,628.52,356.9z"></path></g></svg>