<svg xmlns="http://www.w3.org/2000/svg" xmlns:xlink="http://www.w3.org/1999/xlink" id="Capa_1" x="0px" y="0px" viewBox="0 0 1333 1333" style="enable-background:new 0 0 1333 1333;" xml:space="preserve"><style type="text/css"> .st0{fill:#4A4A4A;}</style><g> <path class="st0" d="M697.4,553.4c-7.8,4.7-16.9,6-25.6,8.1c-5.1,1.3-10.3,2.1-15.5,3.2c-14.9,3.4-16,4.6-17.2,19.8 c-0.1,1.7,0,3.4-0.4,5c-0.5,2,1.3,4.9-1.7,5.8c-2,0.7-3.4-1.4-5-2.5c-1.3-0.9-2.6-1.7-4.7-2c3,7.7-1.1,18.5,11.2,21.9 c3.8,1.1,3.1,6.2,3.9,9.6c2.7,11.1,7.8,20,18.3,25.5c16.5,8.5,33.3,3,40.9-13.9c2-4.5,3.3-9.4,4.7-14.2c1.1-3.8,0.5-8.5,6.7-8.6 c2.6-0.1,2.6-3.4,3-5.4c0.8-3.8,1.3-7.7,2.1-12.6c-7.3,3.7-8.1-0.2-8.5-6c-0.6-8.9-2.8-17.5-5.3-26.1c-0.5-1.7-2-4,0.7-4.9 c2.5-0.8,3.2,1.8,3.9,3.4c2.7,7.4,3.7,15.1,4.4,22.8c0.2,2.1-0.4,5.3,2.1,5.8c2.8,0.5,5-1.8,6.4-4.4c7.6-13.3,2.5-34.8-10.2-43.5 c-2.2-1.5-5.3-1.8-6.8-6.6c8.8,1.1,15.1,4.7,19.4,11.3c8,12.4,7.7,26.1,3.3,39.3c-2.4,7.4-4.4,14.8-6,22.4 c-1.1,4.9-1.3,10.1-8.2,12.2c-5.1,1.5-7.1,20.9-3.1,24c23.1,17.4,46.2,34.7,71.6,48.7c4.6,2.5,6.6,2.8,8.7-2.9 c6.3-16.9,11.1-34.4,20.3-50.1c3.6-6.2-3.2-9.9-5.7-14.4c-2.3-4.2-5.5-0.7-7.9,0.3c-14.6,5.8-19.4,2.4-24.5-12 c-3-8.7-5-19.8-16.7-23.3c-4.5-1.3-5.1-6.2-3.7-9.9c4.2-11.1,2.8-21.2-2.8-31.5c-3.4-6.2-1.5-13.7-0.6-20.5 c0.3-2.9,0.3-4.3-3.3-4.9c-8.5-1.5-12.2-9.4-8.3-17.2c1.1-2.2,2.6-4.4,4.4-6c25.1-22.4,54-34.5,88.1-32c2.1,0.2,4.6-0.1,6.2,2.7 c-1.8,3.3-5.1,2-7.7,1.9c-27.5-0.8-51.7,8.7-74,23.9c-3.2,2.2-6,5-8.6,7.8c-2.7,3-6.3,6.8-3,10.9c2.9,3.7,7.2,1.4,10.7-0.2 c6.8-3,13.7-6.2,20.5-9.2c2-0.9,4.1-1.9,6.2-2.4c2-0.5,4.3-2.3,6.3-0.6c2.5,2.2,0.1,4.7-0.6,6.8c-5.2,15.3-4.6,17,7.8,26.6 c4.3,3.3,8.3,7,12.6,10.7c2.8-3,2.7-6.9,4.2-10.1c2.1-4.4,4.7-8.3,10.2-8.7s9.7,2,12.8,6.4c3.2,4.6,4.6,10.1,6.2,15.4 c2.1,6.9,4.4,13.8,8.2,20c2,3.2,4.8,4.3,8.5,3.9c3.7-0.3,6.6-1.8,7.3-5.6c4.6-25.1,7.6-50.2-5.5-74c-3.5-6.4-8.5-11.6-14.1-16.3 c-1.7-1.4-5.6-2.4-3.3-5.4c2-2.6,4.6,0.3,6.5,1.5c15.7,10.4,23.4,25.9,25.3,44c1.8,16.9,2.1,34-2,50.6c-1.6,6.6-5.2,12.2-1.5,19.5 c2,4,3,5.5,7.7,4c12.6-4.2,12.7-3.9,17.8,8.1c2.3,5.4,4.2,11,7.1,16c2.4,4,4,7.1-0.5,10.6c-2.6,2.1-0.3,4,1,5.6 c33.9,41.4,40.5,90.1,38.5,141.4c-1.5,38.6-2.8,77.3,0.7,115.9c3,33.5,8.5,66.7,14.2,99.8c2.5,14.7,2.7,14.7-11.5,20.8 c-2.5,1.1-4.2,2.2-4,5.3c2.4,40.1-3.5,80-3.7,120c-0.2,29.6,3.4,58.8,10.1,87.6c0.5,2.2,1,4.3,1.4,6.5c0.3,1.8,0,3.4-2,4 c-2.4,0.8-3.7-0.6-4.2-2.8c-1.7-7.3-3.5-14.6-5-21.9c-9-44.6-8-89.5-4.3-134.6c1.5-18,2.5-36.1,1.6-54.2c-0.2-5.2-1.2-7.2-7.3-5.8 c-12.1,2.9-24.6,4.5-36.8,6.9c-5.7,1.1-9-0.6-10.5-6.3c-1.8-7.1-4-14.1-7.3-20.9c-0.5,6.5-0.8,13-1.4,19.4 c-0.6,6.3-3.8,9.6-10.7,10.2c-25.9,2.4-51.6,2.1-77.2-2.8c-6-1.2-7.8,0-7.7,6.1c0.7,41.4,1.8,82.8,5.3,124.2 c1.9,22.7,4.4,45.4,7.4,68c0.4,2.8,1.6,6.9-3,7.2c-4,0.2-3.3-3.8-3.7-6.3c-5-31.6-7.2-63.5-9.4-95.4c-2.3-33.6-3.2-67.2-3.2-100.9 c0-4.7-6.1-10-10.3-9c-3.3,0.8-2.1,3.6-2,5.5c0.1,17.2,0.3,34.5,0.5,51.7c0,1.7,0.3,3.4,0.1,5c-0.3,2.7,1.5,7.2-3,7.2 c-4.2,0-3.3-4.5-3.4-7.3c-1.4-50.6-1.5-101.2,1.6-151.8c0.4-5.9,0.6-10.1-7.2-10c-5.3,0-8.4-4.3-9.9-8.9c-1.8-5.7-5.3-7.2-10.8-6 c-5.1,1.1-9.4,0.5-10.9-5.6c-0.8-3.4-3.1-2.2-5.2-1.1c-17.4,9.4-34.5,5.8-51.1-2.1c-4.4-2.1-8.2-2.5-12.6-1.1 c-18.3,5.7-36.5,11.9-55.3,15.5c-6,1.2-6.8,3.5-5.6,9c9.8,44,15.7,88.6,21.3,133.3c6.7,53.8,10.4,107.9,12.1,162.1 c0.2,5.8,0.5,11.7,0.6,17.5c0,2.7,0.8,6.3-3.1,6.6c-4.5,0.2-3.1-3.8-3.2-6.2c-1.1-31.4-2.5-62.8-4.8-94.1 c-5.5-73.2-14.6-146-28.6-218.1c-1.1-5.5-3-7-8.8-6.2c-13.5,1.9-27,3.8-40.6,3.6c-16.9-0.3-23.5-4.7-27.3-21 c-9.5-40.1-15.8-80.7-17.2-122c-0.1-2.7-1.7-7.1,3.1-7.1c4.6,0,3,4.6,3.2,7.2c1.8,39.8,7,79.2,16.2,117.9 c3.7,15.5,8,18.7,23.9,18.5c35.3-0.5,69.4-8.3,102.8-19c11.2-3.6,21.2-5.5,32.6,0.6c11.2,6.1,23.8,6.5,36.4,2.1 c6.2-2.2,9.4-5.1,7.5-12.1c-0.9-3.4-0.9-7.2-1-10.8c-0.3-15.8,0.3-16.5,15.1-19.7c-5.5-12.4-41.9-21.5-61.4-15.1 c2.4,2.9,5.7,2,8.5,2.4c7.4,0.8,15,0.8,21.9,4.3c1.7,0.8,3.9,1.5,3.8,3.9c-0.1,2-2,2.4-3.4,3.2c-25.8,13.4-52,24.5-82.2,23.3 c-20.2-0.8-40.5,0.8-60.7-1.7c-7.7-1-11.1-3.5-10.8-11.9c1.1-28.3,1.6-56.7,2-85.1c0.2-12.5-0.5-25-4.1-37.2 c-2.5-8.5-5.8-16.9-15.8-18.5c-9.7-1.6-16.9,3.9-23.1,10.8c-0.6,0.6-0.9,1.5-1.6,2c-2.5,1.9-2.8,8.8-7.3,5.3 c-3.1-2.4,1-6.5,2.9-9.3c7.4-10.5,17.4-16.5,30.6-14.4c12.2,2,17.2,11.4,20,22c5.9,21.8,4.8,44.1,4.1,66.3c-0.6,18.3-1,36.7-1.7,55 c-0.2,5.6,1.2,8.3,7.6,8.9c16.8,1.6,16.6,1.9,21-14c3.8-13.6,7.9-27.2,12.5-40.6c6.2-18.4,3.1-34.9-8.2-50.4 c-10.7-14.6-20.8-29.6-31.6-44c-12.5-16.6-9.4-33.9-3.8-51.6c1.4-4.3,4.6-6,9.1-5.4c6.3,0.7,12.7,1.3,19.1,1.8 c3.6,0.3,7.6-0.5,8.3-4c1.4-7.2,5.9-13.7,5-21.4c-0.5-4.3-0.2-7.6,5-8.6c3.8-0.7,4.1-3.5,1.9-6.2c-7.8-9.4-7.5-20.1-6.2-31.4 c1.2-10.8-1.9-20.3-11.4-27.6c-2.9,5.9-2.2,12.4-4,18.3c-2.6,8.4-5.9,16.2-13.1,21.7c-6.9,5.2-14.3,7.2-22.6,3.4 c-3.7-1.7-7.6-3.5-10.3,1c-2.3,4-1.4,8.4,1.8,11.5c3.2,3.3,7.2,5.8,11.4,9.2c-5.4,3.1-8.9-1.6-13.3-1.8c0.2,2.2,0.4,4.3,0.6,6.4 c1.3,18.8-8.8,31.8-27.5,34.1c-5.4,0.7-7.6,2.8-8.7,7.8c-8.5,37.4-17.2,74.7-22.6,112.7c-2.1,15.1,3.5,28.5,6.7,42.4 c2.7,11.6,6.5,23.1,11.4,33.9c8.5,18.7,6.8,35.4-3.7,53c-19.7,33.2-37.2,67.7-52.8,103.1c-29,65.9-52.8,133.8-74.3,202.5 c-1,3.3-0.4,9.8-5.6,8.4c-5.8-1.5-2.2-6.9-1.1-10.6c23.6-74.2,49.5-147.5,81.7-218.4c2.2-4.8,1.7-8.1-1.7-11.8 c-4.7-5.1-8.9-10.7-14.7-14.7c-1.8-1.2-3.5-3.5-5.8-2.7c-2.6,1-1.4,3.9-1.5,5.9c-0.5,13.6-0.8,27.2-1.3,40.9s-6.6,23.9-19.2,29.8 c-13.1,6.1-26.3,11.9-39.3,18c-3,1.4-5.9,3.1-8.6,5c-9,6.4-10,11.4-4.6,21.2c1,1.8,3.5,3.8,1.1,5.8c-2.5,2-4.7,0-6.5-1.8 c-6.1-6.5-5.2-14.5-3.7-22.1c2.8-13.6,6-27.2,9.6-40.6c33.8-125.5,65.5-251.6,98.1-377.5c8.8-34.1,17.9-68.4,35.3-99.5 c11.1-19.8,26.8-33.3,51.2-32.5c2.2,0.1,4.9-0.1,6.5,1.1c7.9,5.9,16.6,4.8,25.7,4.7c20.5-0.2,39.1,12.8,43.4,28.9 c1.6,6,0.2,11.9-0.1,17.9c-0.7,13.6-6.7,28,3.7,40.8c4.3,5.2,3.7,10.3-2.7,13.8c-1.7,0.9-4,1.7-3.3,4.1c2.3,7.4-3.1,13.2-3.8,20 c-0.8,7.6-6.5,11.3-14,11.6c-3,0.1-6.1-0.6-9.1-0.9c-13.8-1.4-16.2,0.3-17.9,14.5c-0.8,7.1-1.8,14.4,0.9,21.4c1.5,3.8,3,6,7.9,3.1 c29.5-17.3,56.7-38.1,84.7-57.6c3.4-2.4,3.7-4.8,2-8.5c-3.1-7.1-3-15.8-11.3-19.9c-0.4-0.2-0.7-0.9-0.9-1.4 c-6.6-18.6-13.2-37.2-10.3-57.5c0.7-4.8,2.7-9,5.2-13c12.6-19.8,49.4-30,70.2-19.3c2.5,1.3,5.9,2.1,6.3,5.9c-2.5,1.7-4.2-0.4-6.1-1 c-20.5-7.2-39.5-3.9-56.9,8.4c-12.7,9-17.7,28.3-12.5,42.8c1.5,4.2,4.9,6.2,8.1,6c3.3-0.2,2.1-4.5,2.3-7 c1.4-13.4,1.8-14.7,14.5-17.8c15.8-3.9,31.8-6.8,47.8-10C697,552,697.2,552.7,697.4,553.4z M934.5,801c0-13.1-0.2-26.1,0-39.2 c0.9-47.1-7.4-91.3-39-128.6c-3-3.5-5.3-4.8-9.5-4.2c-18.6,2.7-36.1,8.8-52.5,17.8c-18.5,10.2-34,23-38,45.6 c-1,5.4-3.6,10.5-5.5,15.7c-14.1,40.3-22.5,81.9-27,124.3c-0.5,5,0.6,6.4,5.7,5.2c12.2-3,24.1-6.6,35.9-10.7 c4.9-1.8,6.5-4.8,7.3-9.7c3.9-23.5,3-47.1,3.3-70.7c0.3-20.7,1.7-41.2,11.1-60.2c8.8-17.8,23-28.8,43.3-28.8 c18.3,0,28.8,12.4,36.7,27.3c1.5,2.8,4.2,7.1,0.8,9c-4.3,2.4-4.6-3.2-6.3-5.7c-2.7-3.9-4.8-8.2-7.7-11.8 c-12.3-14.9-30.4-17-45.9-5.5c-7.3,5.4-12.6,12.5-16.1,20.9c-4.6,11.1-7.1,22.8-8.3,34.7c-3,30.2,0.8,60.7-4.3,90.7 c-0.5,2.8,0.4,3.8,3.5,3.9c15.6,0.7,24.6,11.5,32.9,22.6c4.7,6.2,0.8,12.1-7,12.1c-6.3,0-12-2.2-16.8-6.2 c-5.3-4.5-10.2-9.5-14.1-15.3c-1.7-2.5-3.2-4.3-6.7-2.9c-22.6,8.8-46.2,14-70.1,17.4c-4.4,0.6-6.4,2.9-6.7,7 c-1.2,16.3,1,32.1,7.3,47.3c2,4.7,4.7,5.9,9.7,5.1c15.1-2.2,30.3-3.7,45.4-6c22.2-3.3,44.6-5.9,65.2-16 c13.3-6.5,22.2-16.2,25.8-30.8c10.3-41.9,17.2-84.3,21.6-127.2c0.3-3.3-2.1-9.6,3.6-9.2c5.2,0.4,2.7,6.4,2.5,9.8 c-2.9,38.9-11,76.9-17.8,115.2c-5.4,30.5-22.4,47.8-51.4,55.2c-4,1-8,2.4-12.1,3.1c-21.4,3.5-42.7,7-64.2,10 c-7,1-10.6,2.7-10.7,10.8c-0.2,24.7-1.1,49.5-2.3,74.2c-0.4,7.4,2.6,10.4,9.2,12.2c29.6,7.8,59.6,9.6,90.1,7.6 c7.7-0.5,9.1-5,9.4-11c0.6-15.3,0.9-30.6,1.5-45.8c0.1-2.2-0.9-5.5,2.8-5.9c4.2-0.4,3.9,2.9,4.3,5.7c2.3,16.3,6.7,32,11.2,47.8 c1.5,5.1,3.7,6.3,9,5.5c16.2-2.6,32.1-6.1,48-10.2c7.7-2,9.1-5.7,7.8-13.2C938.3,927.5,929.1,864.8,934.5,801z M493.6,566.9 c2.1,4.7,0.1,7.7-1,10.7c-9.9,27.5-17.6,55.6-24.8,83.8c-14.9,58.1-25.6,117.2-38.1,175.8c-5.2,24.2-9.9,48.4-15.1,72.6 c-1.5,6.7,0.7,8.9,7.1,9.4c17.8,1.5,17.8,1.7,20.9-16c0.2-1.4,0.4-2.8,0.6-4.1c6.4-46,11.9-92.1,19.4-137.8 c10.4-63.4,26.9-125.4,42.7-187.6c3.6-14.3,8.7-28.3,19-39.4c4.5-4.8,2.5-6.4-2.4-7.5c-15.3-3.4-28,2-38.5,12.6 c-12.4,12.5-19.2,28.4-25.5,44.5c-9.6,24.9-16.7,50.7-23.4,76.5C403.4,780.6,373.4,901,341,1020.8c-3.5,13-6.7,26-10.4,40.4 c18.1-8.2,34.8-15,50.9-23.1c14.9-7.5,18.2-21.6,9.3-35.5c-3.7-5.8-7.8-11.5-11.8-17.2c-9.6-13.6-1.5-43,18.5-46.3 c10.6-1.7,21-5.3,31.3-8.3c2.6-0.8,6.4-0.4,7-5.2c-4.9,0-9.5,0.2-14.2,0c-13.9-0.5-16-3.2-13.2-16.8 c13.8-68.6,27.8-137.2,43.2-205.5c9.2-40.7,19-81.1,33.2-120.4C486.8,577.5,488.4,571.8,493.6,566.9z M690,735.8c0.2,0,0.4,0,0.6,0 c0,6.1,0.1,12.2,0,18.3c-0.1,5.3-0.2,10.6-0.5,15.8c-0.1,2.4,0.4,6.2-2.6,6.2c-4.1,0-2.5-4.2-2.5-6.6c-0.2-7.8,0-15.6-0.1-23.3 c-0.1-13.6-0.4-27.2-0.4-40.9c0-5.2-1.1-8.5-7.5-7.8c-5.1,0.6-9.6-0.1-9.3,7.8c0.6,20.5,0.3,41.1,0.4,61.7c0,1.7,0.2,3.3,0,5 c-0.1,1.2,0.5,3-1.5,3.3s-3.3-0.8-3.6-2.6c-0.5-3.3-0.8-6.6-0.8-10c-0.2-19.2-0.7-38.4-0.3-57.5c0.1-6.4-2.2-8.6-8-9.7 c-15.9-2.9-31.3-7.7-45.1-16.4c-4.3-2.7-7.1-2.4-11.1,0.3c-13.5,9.2-27.2,18.2-41.2,26.8c-3.8,2.4-3.6,3.9-1.5,7 c6.1,8.6,11.7,17.6,18,26c3.7,4.9,6.4,13,15.6,8.4c0.8-0.4,2.5,0.8,3.8,1.3c26.4,11.5,52.9,23,79.2,34.7c3.2,1.4,5.6,0.6,8.6-0.6 c25.5-10.8,51.2-21.4,76.8-32.1c2.8-1.2,5.7-3,8.7-2.2c4.3,1,5.1-1.3,6.1-4.6c3.9-12.8,7.9-25.5,12.1-38.1c1.3-3.9,0.7-5.9-3-8 c-11.3-6.6-22.3-13.5-33.4-20.4c-2.3-1.5-4.1-2-6.6-0.1c-13.3,9.6-28.6,14.7-44.5,17.5c-5.9,1.1-6.9,3.8-6.8,9 C690.2,714.6,690,725.2,690,735.8z M780.9,596.5c-7.5,4.4-3,9.9-2.7,14.5c0.7,10.3,6.2,13.6,15,8.9c12.5-6.7,25-13.6,31.6-27.2 c0.9-1.8,1.8-4.7,4.8-2.7c2.3,1.5,0.7,3.5-0.1,5.2c-4.2,8.3-10.5,14.8-17.8,20.6c-7.6,6,1.7,8.7,3.1,12.7c1.8,5,4.5,0.7,6.1-0.8 c12.5-11.5,26.4-21.2,41-29.8c1.4-0.8,3.7-2.4,3.5-3.1c-1.3-4.8-2.9-9.5-4.8-14.1c-1.3-3.3-4.4-1.5-6.6-1.6 c-5.3-0.3-8.8-3.3-11.2-7.6c-2.5-4.5-4.7-9.3-7.4-14.5c-2.6,4.5-4.8,8.5-7.2,12.4c-0.9,1.5-2.6,2.3-4.3,1.2s-1.7-2.7-0.6-4.3 c0.9-1.4,1.9-2.7,2.8-4.1c4-6.2,4.4-13.1,3.5-20.1c-0.5-4-2.8-7.5-7.2-8.2c-4.8-0.7-5.6,3.7-7.1,6.8c-1.4,3-2.1,6.4-3.8,9.2 c-3,5.1-6.5,6.6-10.8,0.8c-2.6-3.5-5.3-7.6-8.9-9.7c-11.9-7-18.3-16-12.1-32.6c-9.5,5.5-20.2,5.6-23.8,13.3 c-3.5,7.5-5.7,17.5-0.5,25.7c5.6,9,7,17.7,3.3,27.6c-2,5.3-1.5,10,5.7,10.8c2.5,0.3,4.5,2,4.6,4.2 C769.6,597.1,773.5,598.5,780.9,596.5z M588.1,562c0,0.8,0.2-0.3,0-1.3c-3.1-14.9-17.7-26.8-35.6-29.3c-14.7-2-24.4,3.3-31.9,19.6 c-14.8,32.3-20.1,67.3-28.2,101.5c-0.7,3.1-0.3,4.7,3.6,4.2c12.6-1.4,22.1-11,22.3-23.8c0.2-8.3-0.7-16.6-0.8-25 c-0.2-11.2,6.3-16.9,16.4-12.7c13.5,5.7,24.8-1.8,29-16.1c2.3-7.7,3.8-15.6,5-23.6c1-6.7,3.8-6.5,8.2-3.3 C580.4,555.6,584.6,559.2,588.1,562z M592.3,768.8c3.1,9.9,4.3,18.7,2.7,28c-2.5,13.8-7.3,26.8-11.7,39.9c-2,5.8-0.3,7.9,5.3,8.9 c8.2,1.5,16.4,2.5,24.8,2.7c22.9,0.3,24.5-0.8,31.6-22.8c4.3-13.5,7.8-16.1,22.2-16.3c2.8,0,6.7,1.4,6.4-3.7 c-0.2-3.6,1.3-7.8-4.1-9.5C643.8,787.8,618.1,780,592.3,768.8z M461.2,815.6c-0.4,2.2-0.8,4.3-1.1,6.5 c-3.6,26.7-7.3,53.4-10.7,80.1c-4,31-3.9,30.9-34.2,39c-8,2.1-16.3,3.4-23.8,7.3c-2.2,1.1-5.1,2.4-4.6,5.2c0.4,2.5,3.5,2.3,5.6,2.7 c15.9,2.7,28,11.4,37.9,23.8c0.8,1,1.5,2.4,3.4,2.3c15.7-28.9,31.5-57.8,47.1-86.8c3.3-6.2,3.5-12.9,1.6-19.5 C476.6,855.7,467.6,836.2,461.2,815.6z M733.7,843.5c5.8-0.9,12.1-1.8,18.4-2.8c2.9-0.4,4.2-2,4.4-5c1.5-20.5,5-40.8,8.8-60.9 c1.2-6.6-0.3-6.9-6-4.9c-23.7,8.5-47.5,16.8-71.5,24.7c-5.9,2-9.9,3.8-9,11.2c0.9,7.5,6.6,4.5,10.3,5c9,1.1,18.4,3.7,21.4,12.1 c3.4,9.5,12,12.4,17.6,18.9C729.4,843.1,731,844.1,733.7,843.5z M607.3,673c24.8,13.8,49.9,21.3,77.4,18.5 c17.8-1.8,34.8-6.5,50.3-15.9c3.9-2.4,4.5-4.2,0.4-7.1c-9.1-6.6-18.1-13.5-27.3-20.4c-1.3,22.4-12.2,34.4-31.5,35.5 c-15,0.8-35.3-8.7-37.4-33.5C628.4,657.7,618.2,665.1,607.3,673z M708,830.9c-3.3-9.2-8.2-13.6-16.2-14.5c-9.7-1-19.3-1.4-29.1-1.4 c-6.6,0-10,3.1-11.8,9.3c-1.7,6.1-4.3,12-6.7,17.9c-2.8,6.9-7.8,9.8-15.3,10.6c-15.1,1.6-29.9,0.3-44.7-2.7 c-6.5-1.3-5.6,3.3-6.5,6.9c-1.1,4.5,0.8,5.8,5.1,5.8c18.6,0,37.2-0.6,55.7-1.5c17.5-0.9,29.7-12.8,45-18.7 c-6.7-1.8-13.2-2.5-19.7-3.7c-4.3-0.8-9.6-1.8-9-7.7c0.5-5.5,5.6-6.6,10.1-6.8C679.1,824,693.3,822.8,708,830.9z M809.5,655.2 c11.3-8.1,22.6-16,35.5-21.3c14.4-6,29.2-10.7,44.9-11.7c6.4-0.4,7.6-2.6,4.8-8.2c-2.4-4.7-4.3-9.7-6-14.6 c-1.5-4.2-3.6-4.7-7.5-3.1c-10.1,4-20,8.5-29,14.5C834.8,622.5,818,634.8,809.5,655.2z M646.8,645.3c-3,13.3,0.6,21.8,11.9,28.5 c10.6,6.4,26,5.3,35.1-2.4c7.5-6.3,10-16.2,6.4-24.9C680.9,662.9,668.1,662.7,646.8,645.3z M684.9,789.2 c28.2-7.6,53.8-17.2,79.5-26.5c3.3-1.2,4.7-3.5,3.5-6.3c-1.4-3.2-4.4-1-6.4-0.3c-21.6,7.2-42.4,16.3-63.2,25.6 C694.2,783.5,689.5,784.3,684.9,789.2z M663,785.7c-23.8-10.4-47.5-20.8-71.3-31.1c-1.5-0.7-3.6-1.5-4.5,0.2 c-0.5,1.1,0.3,3.2,1,4.6c1.6,3.3,4.8,4.5,7.9,5.6c14.8,5.5,29.6,10.9,44.4,16.1C647.8,783.6,655,786.6,663,785.7z M726.4,864.2 c0.2,0,0.4,0,0.6-0.1c0-1.7,0-3.3,0-5c0-2.3,1.3-5.5-3-5.2c-3.4,0.2-8-0.9-8.7,4.1c-1.3,10.8,0.1,21.5,3.1,32 c1.3,4.4,5.4,3.1,8.5,2.7c4.7-0.5,2.5-4,2.2-6.4C728.3,879,727.4,871.6,726.4,864.2z M397,999c0-9.5-0.4-19.1,0.1-28.6 c0.6-9.4-6.7-8.5-11.7-8.8c-5.7-0.3-4.2,5.4-4.3,8.9C380.8,982.7,390.8,989.7,397,999z M825.3,827c-1.8,0.8-7.5,0-4.3,3.7 c6.5,7.6,12.7,16.5,24,18.1c2.2,0.3,5.7,1.4,4.2-3.3C847.3,839.7,831.4,827.2,825.3,827z"></path> <path class="st0" d="M434,393.7c2.5,0.3,4.2-1.2,6-2.5c36.2-26.6,76.2-46.6,116-66.9c40-20.4,78.8-42.5,107.4-78.6 c2.1-2.7,3.3-3.9,6.1-0.5c26.5,32.2,61,54,97.4,72.9c43.1,22.4,86.5,44.4,126.3,72.5c0.8,0.6,1.8,0.9,3.7,1.8 c-3.9-9.2-7.8-17.3-10.9-25.7c-6.2-16.5-8.2-33.4-4.3-50.8c0.6-2.5,0.2-6.4,3.1-7c2.8-0.6,4.5,2.7,6.5,4.6 c9.7,9.6,14.7,21.6,16.7,34.8c2.3,15.3,0.8,30.5-4.8,45.1c-0.7,1.8-2.2,3.1,0,5c13.5,11.8,27,23.7,41.2,36.2c1.5-5-0.9-8-2-11.1 c-7.5-20.9-10.5-42-4.2-63.7c0.7-2.2,0.6-5.6,3.4-6.1c2.8-0.5,4.3,2.4,5.6,4.3c17.6,25.8,19.1,53.1,7.4,81.6c-0.8,1.8-2.3,3-0.5,5 c12.1,13.8,24.1,27.6,36.2,41.4c0.4,0.5,1.5,0.4,3.1,0.8c-3.4-12.5-6.4-24.6-7.1-37c-0.8-13,0.7-25.5,5.4-37.6c0.8-2,1-4.9,3.4-5.3 c3-0.6,4.2,2.3,5.5,4.3c13.7,21.8,14.4,45,7.1,69c-1,3.4-1.8,7.6-4.1,9.9c-6.3,6.5-2.7,11.4,0.9,17.1c9,14.3,17.6,28.8,27.3,44.8 c-3.8-28.5-1.2-54,13.3-78.2c3.4,2.2,4.4,5.4,5.5,8.4c9.8,28.2,7.5,54.6-11.6,78.5c-1.6,2-2.1,3.4-1.2,5.8 c7.4,19,14.6,38.1,22.7,59.4c1.2-8.4,2.1-14.5,3.1-20.7c2.4-14.8,7.9-28.3,17.4-40c1.4-1.8,2.9-4.7,5.8-3.7 c2.3,0.8,2.2,3.8,2.6,5.8c5.8,27.7-1.1,52.3-19.1,73.9c-2.8,3.3-4.4,6-3.4,10.3c5.4,22.1,8.9,44.6,12.1,67.4 c3.2-1.9,2.7-4.9,3.2-7.5c3.5-19.7,12.1-36.8,25.8-51.3c1.4-1.5,2.9-4,5.3-3c2,0.8,1.7,3.3,2,5.2c4.1,30.3-6.8,55-28.4,75.6 c-3.8,3.6-6.5,21.7-3.3,25.3c1.7,1.9,4.2,1.2,6.3,1.2c10.6,0.1,21.1,0.2,31.7,0c5.6-0.1,6.4,2.2,4,6.5c-4,7-8.2,13.9-12.4,20.7 c-0.7,1.1-2.1,2.5-3.1,2.5c-10.2-0.9-8.3,6.4-8.3,12.2c0.1,136.3,0.2,272.6,0.2,408.9c0,3.6,2.6,10.3-2.9,10.4 c-5.9,0.2-3.3-6.6-3.3-10.2c-0.2-121.6-0.2-243.1-0.4-364.7c0-13.2,1.5-11.8-11.5-11.7c-8.8,0.1-20.1-3.8-25.6,1.8 c-5.1,5.2-1.4,16.4-1.4,25c0,116.5,0.1,233.1,0.1,349.6c0,3.4,2.2,9.8-2.7,9.8c-5.7,0-3.4-6.6-3.4-10.2 c-0.3-136.8-0.4-273.7-0.6-410.5c0-5.5,0.5-11-7.7-10.3c-1.8,0.2-3-1.3-3.9-2.7c-4.2-6.5-8.7-12.9-12.6-19.7 c-2.4-4.1-2.2-7.6,4.2-7.2c3.3,0.2,6.7,0,10,0c13.1-0.1,12.8-0.1,12.2-13c-0.2-5-2.7-6.4-6.7-7.8c-20.6-7.1-37.3-19.4-49.7-37.5 c-4.6-6.7-7.7-14-9.9-23.2c29.6,5,46.9,24.8,64.5,48.3c-1.7-21.3-4.3-39.8-8.8-58c-0.8-3.4-3.7-2.5-5.9-3.2 c-27.3-8.6-49.4-23.7-61.5-50.9c-1-2.3-3.6-5.1-1.4-7.5c1.9-2,4.7,0,7,0.7c22.5,6.2,39.9,19.9,54.4,37.7c1.8-1,1-2.6,0.7-3.7 c-4.4-17-9.4-33.7-16-49.9c-1.9-4.7-4.2-5.8-9.1-6c-28.8-1.2-51.5-14-68.1-37.5c-1.4-1.9-4-4.1-2.5-6.6c1.4-2.5,4.5-1.2,6.9-0.9 c17.3,1.8,32.7,8.5,46.6,18.7c4.7,3.4,9.3,6.9,16,11.9c-5.5-14.2-12.2-25.1-18.4-36.3c-6.6-12.1-14.2-19.1-30-18.6 c-22.3,0.8-42.2-8.6-58.6-24.1c-2-1.9-5.4-3.6-4.6-6.4c1-3.5,5.2-2.5,8-2.7c18.5-1.2,35.8,3.1,51.8,12.6c3,1.8,5.9,3.7,9.3,5.1 c-7.7-14-18.8-25-29.2-36.7c-5.9-6.5-11.6-9.5-21.4-7.6c-24.2,4.7-47,0.2-66.7-15.7c-2.1-1.7-5.6-3.1-5.1-6c0.7-3.8,5-3,7.7-3.4 c17.4-2.6,34.3-0.8,50.6,6.1c2.9,1.2,5.7,3.4,9.8,2.5c-14-14.6-30.3-25.8-46.2-37.3c-3.2-2.4-5.9,0-8.5,1.1 c-26.8,10.8-52.7,8.8-77.6-5.7c-1.9-1.1-3.8-2.4-5.6-3.7c-0.8-0.6-1.5-1.5-3.2-3.4c25.5-8.2,50.1-7.4,75.1-1.2 c-9-7.9-19.3-13.4-29.5-19.2c-3-1.7-9.6-2.2-7.2-6.6c2.2-4.1,6.9,0.6,9.9,2.3C913.5,422.9,985.7,495,1026.1,596 c19.5,48.8,30.9,99.7,32.8,152.4c0.1,2.8,0.6,5.6,0.3,8.3c-0.8,8.5,4.4,7.9,10.5,8.1c7.6,0.2,6.2-4.4,6-8.7 c-5.2-90.3-28.9-174.7-80.1-250c-41.4-60.9-95.6-107.7-159.8-143.4c-34-18.9-69-35.8-102.3-56c-22.9-13.9-44.2-29.8-62.5-49.5 c-2-2.1-3.2-4.3-6.3-0.9c-32.3,35.8-73.8,58.3-116,79.9c-45.8,23.4-91.2,47.6-130.3,81.7c-83.6,72.9-134.5,164.3-152.9,273.7 c-3.6,21.6-6,43.5-7.1,65.4c-0.2,3.6-1.8,8.3,4.9,7.9c5.3-0.3,11.1,1.7,11.4-7.3c0.8-23.1,3.1-46,7.3-68.8 c23.2-126.5,88.8-224.8,195.8-295.7c12.3-8.1,24.9-15.7,37.9-22.5c1.2-0.6,2.5-1.3,3.7-1.9c2.4-1.1,5.5-3.5,7.2-0.1 c1.5,3-2.2,3.9-4.2,5.1c-9.1,5.4-18.3,10.6-27.3,16c-2.3,1.4-5.2,2.2-6.2,5.9c7.6-1.4,14.8-3,22-4.1c15-2.2,29.9-2.1,44.7,1.6 c2.5,0.6,6.5,0.4,6.8,3.6c0.3,2.9-3.2,4.3-5.5,5.7c-24.7,14.5-50.6,17.7-77.5,6.9c-6.4-2.6-10.5-1.6-15.8,2.3 c-12.5,9.2-25,18.5-36.7,28.8c-2,1.7-3.8,3.5-4.8,6.6c8.5-3,17-6.2,25.6-8.8c12.8-3.9,25.7-3.9,38.6-0.7c2,0.5,4.9,0.4,5.4,3.1 c0.5,2.6-2.2,3.6-3.9,4.9c-22,16.8-46.7,21.1-73.3,15.2c-5.3-1.2-8.5-0.3-12.2,3.6c-10.4,10.9-20.2,22.2-29.6,33.9 c-1.6,2-3.9,3.8-3.8,7.6c9.9-5.1,18.9-11.1,29.2-14.3c11.4-3.6,22.8-4.8,34.5-2.7c1.6,0.3,3.6-0.1,4.5,1.6c1.1,2.3-1.1,3.5-2.3,4.8 c-14.3,14.2-31.6,22.3-51.5,25.2c-7.4,1.1-14.9,2.4-22.4,0.4c-2-0.5-3.9-0.4-5.2,1.5c-11.2,16.1-21.6,32.6-28.1,51.8 c4.3-3.2,8.6-6.5,13-9.6c14.3-10,29.8-17.1,47.4-19c2.7-0.3,6.1-1.5,7.7,1.2c1.5,2.4-1.3,4.6-2.7,6.5c-17.5,23.3-40.4,36.9-70,37.3 c-4.6,0.1-6.3,1.5-7.9,5.2c-7.3,17.7-13,36-17.6,54.9c2.9,0.2,3.5-2.3,4.8-3.8c14.4-15.5,30.3-28.7,51.3-34.2 c2.2-0.6,5-2.9,6.9-0.3c1.6,2.2,0,4.9-1,7.1c-11.7,27-33.2,42.4-60.9,49.9c-4.7,1.3-7,2.7-7.8,7.6c-2.9,17.2-6.6,34.2-7.8,53.8 c6.9-8.4,12.3-15.3,18.1-21.8c10.6-11.9,23.7-20,39.4-23.5c1.8-0.4,4-1.8,5.5-0.2c1.9,1.9,0.2,4.2-0.6,6.2 c-10.7,25.5-29.5,42.6-55.1,52.4c-6.6,2.5-11.5,12.8-8.5,19c1.1,2.4,3.2,1.8,5,1.8c5.5,0.1,11.1,0.3,16.7,0c5.2-0.2,7,2.2,4.8,6.5 c-3.6,7.2-8,14-12.1,20.9c-0.4,0.7-1.2,1.7-1.8,1.7c-14.2-0.4-10,10.6-10,17.6c-0.3,75.4-0.3,150.8-0.3,226.1 c0,58.7,0,117.4,0,176.1c0,0.8,0.2,1.7,0,2.5c-0.9,3.1,2.1,8.7-3.2,8.7c-5.1,0-3.2-5.6-3.2-8.8c0-121.6,0-243.1,0.2-364.6 c0-12,0.2-12.1-11.9-12.1c-6.7,0-13.4,0.4-20-0.1c-5.7-0.4-7.1,2.1-7.1,7.3c0.1,27,0,54,0,80.9c-0.1,96.8-0.1,193.6-0.2,290.4 c0,1.7,0,3.3-0.1,5c-0.1,1.6-0.9,2.6-2.6,2.7c-1.6,0-2.7-0.9-2.9-2.4c-0.4-2.5-0.6-5-0.6-7.4c0.1-124.3,0.3-248.7,0.4-373 c0-13.9-0.2-27.8-0.2-41.7c0-3.7-0.4-6.8-5.3-6.4c-2.8,0.2-4.6-1.2-6.1-3.5c-4-6.3-8.4-12.5-12.4-18.8c-3.1-4.8-2.7-7.6,4.1-7.5 c10.6,0.3,21.1-0.2,31.7,0.1c5.2,0.2,6.8-2,7.1-6.7c0.7-8.7,0.2-15.7-7.1-23c-17.3-17.3-26.7-38.7-25.9-63.8c0-1.1,0-2.2,0.1-3.3 c0.6-3.5-0.1-8.5,3.1-9.7c3.6-1.4,5.9,3.2,8.1,5.8c11.3,12.8,17.8,28,21.5,44.5c0.8,3.4,1.5,6.8,2.9,10.2 c3.6-23.2,7.9-46,13.4-68.7c1-3.9-1.8-5.5-3.6-7.8c-17.4-21.2-24.4-45.2-19.2-72.3c0.6-2.8,0.1-7,3.7-7.5c3.3-0.5,5,3.2,6.6,5.6 c10.9,15.7,15.8,33.5,17.6,52.3c0.1,1.6,0.4,3.2,1.9,5c3.3-9.6,6.7-19.2,9.9-28.8c3.3-9.8,9.3-18.8,11.3-28.5 c2-10-9.3-16.4-12.3-25.8c-6.6-20.7-7.9-40.8,1.2-61c1-2.1,1.4-5.5,4.4-5.2c2.2,0.2,2.9,3.1,3.9,5c9.6,19.8,13.2,40.6,10.3,62.4 c-0.3,2.4-0.6,4.9,0.2,7.7c7.2-12.2,13.8-24.8,21.8-36.5c6.7-9.8,9.7-17.6,3.9-30.2c-10.5-22.5-10.5-46.4,2.3-69 c1.7-3,2.8-8,6.6-7.7c4.1,0.3,3.9,5.4,4.9,8.7c6,20,5.7,40,0.6,60.1c-0.8,3-1.4,5.9-2.1,8.9c-0.1,0.5,0.3,1,0.9,3.1 c5.6-6.6,10.7-12.6,15.8-18.6c6.7-7.8,14.8-14.8,19.7-23.6c5.4-9.6-3.7-18.8-4.8-28.6c-2.4-21.4,0.6-41,13.6-58.5 c1.6-2.1,2.9-5.5,6.2-4.6c2.6,0.7,2.5,4.1,3.2,6.4c5.7,20.3,3.5,40.2-3.4,59.8c-1.6,4.6-4.4,8.9-4.2,15.2 c15.5-14.1,30.3-27.5,45-41C433.5,394.3,433.7,394,434,393.7z M257.9,770.7c0,0.1,0,0.2,0,0.3c-11.9,0-23.8-0.1-35.7,0.1 c-2,0-5.7-1.5-4.5,3.3c2.1,8.2,10.1,14.2,18.8,14.2c13.6-0.1,27.2-0.7,40.7,0.1c9.3,0.5,15.4-2.4,19.1-10.8c0.9-2,3.5-3.5,2.4-5.8 c-1.1-2.4-4-1.3-6-1.3C281.2,770.6,269.5,770.7,257.9,770.7z M1075.7,770.8c0,0.1,0,0.2,0,0.3c-11.9,0-23.8-0.1-35.8,0.1 c-1.7,0-5-1.2-4.7,2.7c0.4,5,10.2,14,15.4,14.1c15.5,0.3,31.1,0.1,46.6,0.7c8.1,0.3,12.6-2.9,16.2-9.9c3-5.9,3.3-8.3-4.4-8 C1097.9,771.1,1086.8,770.8,1075.7,770.8z M257.3,813.2c0,0,0-0.1,0-0.2c5,0,10,0.1,14.9,0c8.1-0.1,4.8-6.5,5.3-10.5 c0.5-3.9,0.6-7.9-5.5-7.7c-8,0.2-16.1,0.5-24.1-0.1c-8-0.7-10.6,2-10.1,10.2c0.4,6.2,1.8,9.3,8.6,8.4 C250.1,812.8,253.7,813.2,257.3,813.2z M1076.7,794.9C1076.7,794.8,1076.7,794.8,1076.7,794.9c-4.7-0.1-9.4-0.1-14.1-0.1 c-9.4,0-5.1,7.2-5.9,11.5c-0.9,4.5,0.4,7.3,6.1,6.9c7.4-0.5,15-0.8,22.4-0.1c8,0.8,10.6-1.4,10.2-9.7c-0.3-6.7-1.6-9.8-8.7-8.7 C1083.4,795.3,1080,794.9,1076.7,794.9z M301.4,660.1c20.6-3.7,43.9-23,48.8-40.4C328.6,627,313.5,640.8,301.4,660.1z M1031.9,661.4c-11.5-22.2-28.2-34.1-49.3-40.4C993,640.6,1008.9,653.5,1031.9,661.4z M888.1,321.5c-3.6,20.6,0.1,39.6,11.9,58.9 C905.3,357.5,902.7,338.2,888.1,321.5z M1085.6,727.6c15.8-11.8,27.4-41.4,22.8-58.7C1092.4,685.5,1088.9,706.1,1085.6,727.6z M337.8,692.1c-19.2,4.7-43.1,27.7-45.4,42.9C312.7,726.6,327.1,712.5,337.8,692.1z M997.1,693.2c8.7,20.9,24.8,33.8,45.3,41.8 C1031.8,716.2,1018.7,700.1,997.1,693.2z M786.6,397.2c8.5,12.3,42,15.9,60.7,6.2C827.2,395.6,807.3,393.4,786.6,397.2z M948.7,552.2c14.7,18.6,32.1,28.7,54.5,31.2C994.7,569.5,969.1,554.6,948.7,552.2z M386.1,551.4c-23.8,4.6-41.6,14.5-55.7,31.2 C352.6,580.2,370.5,570.2,386.1,551.4z M999.5,478.8c8.6-19,8.1-38-0.2-56.9c-0.5-1.1-1.2-2.8-3-2.1c-1.5,0.6-1.5,2.2-1.7,3.5 C990.9,442.2,992.1,460.7,999.5,478.8z M549.8,397.2c-22.3-3.2-42.9-1.1-63.4,6.6C503.7,413,535.5,409.9,549.8,397.2z M390.3,364.3 c-12.6,20.4-14.4,39.8-7.8,60.3C392,406.2,395.2,387,390.3,364.3z M944.1,365.1c-5.9,16.8-1.8,47.2,7.9,60.4 C957.7,404.1,956.6,384.7,944.1,365.1z M1038.5,547.2c12.2-13.7,15.4-44,6.1-59.3C1035.7,507.2,1034.2,526.8,1038.5,547.2z M247.1,727c-3-20.6-5.6-41.2-22.4-58.3C223.9,692.8,232.2,711.2,247.1,727z M337.2,420.2c-10.8,12.4-11.5,47.1-1.5,57.9 C342.6,460.4,343.1,441.2,337.2,420.2z M257.9,833c0-0.1,0-0.1,0-0.2c3.9,0,7.8-0.2,11.6,0c4.6,0.2,7.7-0.2,7.8-6.4 c0-6.4-3-7.2-8.2-7.1c-7.8,0.2-15.5,0.1-23.3-0.2c-4.9-0.2-7.7,0.6-7.6,6.6c0,6.1,2.6,7.7,8,7.2C250.2,832.7,254.1,833,257.9,833z M295.2,546.8c2.8-19.5,3.9-38.9-6.7-58.7C281.8,510,283.9,529,295.2,546.8z M1083.1,574.3c-12.1,16.2-14.8,34.9-14.2,54.5 C1082.1,613,1087.1,595,1083.1,574.3z M907.9,494c16.6,15.7,35.5,19.2,55.8,21.5C953.3,502.5,929.3,493,907.9,494z M369.2,514.3 c21.1,1.6,49.4-9.5,54.8-21.1C403.9,494.4,385.9,499.8,369.2,514.3z M1075.3,832.7c0,0,0-0.1,0-0.2c4.7,0,9.4-0.2,14.1,0.1 c4.5,0.3,5.7-1.9,5.7-6s-0.3-7-5.6-6.8c-9.1,0.3-18.3,0.3-27.4,0.1c-5.2-0.1-5.7,2.7-5.7,6.8c0,4,0.9,6.3,5.5,6.1 C1066.5,832.5,1070.9,832.7,1075.3,832.7z M910.6,454.6c-16.8-10.4-34.8-14.9-54.4-12C872.2,455.9,890.7,458.1,910.6,454.6z M265.3,631c0.6-21.2-2-39.7-14.2-55.7C247.7,595.3,251.1,613.6,265.3,631z M423.3,454.2c17.4,5.8,45.6-0.5,55.5-12.5 C458.7,439.9,440.7,444,423.3,454.2z"></path> <path class="st0" d="M670,175.5c0,3.9,0.5,7.9-0.1,11.7c-2.4,15.6,4.2,27.9,13.9,39.2c10.3,12.1,21.3,23.4,33.3,33.8 c2,1.7,6.2,3.7,2.6,7.2c-2.9,2.9-5-0.4-7-2.1c-15.6-13.4-30.1-28-41.7-45.1c-3.1-4.6-5-5.7-8.6-0.2c-11.2,17.4-26,31.8-41.3,45.5 c-2,1.8-3.9,5.8-7.3,1.7c-3.2-3.8,0.5-5.3,2.7-7.2c16.7-14.4,31.8-30.2,43.6-49c2.3-3.7,3.6-7.3,3.6-11.7 c-0.2-17.2-0.5-34.5-0.3-51.7c0-5.1-1.6-6.9-6.7-6.7c-7.8,0.3-15.5,0.1-23.3,0.1c-2.6,0-5.3-0.1-5.1-3.8c0.2-3.5,3.1-2.6,5-2.7 c8-0.2,16.1-0.3,24.2-0.1c4.3,0.1,6-1.4,5.8-5.8c-0.2-8.1,0-16.1,0.1-24.2c0-2.2-0.3-4.7,3-4.9c3.8-0.3,3.8,2.4,3.9,5 c0.2,7.8,0.6,15.6,0.4,23.3c-0.1,5.2,1.9,6.8,6.9,6.6c7.8-0.3,15.5-0.2,23.3-0.2c2.2,0,4.7-0.2,4.5,3.2c-0.2,2.9-2,3.5-4.6,3.5 c-8-0.1-16.1,0.1-24.2-0.1c-4.6-0.1-6.5,1.6-6.4,6.3c0.2,9.4,0,18.9,0,28.4C670.2,175.5,670.1,175.5,670,175.5z"></path> <path class="st0" d="M254.1,1006c0-46.2-0.1-92.3,0.1-138.5c0-3.3-2.2-9.3,3.1-9.2c4.5,0,2.7,5.8,2.7,9 c0.4,92.6,0.6,185.2,0.9,277.8c0,1.7,0,3.3-0.1,5c0,2.2-1,3.8-3.4,3.8c-2.1-0.1-2.6-1.8-2.6-3.6c-0.1-1.9-0.1-3.9-0.1-5.8 c0-46.2,0-92.3,0-138.5C254.5,1006,254.3,1006,254.1,1006z"></path> <path class="st0" d="M1079.3,1005.6c0,46.2,0,92.3,0,138.5c0,1.1,0.1,2.2,0,3.3c-0.3,2.6,0.6,6.5-3.4,6.4c-4.2-0.2-2.7-4.3-2.7-6.7 c-0.2-94-0.2-188-0.3-282c0-1.4,0-2.8,0.2-4.2c0.2-1.7,0.3-3.4,2.7-3.4c2.6-0.1,3.3,1.5,3.4,3.7s0.1,4.5,0.1,6.7 C1079.3,913.8,1079.3,959.7,1079.3,1005.6L1079.3,1005.6z"></path> <path class="st0" d="M561.7,1064.1c-1.1-35.9-3.4-73.6-6.2-111.3c-0.3-3.6-3.3-10.1,2.1-10.5c5.2-0.3,3.3,6.5,3.7,10.2 c6.2,61.8,7.8,123.8,6.8,185.8c-0.1,7.2-0.8,14.4-1.5,21.6c-0.2,2.6-0.1,6.4-4.3,5.7c-3.3-0.6-2.6-3.8-2.3-6.2 C563.4,1128.3,561.5,1097.2,561.7,1064.1z"></path> <path class="st0" d="M434.6,1187.4c3.2-14.5,6.8-30.5,10.3-46.5c8.9-40.3,18.7-80.5,30.1-120.2c1-3.5,0.8-10.4,6.3-8.6 c4.5,1.5,0.6,6.9-0.3,10.3c-14.4,53.6-27.3,107.5-38.4,161.8c-0.4,1.9-0.8,3.8-1.3,5.7c-0.6,2.2-1.2,4.6-4.1,4.2 C434.2,1193.7,434.4,1191.2,434.6,1187.4z"></path> <path class="st0" d="M804.9,1054.8c-0.2-3.3-0.5-6.6-0.6-10c-0.1-1.9-0.2-4.3,2.3-4.7c3-0.5,3.5,2,3.9,4.3c0.2,1.1,0.3,2.2,0.4,3.3 c4.3,56.5,11.5,112.6,22.3,168.2c0.3,1.4,0.6,2.7,0.8,4.1c0.3,2.1,0.1,3.9-2.5,4.5c-2.6,0.5-3.6-1.3-4-3.2c-1.2-6-2.2-12-3.3-18 C815.3,1154.1,808,1104.8,804.9,1054.8z"></path> <path class="st0" d="M712,330.4c26.8,0.6,51,9.4,73.6,23.5c2,1.2,5.3,2.3,4.8,5c-0.4,2.4-3.6,3.3-5.9,4 c-20.7,6.5-40.5,4.3-59.4-6.2c-8.1-4.5-15.4-10-21.3-17.1c-1.7-2.1-4.5-4.3-3.5-7.1c1.2-3.1,4.8-1.8,7.5-2 C709.2,330.3,710.7,330.4,712,330.4z M711.6,337c14.2,18.5,45.9,28.3,65.5,20.3C757.1,343.9,735.7,338.1,711.6,337z"></path> <path class="st0" d="M574.5,366.9c-11.3-0.4-20.3-1.5-28.9-5.2c-3.9-1.7-5.1-3.4-0.8-6c25.1-14.9,51.3-26.4,81.5-25.2 c2.7,0.1,6.1-0.5,7.2,2.7c0.9,2.6-1.7,4.5-3.3,6.3C614.7,356.6,595.6,366.1,574.5,366.9z M622.1,336.6 c-24.2,0.7-45.5,8.1-66.2,20.9C578.2,365.2,611.3,354.7,622.1,336.6z"></path> <path class="st0" d="M690.9,1000.3c0,25.9,0,51.7,0,77.6c0,2.2-0.1,4.4-0.4,6.6c-0.2,1.4-0.9,2.7-2.6,2.7c-2.2,0.1-2.8-1.4-2.9-3.2 c-0.1-1.7-0.1-3.3-0.1-5c-0.1-53.1-0.2-106.2-0.3-159.3c0-1.7,0-3.3,0.1-5c0-1.6,0.7-2.7,2.4-2.7c1.6,0,2.7,0.8,2.9,2.4 c0.3,3,0.7,6.1,0.7,9.1c0.1,25.6,0,51.2,0,76.7C690.8,1000.3,690.8,1000.3,690.9,1000.3z"></path> <path class="st0" d="M538.7,310.5c2.8-24.6,14.2-45.7,38.2-58.8c3-1.6,6.7-4.5,9.9-1.6c2.6,2.2,0.2,5.9-0.6,8.6 c-6.8,24.6-21,44.5-39.4,61.6c-1.5,1.4-3,3.6-5.7,2.3C539.5,321.9,538.5,317.1,538.7,310.5z M579.4,258 c-19.9,10.7-35.5,36.2-31.9,51.9C561.8,294.9,574.2,279.5,579.4,258z"></path> <path class="st0" d="M434,393.7c-0.3,0.3-0.5,0.6-0.7,0.9c-2.7,0.5-3.3-1.5-4-3.3c-7.6-20.9-8.5-57.2,14.7-79.1 c1.4-1.3,2.5-3.6,4.6-3.2c2.8,0.5,2.3,3.4,2.7,5.5C456.8,343.3,449.1,369.3,434,393.7z M433.8,380.3c10.5-19.8,15.6-38.4,11.8-60.4 C431,338.5,428.5,357.6,433.8,380.3z"></path> <path class="st0" d="M479.1,338.2c1-24.6,9.8-43.7,26.6-58.9c2.1-1.9,4.6-5,7.8-3.2c2.5,1.5,1.8,5,1.8,7.7 c-0.3,25.3-9,47.6-24.5,67.4c-1.7,2.1-3.5,5.2-6.4,4.8c-3.5-0.5-3.9-4.4-4.4-7.2C479.3,344.7,479.3,340.5,479.1,338.2z M486.4,343 c16.3-17,20.9-36,21.9-56.5C492.4,301.1,485.6,319.3,486.4,343z"></path> <path class="st0" d="M819.6,287.3c0.4-3-2.4-9.6,1.8-11.5c4.9-2.3,8.6,3.8,11.9,7.2c18.2,18.5,23.2,41,19.5,66 c-0.4,2.7-0.9,6.2-3.7,6.9c-2.6,0.7-4.2-2.4-5.6-4.4C830.1,332.8,819.7,312.8,819.6,287.3z M845.5,341.2 c5.7-15.8-3.8-46.3-19.6-55.3C825.4,306.8,832.4,324.6,845.5,341.2z"></path> <path class="st0" d="M795.4,313c-0.1,1.9-0.1,3.9-0.3,5.8c-0.3,4.2-2.3,5.8-5.8,2.8c-21.3-18-37.4-39.5-42.4-67.7 c-1.5-8.8,4.9-4.8,7.7-3.5c17.8,8.7,29.7,22.8,36.4,41.4C793.5,298.6,795.2,305.6,795.4,313z M754.9,257.6 c2.8,18.9,20.2,45.8,33.6,52.2C785.5,287.2,775.1,270.2,754.9,257.6z"></path> <path class="st0" d="M668.5,999.7c0,26.4,0,52.8,0,79.2c0,1.4,0,2.8-0.1,4.2c0,1.8-0.5,3.4-2.6,3.6s-2.8-1.3-3-3.2 c-0.1-1.4-0.1-2.8-0.1-4.2c-0.2-51.9-0.5-103.9-0.5-155.9c0-3.8-1.9-10.5,3.1-10.5c5.8,0,2.6,6.6,2.7,10 c0.3,25.6,0.2,51.1,0.2,76.7C668.3,999.7,668.4,999.7,668.5,999.7z"></path> <path class="st0" d="M751.8,724.7c0.4-6.4,0.7-12.7,1.1-19.1c0.2-2.1-0.3-5,3.1-4.8c2.7,0.2,2.3,2.8,2.3,4.6 c-0.2,11.6-0.5,23.2-1,34.9c-0.1,2.4-0.5,5.6-4.1,4.9c-3.1-0.6-1.8-3.5-1.8-5.5c-0.1-5,0-10,0-14.9 C751.5,724.7,751.6,724.7,751.8,724.7z"></path> <path class="st0" d="M599.3,724.6c0.3,5.2,0.7,10.5,0.9,15.7c0.1,1.8,1,4.3-1.7,4.8c-2.2,0.3-3.2-1.5-3.5-3.7 c-1.5-11.8-2.3-23.7-2.1-35.6c0-1.9,0.1-4.4,2.6-4.5c2.7-0.2,2.5,2.4,2.7,4.3c0.5,6.3,0.9,12.7,1.4,19 C599.4,724.5,599.3,724.6,599.3,724.6z"></path></g></svg>