<svg xmlns="http://www.w3.org/2000/svg" xmlns:xlink="http://www.w3.org/1999/xlink" id="Capa_1" x="0px" y="0px" viewBox="0 0 1333 1333" style="enable-background:new 0 0 1333 1333;" xml:space="preserve"><style type="text/css"> .st0{fill:#4A4A4A;}</style><g> <g> <path class="st0" d="M875.85,856.7c1.3,6.4,4.3,8.9,11.1,6.1c6.2-2.5,12.7-4.5,19.9-3.3c-5.6,2-11.3,3.9-16.8,6.1 c-2.2,0.9-6.6,0.6-4.3,5c1.5,2.9,3.4,5.8,8,4c6.2-2.4,12.6-4.1,19.2-5.3c-4.1,4.4-10.1,4.7-15,7.2c-1.8,0.9-5.9,0-4.2,4.2 c1.3,3.1,2.5,6.3,7.4,4.6c5.3-1.8,10.7-4.2,18.3-4.3c-4.6,4.9-9.7,4.7-13.5,6.8c-1.9,1-7.4-0.1-4.2,4.3c2,2.8,2.1,9.5,8.8,6.8 c4.1-1.7,8.1-4.2,14-4.5c-2.8,4.4-6.8,4.4-9.7,6c-2.7,1.5-7.7,1.3-4.4,6.6c2,3.2,2,9.4,8.8,5.8c2.2-1.2,4.9-2.8,7.7-0.8 c-0.4,6.2-12.3-1.1-9.8,9c2.3,9.1,8.6,5.6,15.2,5.5c-13.1,3.1-7.6,9.4-4.9,16.2c15.2,37.9,26.8,76.9,37.2,116.4 c3.5,13.1,6.5,26.4,9,39.7c1.1,5.9,1.6,10.7,10.5,9.9c-9.8,1-7.9,6.7-7.5,12.2c0.5,7.4,6.2,3.7,10.4,5.1c-4,3.5-12.5,3.6-8.9,11.2 c3.3,7,9.2-1.8,14.1,1.8c-2.8,3.2-6.9,3.2-10.4,4.2s-4.3,3.4-3.6,6.4c1,4,3.8,1.6,5.9,1.3c4.4-0.7,8.4-3.3,14.4-2 c-5.3,3.9-10.6,4.2-15.5,5.6c-3.7,1.1-6.7,2.5-5.7,6.8c1.3,5.7,5,1.4,7.3,1c6.1-1.1,12-3.6,18.4-2.9c-6.5,4.4-14.1,5.4-21.3,7.3 c-4.2,1.1-7.4,3.4-6,7.6c1.6,4.7,5.2,0.5,7.7,0c7.8-1.5,15.4-3.5,24.7-5.7c-11.2,10-28.7,4.2-37.2,20c15.4-1.8,28.1-6.2,41.4-8.3 c-9.4,5.5-20,7.2-30.3,9.9c-3,0.8-6,1.3-9,2.2c-3.5,1.1-5,4.3-4.4,7.3c0.8,4.5,4.5,1.7,6.7,1.3c21.9-4.2,43.5-9.2,64.3-17.3 c1.8-0.7,3.8-2.4,6.1-0.8c0.5,2.7-1.9,2.9-3.3,3.6c-22.2,11.3-45.7,18.6-70.4,22.1c-3,0.4-6.2,0.5-9.2-0.2 c-3.3-0.7-5.6-2.7-3.8-6.7c20-44.4,11.5-89.1,0.4-133.5c-11.3-45.4-25.3-90.2-44.1-133.4c-17.5-40.1-43.2-74.3-77.5-101.4 c-54.3-42.8-90.6-98-115.8-161.5c-27-68-41.3-139-51.8-210.9c-3.1-21.4-5.5-42.9-8.4-64.3c-3.2-24.2-1.1-28.9,20.6-40.7 c36.3-19.8,75.6-30.2,116-37.1c17.7-3,35.4-5.2,53.5-4c10.4,0.6,17.4,4,22.4,14.3c43.4,89.2,80.2,180.7,98.5,278.7 c11.5,61.5,9,122.3-10.8,182.1c-11.5,34.7-20.5,70.1-17.4,107.2c2.4,29,8.5,57.4,16.6,85.4c12.7,43.9,25.9,87.7,48,128.1 c9.1,16.6,19.8,32,34.2,44.7c3.5,3.1,6.5,3.5,11.4,2.4c26.7-5.9,53.7-8.4,81-3.7c3,0.5,6,1.6,8.8,2.8c16.6,6.8,19.7,20.3,7.8,33.8 c-12.8,14.4-29.1,24-46.2,32c-55.8,26.1-114,44-175.9,48.2c-11.8,0.8-23.5,0.6-35-2.6c-17.6-4.8-23.2-20-11.7-34.2 c17-21,40.6-32.2,66-40.2c-4.6,2.6-9.2,5.1-13.8,7.6c-13.3,7.3-26.6,14.6-38,24.6c-2.3,2-4.7,4.1-6.6,6.5 c-4.2,5.3-9,10.9-6.5,18.3c2.7,8,10.4,9.1,17.4,10.2c25.2,3.9,49.9-0.5,74.5-5.3c52.4-10.3,102.9-26,149.2-53.6 c7.2-4.3,14.2-8.8,20-14.9c12-12.4,9.4-23.2-7.4-27.8c-19.7-5.4-39.9-3.9-59.9-1.6c-7.9,0.9-15.9,1.4-24.2,4.6 c2.1,4.2,6.4,5.1,9.1,7.7c1.7,1.6,6.1,2.4,3.6,5.9c-2.3,3.3-5,0.3-7.3-0.8c-16.2-8.5-29.3-20.5-40-35.2 c-21.6-29.9-35.6-63.5-47.4-98.1c-14.4-42.1-27.5-84.5-33.6-128.8c-4.5-33-1.7-65.3,8-97.1c0.6-2,2.2-3.8,1-6.7 c-23.3,29.2-53.3,39.1-89.8,32c6.5,4.8,10.4,12.4,18.2,15.6L875.85,856.7z M683.05,499c0.3,2.4,0.5,3.9,0.8,5.4 c11,57.1,25.2,113.3,47,167.4c21.2,52.5,50.2,99.9,92.8,137.9c10.6,9.5,22.4,17.9,36.3,21.6c40.8,10.6,80.1-10,95.8-50 c9.1-23.2,13.2-47.6,14.9-72.4c3.4-50.1-2.7-99.3-15.7-147.7c-5.8-21.8-11-43.7-18.6-65c-1.5-4.1-2.1-6.6-7-2.3 c-6.8,5.9-15.8,8.1-24.5,10.3c-21.1,5.2-42.7,7.4-64.2,8.4C787.85,514.9,735.35,514.9,683.05,499z M868.25,330.1 c-13.3,12.9-29.2,20.3-45.8,26.4c-49,17.8-98.7,31.7-151.5,30c-3.7-0.1-4.3,1-3.9,4.1c4.1,29.2,8.2,58.5,12.5,89.1 c10.8-8.8,22.6-11,34.5-12.7c11.6-1.7,23.2-3.7,34.9-4.4c61.8-3.7,123.5-5,182.1,18.8C924.85,457.1,883.05,355.9,868.25,330.1z M797.75,505.9c33.1-0.5,63.2-1.9,93.1-7.2c9.7-1.7,19.3-3.9,28.4-7.9c6-2.7,5.6-5.5,0.1-8.5c-9.4-5-19.5-7.6-29.9-9.5 c-45.6-8.2-91.5-8.2-137.5-5.3c-19.1,1.2-38.2,3.3-56.5,8.9c-5.6,1.7-12.4,4.6-12.3,10.9c0.1,5.4,7.5,5,11.9,6.8 c1.4,0.6,3,0.8,4.4,1.3C732.55,504.6,766.65,504.6,797.75,505.9z M687.85,382.1c33.3-1.3,65.3-9.3,97.1-18.3 c23.5-6.6,46.8-13.9,67.5-27.5c4.5-3,12.1-6,10.7-11.4c-1.7-6.3-10-4.6-15.5-4.4c-57.6,2.3-112.3,16.1-163.9,41.8 c-4.7,2.3-8.8,5.6-13,8.8c-2.4,1.8-5.3,4-3.9,7.6c1.2,2.9,4.3,3.3,7.1,3.4C678.55,382.2,683.25,382.1,687.85,382.1z"></path> <path class="st0" d="M324.55,1117.4c-4.1,1.9-7.1-0.6-10.4-0.8c-5-0.3-6.2,3.9-7.3,7.1c-1.2,3.6,3,3,4.9,3.7 c3.1,1.1,6.5,1.3,10.6,4.6c-5.7,1.5-9.8-0.9-13.7-1.9c-3.6-0.8-5.6,0-7.8,2.9c-3.9,5-4.8,8.3,3.1,9.4c4.1,0.6,8.2,2.1,12,4 c-5.6,1.9-10.5-0.6-15.3-2.3c-4-1.4-7.5-2.1-9,2.5c-1.7,5.1,3.6,3.7,5.8,4.9c4.6,2.7,10.7,2.7,16.1,7.6 c-7.6-0.3-13.6-2.2-18.8-5.1c-6.9-3.8-10.7-1.4-14.1,4.9c8.7,5.4,19.1,6.3,28.1,11.2c-7.7,0.4-15.3-1.1-22-4.5 c-6.9-3.5-12.1-4.3-17.6,2c-2.1,2.4-5.6,3.7-9.5,6.2c25.1,15.6,52.1,23.3,79.7,29.7c-10.8,3.3-20.8,0.8-30.9-1.6 c-20-4.8-38.5-13.1-55.4-25c-3.4-2.4-6.4-4.8-0.7-8c25.6-13.9,42.6-35.9,54.6-61.3c29.6-62.9,51.4-128.4,61.6-197.3 c5.4-36.1-1.1-71.4-10.5-106.3c-6.5-23.8-14.4-47.3-17.8-71.9c-7.2-50.9-3.5-101.2,8.4-151c21.2-88.3,51.4-173.4,92.7-254.4 c6.4-12.6,15-16.9,27.8-16.5c22.3,0.7,44.3,4,66.1,8.8c31.2,6.8,61.8,15.2,90.7,29c0.6,0.3,1.1,0.5,1.7,0.8 c26.9,13.2,29.1,16.9,26.1,46.5c-7.8,77.3-20.7,153.7-42.9,228.2c-16.9,56.4-41.8,108.9-78.7,155.3c-14.9,18.8-32.2,35.1-51,49.8 c-40,31.3-71.8,68.5-88.5,117.5c-7.5,21.9-15.7,43.6-21.9,65.9c-9.8,35.4-20.6,70.6-24.1,107.4c-2.5,26.1,0.6,51.1,10.8,75.3 c1.6,3.8,4.5,7.4,2.5,12.2c-4.2-0.8-5-4.6-6.5-7.4c-13.9-24.7-17.6-51.5-14.1-79c9.1-72.2,30.1-141.2,59.4-207.7 c12.4-28.2,32.1-51.2,55.7-70.9c2.3-2,4.6-4,8.1-6.9c-36.6,9.4-68.3,4.5-93.6-24.3c-0.2,9.8,2.6,16,7.9,18.1 c6.5,2.6,13,5.4,21.5,8.9c-6.1,0.9-9.3-1.4-12.8-2.6c-3.7-1.2-7.4-2.7-11.3-4.1c-2.3,9.2,4.2,10,9.7,11.7c5.2,1.7,10.3,3.5,15.3,6 c-8.2,0.5-15.5-2.5-22.9-5.3c-0.2,4.1-0.2,4.1,26.5,17.3c-4.1-0.9-8.3-1.6-12.3-2.7c-4.1-1.1-8.2-2.6-12.5-4 c-2.5,7.8,0.2,11.5,8,12.9c5.6,1,11.5,1.6,17.7,5.9c-7.4,0-12.9-1.8-18.6-2.8c-2.3-0.4-6.4-4.6-7.2,1.2c-0.5,3.8-2.1,8.9,3.9,10.9 c5.1,1.7,10.5,2.6,16.1,6.4c-5.7,0.9-9.8-0.9-13.6-2.5c-5.7-2.3-6.2,0.3-6.4,4.8c-0.1,4.7,2,9.2-0.5,14.3 c-3.8,7.6,0.9,12.2,7.9,14.8c-3,4.1-9.5-4.4-10.3,3.9c-0.4,4-5.1,9.4,4.6,11.4c-7.7-0.8-7.8,3.9-8.8,8.1 c-13.5,56.2-30.2,111.4-54.8,164c-2.3,4.8-1.2,6.7,3.7,7.3C321.05,1114.7,323.05,1114.9,324.55,1117.4z M631.15,502 c-10.7,4.4-19.8,8-29.6,9.9c-44.3,8.4-89,9.9-133.8,6.7c-30.1-2.1-60.5-4.9-86.1-24.6c-0.7,1.7-1.2,2.8-1.6,3.9 c-9.2,28.8-17.9,57.7-24.4,87.2c-12.3,56.2-15.5,112.5-2.7,169c4.8,21.3,11.6,41.9,28.8,56.8c33.1,28.7,75.7,27.2,110.9-3.7 c20.5-18,38.1-38.6,53.1-61.5C594.05,672,613.65,588.3,631.15,502z M634.25,484.7c6.1-32.8,11.3-65.4,14.6-98.2 c0.5-5.5-0.9-6.1-6-5.1c-11.2,2.2-22.7,2.8-34.1,1.7c-37.7-3.7-74.4-11.7-109.9-24.8c-17.7-6.5-35.1-13.9-48.7-27.7 c-4.8-4.8-4.9,0.6-5.8,2.6c-19.7,40.9-37.8,82.5-52.3,125.5c-1.8,5.3-4.6,10.4-4.7,17.3c6.1-2.9,11.5-4,16.9-5.2 c24.9-5.3,50.1-7.4,75.4-8.1C531.95,461.4,584.05,461.9,634.25,484.7z M629.45,492.2c-16.7-11.6-35.2-14.4-53.3-17.5 c-46.3-8-92.9-6-139.5-1.5c-14.4,1.4-28.8,3.3-42.8,7.7c-2.6,0.8-5.8,1.7-6.4,4.7c-0.6,3.4,2.9,4.3,5,5.8 c9.5,6.6,20.2,10.6,31.5,12.9c61.1,12.3,122.1,11.1,182.9-1.8C614.75,500.9,622.45,498.4,629.45,492.2z M616.65,379 c7.5-0.4,13.3-0.7,19.2-1.1c2.1-0.2,4.3-0.6,6.4-1.2c7.1-2,8-4.8,2.5-10.1c-5.1-5-11.5-8.3-17.9-11.4 c-41.1-19.4-84.5-30.5-129.4-36.4c-12.5-1.6-25.1-3.1-37.8-1.5c-2.7,0.4-5.9,0.5-7.1,3.5c-1.4,3.5,1.3,5.7,3.5,7.9 c5.4,5.2,11.6,9.2,18.2,12.5C519.65,363.7,568.05,374.8,616.65,379z"></path> <path class="st0" d="M364.95,1188.7c25.8,9.6,50.9,20.4,68.3,43.1c10.5,13.8,5.4,27.6-11.5,33.2c-17.5,5.7-35.6,5-53.3,3.2 c-64.9-6.9-126.6-24.1-182.6-59c-9.5-5.9-18.4-12.6-24.9-21.9c-8.6-12.5-5.8-22.7,7.6-29.7c9.6-5,20.1-5.8,30.6-6.4 c20-1.2,39.9,0.4,60.8,5.2c-4.1,3.7-7.3,2.1-10.3,1.7c-20-2.5-40-3.9-60.1-1.1c-5.9,0.8-11.6,2.1-16.9,4.6 c-10.7,5-12.6,13.2-5.2,22.4c4.1,5.1,9.1,9.2,14.6,12.8c42.6,28.3,89.9,44.8,139.5,55.3c28.1,5.9,56.5,10.7,85.5,7.7 c0.9-0.1,1.9-0.1,2.8-0.2c8.6-1.8,19.3-1,22.5-11.4c3.1-10.1-4.8-16.7-11.2-22.9c-14.1-13.8-31.5-22.6-49.2-30.9 C369.15,1193,365.75,1193,364.95,1188.7z"></path> <path class="st0" d="M622.05,238c-11.6-38.6-34-70.5-59.9-100.9c24.4,12.8,64.2,83.9,71.9,129c-5.8-11.1-11.7-22.2-18.9-32.5 c-16.1-23.2-33.7-45-56.9-61.6c-10.6-7.6-22.1-13.6-35.3-15.5c-6.1-0.9-12-0.2-16,5c-4.1,5.4-2.6,11.3,0.1,16.7 c6,11.8,15.1,21,24.6,29.8c20.4,18.9,43,35.2,64.2,53.1c2.5,2.1,4.9,4.2,7.9,6.8c-1.7,0.3-2.4,0.7-2.7,0.5 c-27.8-20.5-57.1-39.1-81.7-63.7c-7.3-7.2-13.7-15.2-17.5-24.8c-6.6-16.5,2-28.6,19.9-27.6c15.8,0.9,28.8,8.7,41.1,17.7 c22,16.1,38.5,37.3,53.5,59.7C618.35,232.4,620.15,235.2,622.05,238z"></path> <path class="st0" d="M714.25,286.2c15.3-13.5,31.2-26.3,46-40.3c11.3-10.6,22.4-21.4,29.8-35.2c2.1-3.9,5.6-8.6,1.6-12.7 c-3.6-3.8-8.4-0.8-12.1,0.8c-20.7,9.1-35.8,25-49.5,42.3c-8.2,10.4-15.8,21.3-23.7,31.9c-1.6-0.8-0.9-2-0.4-2.9 c14.7-24.5,31.2-47.5,53.9-65.4c8-6.4,16.5-12.1,27.4-12.3c7.9-0.1,11.3,3.9,10.8,11.5c-0.5,7.1-3.9,13.1-7.9,18.5 C770.05,249.9,742.75,268.9,714.25,286.2z"></path> <path class="st0" d="M1175.45,980.1c-4.4,3.1-8.5,6.1-12.8,9.1c-0.3-0.9-0.8-1.5-0.7-1.9c1.1-4.5,8.6-7.6,5.3-11.9 c-2.2-2.9-9-2.3-13.8-5c5.2-0.9,10.3-1.9,15.6-2.9c-0.6-5.5-7-7.7-7.5-13.4c5.6,0.7,8.8,5.7,14.4,7c1-5.4,2-10.6,3.3-17.2 c4.3,5.3,3.2,11,5.2,15.7c5.4-0.6,8.2-5.7,13.7-7.2c-0.7,6-5.1,9.6-7.7,15c5.2,1.6,10.9,0.7,15.7,3.5c-2.7,3.5-6.5,2.5-9.6,2.7 c-6.9,0.4-7.3,2.7-2.9,7.5c2,2.2,3.5,4.8,4.2,8.4c-4.4-2.9-8.7-5.8-13.1-8.8c-3.4,5-1.8,10.7-4.2,16.4 C1176.85,991.8,1178.45,985.6,1175.45,980.1z"></path> <path class="st0" d="M1132.45,639.5c-4.8,3.2-9.1,6.1-13.4,8.9c-0.4-0.3-0.9-0.7-1.3-1c2.8-4,5.7-8,8.9-12.6 c-5.6-1.4-10.5-2.7-16.7-4.2c5.6-3.7,11.1-2.3,15.8-4.5c-1.3-5.3-7.1-7.6-8.4-13.3c5.7,0.5,8.6,6,13.9,6.6 c3.6-4.5,1.1-11,4.8-15.6c0.5,0.3,1.1,0.5,1.3,0.8c2.9,4.5-0.4,12.2,4.5,14.1c3,1.1,8.3-3.7,12.9-6.1c0.1,3.5-2.4,5.2-3.7,7.4 c-1.2,2-3.7,3.4-3.8,6.5c2.7,0.5,5.4,0.9,8,1.7c2.2,0.6,5-0.4,7.2,2.9c-5.2,1.1-10.1,2.2-15.2,3.3c1.1,5.5,6,8.2,8,13.7 c-6-0.9-8.9-6.8-14.9-7.3c-2.6,5.1-0.4,11.5-3.9,16.9C1132.35,652.4,1135.25,646,1132.45,639.5z"></path> <path class="st0" d="M185.55,457.5c1.1-5.1,2.1-10.1,3.4-16.6c4,5.8,2.6,11.6,4.8,16.5c5.7-0.7,8.4-6.8,14-8 c0.1,0.8,0.4,1.4,0.3,1.9c-1.4,4.6-8.8,7.3-6.4,12.1c1.9,3.8,8.7,0.5,13.5,3.1c-4.2,4.4-10.7,2-15.1,5.7c3.1,4,6.3,8.1,10.3,13.3 c-7.1-1-10.2-6.5-16.2-8.3c-1.1,5.7-2.2,11.2-3.5,17.9c-4.3-6-2.5-12.5-5.4-17.7c-5.7,1-8.9,7.4-15.3,7.8 c1.6-5.7,7.2-7.9,9.6-13.6c-5-1.3-9.8-2.6-15.8-4.2c5-3.7,10.6-2.2,15-4.6c-1-4.9-6.5-7.3-7-12.8 C177.25,451.2,179.85,456.9,185.55,457.5z"></path> <path class="st0" d="M384.95,1249c-18.4,1-36.2-2.8-54-6.5c-46.1-9.5-90.8-23.2-131.4-47.8c-6.4-3.9-12.5-8-17.4-13.6 c-6.1-6.9-5.2-10.8,3.3-13.3c7.7-2.2,15.6-3.5,23.8-0.9c-6.7,0.9-13.5,1.7-20.2,2.8c-2.6,0.4-6,0.8-6.8,3.9 c-0.8,3.2,2.1,4.9,4.1,6.7c16.4,14.7,36.1,23.5,56.1,31.7c44.7,18.5,91.5,29.3,139.3,36.4 C382.75,1248.6,383.85,1248.8,384.95,1249z"></path> <path class="st0" d="M966.75,259c6.2-3.9,12.9-5.2,18.3-9.4c9.6-7.4,9.2-15.9-1.3-21.9c-9.7-5.6-20.4-7-31.3-7.1 c-30.8-0.1-58.9,9.2-85.2,24.7c-3.4,2-6.7,4.1-10.4,5.7c12.8-12.5,28.6-20.2,45.1-26.2c23.2-8.4,47-13,71.7-6.6 c0.9,0.2,1.8,0.4,2.7,0.7c13.3,3.9,21.7,12.1,21,20.4c-0.7,9.1-11.5,17.9-24.2,19.7C971.05,259.2,968.85,259,966.75,259z"></path> <path class="st0" d="M778.85,1076.8c5.1,5.8,2,13.3,6.1,16.4c4.6,3.6,10-2.8,15.6-2.4c0,0.6,0.2,1.2,0,1.6 c-2.9,4.6-11.2,6.4-10.2,11.8c0.8,4.5,8.5,6.3,11.1,11.7c-6.2,1.4-12.3-6.5-16.4-2.3c-3.4,3.4-2.9,10.8-4.3,17.2 c-4.4-4.1-4.2-9.2-4.5-13.8c-0.3-5.7-2.6-5.8-6.9-4.1c-4.2,1.6-8.4,3.7-13.2,3.2c0.1-0.6,0-1,0.2-1.1c4-4.1,10.6-7.8,11.3-12.4 c0.6-3.8-7.7-6.9-10.1-12.1c0.7-0.3,1.2-0.7,1.7-0.7c5.3,0.3,10.4,7.2,14.9,3C777.35,1089.8,777.15,1083.2,778.85,1076.8z"></path> <path class="st0" d="M922.55,1220.1c-4.6,3.7-9.5,7.2-13.8,11.3c-4,3.9-11.8,7.1-9.4,13.3c2.3,6,10.4,4,16,4.2 c11.7,0.5,23.5-0.4,35-2.4c48.8-8.5,96.6-20.4,141.7-41.3c6.9-3.2,13.5-6.9,20.5-9.9c-5.9,6.3-13.7,9.8-21.3,13.2 c-53.3,24.2-108.9,39.6-167.4,43.7c-7,0.5-14.2,0.7-21.1-1.6c-8.1-2.7-9.6-7.5-4-13.8C905.25,1229.5,913.05,1223.7,922.55,1220.1z "></path> <path class="st0" d="M134.85,923.8c11.6,6.4,11.6,6.4,15.8-7.8c4.7,3.7,2.2,9.3,4.5,13.8c5-0.5,7.8-5.6,13.3-6.8 c-0.3,5.3-5.2,8-7.1,12.9c4.7,1.1,9,2.2,13.4,3.2c-0.4,0.9-0.5,1.9-0.8,2c-12.6,3.2-12.6,3.2-5.3,15.2c-5.6-0.7-8.3-5.6-13.2-7.1 c-2.7,4.6-0.4,10.5-4.2,14.8c-4.1-3.8-0.3-11.2-4.6-13.3s-6.8,5.2-11.4,5.8c-0.2-0.5-0.7-1.1-0.6-1.5c0.9-4.4,8-7.1,5.4-11.5 c-2.1-3.5-8.8-0.1-13.2-3.4c4.3-3.4,9.6-2.2,13.9-4.2C141.15,931,135.25,929,134.85,923.8z"></path> <path class="st0" d="M669.95,276.8c4.8-70.3,23.5-134.6,78.1-183.9C698.05,144.1,680.55,209,669.95,276.8z"></path> <path class="st0" d="M449.35,255.2c-15.1-4.1-28.9-8.3-42.9-11.6c-19.9-4.6-40-7.6-60.5-5c-4.7,0.6-9.1,1.8-13.2,4.1 c-4.5,2.5-8.3,5.7-7.9,11.5c0.4,5.5,3.9,8.8,9,10.7c1.4,0.5,3.1,0.3,3.8,2.1c-8.4,1.2-15.2-2.3-18-9.4c-2.9-7.5,0.2-13.3,5.9-17.9 c6.5-5.2,14.5-6.5,22.6-7.3C372.35,229.7,426.45,241.8,449.35,255.2z"></path> <path class="st0" d="M437.35,80.1c-2.6,0.6-5.2,1.2-7.7,1.9c-1.1,3.9,3.7,5.7,2.9,9.8c-3-1.8-5.8-3.4-8.5-5 c-3.2,2.8-1.7,6.8-3.4,10.1c-2.9-2.5-1.6-6.4-3.5-9.1c-3.6-0.7-5.3,3.5-9.8,3.8c4.6-6.5,8.4-12.8-4.1-13.1 c2.7-0.7,5.4-1.4,8.2-2.1c0.9-3.9-3.3-5.2-3.4-9c3.4-0.4,5.1,3.6,8.6,3.8c3-2.3,0.1-7.2,4.1-9.5c1,2.8,1.9,5.7,2.9,8.7 c3.6,1.4,5-3.1,8.8-3C428.65,73.5,426.95,79,437.35,80.1z"></path> <path class="st0" d="M1021.15,334.9c1.9,2.5,3.5,4.6,7,9.1c-9.1-5.1-14.4-4.7-15,6.1c-0.7-10.3-4.5-13-13.7-6.7 c9-8.9,1.8-10.2-7-12.3c6.1-1.1,8.9-1.6,11.7-2.1c0.8-4.1-4.2-5.5-3.5-10.2c7.8,6.7,12.4,6.2,11.3-5.8c4.3,2.7,2.2,6.9,4,9.3 c2.9,4,4.8-2.7,7.6-1c-2.6,7.1-2.6,7.1,7,9.8C1028.25,334,1024.55,332.5,1021.15,334.9z"></path> <path class="st0" d="M872.05,120.1c-7.1-6.2-11.3-7.2-11.3,3.1c-4.3-1.6-1.6-5.9-4.5-8.1c-3-0.7-4.6,3.4-8.1,3.5 c-1.1-3.7,4.3-4.9,3.4-8.5c-2.3-2.7-6.7,0.2-9.4-3.8c7.7-0.8,13.1-3,4.4-11.9c7.3,5,12.1,5.5,12.7-5.7c1.2,11.2,5.3,12.6,13.4,5.1 c-6.4,8.6-4.2,12.5,6,13.5C869.85,108.4,864.55,110.8,872.05,120.1z"></path> <path class="st0" d="M633.55,828.5c1.4-2.5,2.9-5,4.6-8.2c-3.5-0.9-6.3-1.6-11.9-3c8.8-1.5,14.9-3.4,6.9-10.9 c4.3-0.8,5.5,3.5,9.4,3.2c0.7-3.4,1.3-6.8,2.1-10.6c4.2,2.9,1.8,7.4,3.9,10.5c4,1.2,5.5-4.4,9.5-3.9c0.6,3.6-3.5,4.9-3.6,8.2 c1.6,3.5,6.3,0.6,8.9,4.3c-7,0.9-14.1,2.1-4.7,11.9c-8.7-7.4-11.2-2.7-13.2,5.3C645.15,824.3,641.05,823.2,633.55,828.5z"></path> <path class="st0" d="M160.95,671.3c3.8-0.7,5.2,3.5,8.8,3.3c3-2.2,0-7.3,4.4-9.6c1.3,5.8,1,14.9,10.8,4.7c-0.1,4.9-4,6.5-3.2,10.4 c2.4,0.5,4.9,1.1,7.8,1.7c-2,3.8-6.2,0.9-8,3.7c-0.2,3.2,3.4,4.3,3.8,7.2c-3.4,1.5-5.1-3-8.3-2.4c-2.5,2.1-0.4,6.1-3.6,8.4 c-0.7-2.8-1.4-5.4-2.1-8c-3.8-1.5-5.4,2.8-9.4,2.7c6-7.8,2.4-10.3-6.5-9.5c2.8-4.8,7.5-1.9,10.1-4.3 C166.05,675.9,161.55,675.1,160.95,671.3z"></path> <path class="st0" d="M515.75,1033.2c1.2-2.1,2.4-4.2,3.6-6.5c-1.8-3.2-5.8-1.6-8.2-4.1c1.7-3.1,5.5-1.2,7.9-2.9 c1.2-3.4-4.1-4.3-3-8.5c6.7,5.5,10,2.9,11-5.9c1.9,6.6,2.3,15.3,11,5.9c1,4-3.1,5.2-2.8,8.5c2.4,0.8,4.9,1.7,8.5,2.9 c-4.8,2-11.7,2.8-4.4,10.8c-8.7-5.3-11.2-1.6-10.8,9C525.55,1033.8,524.15,1026.5,515.75,1033.2z"></path> <path class="st0" d="M326.85,1223c-3.5,1.7-6.1,0.6-8.7,0c-23-5-45.3-12-66.9-21.4c-4.2-1.9-8.9-3.4-12.3-6.3 c-8.3-7.4-17.2-10.6-28.3-6.9c5.2-3.9,16.4-5,21-1.9c26,17.7,56.2,24.8,85.6,33.8C320.25,1221.3,323.15,1222,326.85,1223z"></path> <path class="st0" d="M661.15,119.1c-0.5,4.6-0.8,9.2-1.6,13.7c-0.4,2.1,0.1,5.6-3.2,5.8c-2.4,0.2-3.5-2.4-4.4-4.3 c-6-12.9-11-26.1-9.8-40.8c0.4-4.6,0.5-10.4,6-11.1s7.1,5.1,8.6,9.4C659.75,100.6,660.75,109.7,661.15,119.1z M655.95,133.2 c2.7-14,1.9-27.7-2.3-41.1c-0.7-2.3-1.1-5.4-4.2-5.3c-3.2,0.1-3.3,3.2-3.6,5.5C644.35,107.1,648.25,120.6,655.95,133.2z"></path> <path class="st0" d="M1048.75,1206.5c-29.7,13.8-61.1,21.3-93.5,25.1C986.45,1223.5,1017.85,1215.9,1048.75,1206.5z"></path> <path class="st0" d="M1080.75,420.1c-7.6,3.3-15.7,4.9-14.4,17c-2.4-9.7-7.5-14.7-16.9-16.1c9.3-0.9,15.9-4,15.4-15.1 C1067.95,413.6,1070.45,420.9,1080.75,420.1z"></path> <path class="st0" d="M595.85,1177.1c3,7,4.2,14.7,14.9,14.5c-10.1,0.7-12.7,7.3-14.1,15.6c-2.2-8.3-4.8-15.3-15.8-14.9 C590.55,1191.4,596.25,1187.5,595.85,1177.1z"></path> <path class="st0" d="M310.05,355c6.2-1.6,11-4.2,12-11.4c2,5.8,4.4,10.6,11.6,10.9c-6.9,1.4-9.6,6.3-12.4,14.9 C320.45,360,317.15,355.9,310.05,355z"></path> <path class="st0" d="M876.05,856.9c4.7-4.7,14-7.7,27.4-8.4c-9.9,5.1-18.5,7.5-27.6,8.2C875.85,856.7,876.05,856.9,876.05,856.9z"></path> <path class="st0" d="M299.15,1179.3c-9.4-0.2-17.5-3.7-24.8-9.6C282.65,1172.9,290.85,1176.1,299.15,1179.3z"></path> <path class="st0" d="M915.95,1238.9c5.3-6.2,11-11.9,14.8-14.6c-2.8,3.7-7.8,10.1-12.8,16.6 C917.35,1240.3,916.65,1239.6,915.95,1238.9z"></path> <path class="st0" d="M951.35,764.9c15.3-84.6-2.6-166.1-23.7-247.3C955.75,598.1,972.75,679.7,951.35,764.9z"></path> <path class="st0" d="M693.45,514.3c22.5,1.9,45,3.8,68.9,5.9C751.45,523.7,704.95,520.2,693.45,514.3z"></path> <path class="st0" d="M793.35,655.1c-19.2,4.5-38.6,7-58.3,7.3C754.15,657.1,773.65,655.7,793.35,655.1z"></path> <path class="st0" d="M729.35,645.9c19.2-4.6,38.9-5.1,58.6-5.2C768.65,644.9,749.05,645.9,729.35,645.9z"></path> <path class="st0" d="M753.25,705.9c18.6-5.8,38-7.8,57.3-10.1C792.15,702.5,772.75,704.3,753.25,705.9z"></path> <path class="st0" d="M721.25,620c19-1.8,37.9-3.6,56.9-5.4c-18.6,5.6-37.6,7.5-56.7,8.2C721.35,621.9,721.35,621,721.25,620z"></path> <path class="st0" d="M794.05,670.9c-17.3,5-35,7.2-53.1,7.2C758.25,672.9,776.15,672.1,794.05,670.9z"></path> <path class="st0" d="M773.95,604.6c-18.9,2-37.7,3.9-56.6,5.9c-0.1-0.8-0.2-1.5-0.2-2.3c18.7-3.4,37.6-5.3,56.7-5.8 C773.85,603.2,773.85,603.9,773.95,604.6z"></path> <path class="st0" d="M747.55,692.6c16.3-4.8,33.3-5.9,50.1-7.5C781.35,690.5,764.65,692.6,747.55,692.6z"></path> <path class="st0" d="M763.75,590.1c-16.2,3.4-32.8,5.4-49.5,5.2C730.45,591.3,747.05,590.2,763.75,590.1z"></path> <path class="st0" d="M832.85,742.9c-15.8,6.7-32.3,9.9-49,11.8c-0.2-0.8-0.3-1.5-0.5-2.3C799.85,749.3,816.35,746.1,832.85,742.9z "></path> <path class="st0" d="M805.75,713c-15.2,2.8-30.3,6-45.8,6.6c-0.1-0.8-0.2-1.6-0.4-2.4c15.3-2.2,30.6-4.4,45.9-6.6 C805.45,711.4,805.65,712.2,805.75,713z"></path> <path class="st0" d="M698.75,551.3c18.5-2,34.7-2.3,51.6-2.3C744.45,552.7,712.05,554.3,698.75,551.3z"></path> <path class="st0" d="M768.25,728.6c15.1-2.7,30.2-5.3,45.3-8c-14.4,6.3-29.5,9.1-44.8,10.5 C768.55,730.3,768.45,729.4,768.25,728.6z"></path> <path class="st0" d="M838.25,758.9c-14,5-28.7,7.6-43.7,8.1C808.65,762.2,823.35,760.2,838.25,758.9z"></path> <path class="st0" d="M753.05,567.9c-15.1,1.6-30.2,3.1-46.7,4.8C713.65,567.7,738.35,564.7,753.05,567.9z"></path> <path class="st0" d="M858.05,781.5c-13.4,7.2-28.1,8.8-42.5,12c-0.2-0.9-0.4-1.8-0.6-2.7C829.35,787.7,843.65,784.6,858.05,781.5z "></path> <path class="st0" d="M726.05,633.1c15.7-1.7,31.3-3.3,46.9-4.9c-15.2,5.7-31,6.1-46.6,7.6C726.25,634.9,726.15,634,726.05,633.1z"></path> <path class="st0" d="M803.35,778.6c14.2-2.6,28.3-5.2,42.5-7.8c-13.4,6.4-27.6,9.2-42,10.3 C803.65,780.3,803.55,779.5,803.35,778.6z"></path> <path class="st0" d="M818.75,735.1c-13.7,4.1-27.6,6.8-42,6.3C790.55,737.8,804.45,735.2,818.75,735.1z"></path> <path class="st0" d="M824.05,801.8c14.1-3.3,28.2-6.7,42.2-10.1c0.2,0.7,0.4,1.5,0.5,2.2c-13.7,4.8-27.9,7.7-42.1,10.5 C824.45,803.6,824.25,802.7,824.05,801.8z"></path> <path class="st0" d="M738.35,534.8c-13.3,1.2-26.6,1.3-39.8-1.3C711.85,532.2,725.15,532.5,738.35,534.8z"></path> <path class="st0" d="M748.85,580.4c-12.7,1.3-25.4,2.6-38,3.8c-0.1-0.9-0.2-1.8-0.3-2.6C723.15,579.3,735.95,578.4,748.85,580.4z"></path> <path class="st0" d="M876.05,803.6c-12.7,5.3-25.9,8.4-39.5,9.7C849.25,808.2,862.55,805.4,876.05,803.6z"></path> <path class="st0" d="M884.65,810.3c-11.2,6.3-23,9.7-35.6,9.5C860.95,816.6,872.75,813.5,884.65,810.3z"></path> <path class="st0" d="M856.55,606.8c-0.6,3.1-1.5,6.4-5.3,6.3c-3.6-0.1-5.4-2.8-5.5-6.2c-0.1-3,1.4-5.6,4.7-5.7 C854.05,601,855.95,603.3,856.55,606.8z"></path> <path class="st0" d="M830.65,549.3c-0.7,3.6-2.4,6-6.1,5.6c-3.5-0.3-5.7-2.6-5.5-6c0.2-3.3,2.2-5.8,6-5.5 C828.65,543.8,830.25,546.2,830.65,549.3z"></path> <path class="st0" d="M871.55,717.3c-0.8,2.9-2.2,5.3-5.4,5.5c-3.5,0.2-4.8-2.3-5-5.4c-0.2-3.3,1.6-5.3,5-5.3 C869.45,712,870.75,714.3,871.55,717.3z"></path> <path class="st0" d="M894.15,563.4c3.2,0.2,5.4,1.6,5.6,4.9c0.1,3.1-1.5,5.6-4.6,5.8c-3.4,0.2-5.8-1.8-6-5.5 C889.05,565.4,891.15,563.8,894.15,563.4z"></path> <path class="st0" d="M870.45,823.7c7.5-2,15-4.1,22.5-6.1C886.45,823,878.75,824,870.45,823.7z"></path> <path class="st0" d="M905.65,453.2c-14.9-32.6-28.5-65.8-43.6-98.4C880.15,386,895.55,418.4,905.65,453.2z"></path> <path class="st0" d="M693.45,457.1c-5.5-16.9-8.7-34.2-10-51.9C689.15,422,692.35,439.3,693.45,457.1z"></path> <path class="st0" d="M710.05,449.7c-7.5-12.7-9.2-27-10.5-41.3C703.05,422.2,706.55,436,710.05,449.7z"></path> <path class="st0" d="M767.95,477.2c-23,3.4-46.3,4.7-69.2,8.5C721.25,478.2,744.45,476.4,767.95,477.2z"></path> <path class="st0" d="M907.55,487.1c-22.4-4.8-45.2-6.3-67.9-8.9C854.35,475.4,895.85,480.9,907.55,487.1z"></path> <path class="st0" d="M721.45,490.4c11.6,0,23.3,0,34.9,0c-11.5,2-23.2,2.7-35,2.5C721.45,492,721.45,491.2,721.45,490.4z"></path> <path class="st0" d="M493.65,788.6c64-79.5,97.5-172.8,117.8-271.7C619.95,579.6,542.15,757.9,493.65,788.6z"></path> <path class="st0" d="M368.35,553c19.1,7.6,38.3,15.1,57.4,22.7c-20.8-3.1-39.8-11.2-58.2-20.5 C367.75,554.4,368.05,553.7,368.35,553z"></path> <path class="st0" d="M420.45,601.6c-20.4-4.5-40-11-57.6-22.4C382.25,586.2,401.25,594,420.45,601.6z"></path> <path class="st0" d="M378.35,516.2c19.5,7.4,37.4,14.2,56.9,21.7C420.45,537.9,387.65,525.4,378.35,516.2z"></path> <path class="st0" d="M374.55,536c18.5,7,36.9,14.1,55.4,21.1C409.95,554,391.55,546.9,374.55,536z"></path> <path class="st0" d="M407.55,618.4c-17.8-2.5-34.6-8.1-49.4-19C374.65,605.7,391.05,612,407.55,618.4z"></path> <path class="st0" d="M354.85,631c16.8,6.2,33.6,12.4,50.4,18.6c-18.2-2.1-34.8-8.6-51.1-16C354.35,632.7,354.55,631.8,354.85,631z "></path> <path class="st0" d="M356.95,616.7c16.8,5.7,33.6,11.3,52.5,17.8C397.25,635,366.95,625.1,356.95,616.7z"></path> <path class="st0" d="M397.75,686.1c-16.9-2.3-32.8-7-46.6-17.5C366.75,674.5,382.25,680.3,397.75,686.1z"></path> <path class="st0" d="M350.85,685.9c14.6,5.4,29.2,10.9,43.8,16.3C378.85,700.1,363.75,695.9,350.85,685.9z"></path> <path class="st0" d="M399.25,667.9c-17-2.5-32.2-8-46.6-15.5c0.3-0.7,0.5-1.4,0.8-2.1C368.65,656.2,383.95,662,399.25,667.9z"></path> <path class="st0" d="M392.05,721.6c-13.9-3.6-27.5-7.9-39.5-16.5c13.4,4.8,26.7,9.5,40.1,14.2 C392.35,720.1,392.15,720.8,392.05,721.6z"></path> <path class="st0" d="M394.65,736c-14.7-1.7-28.6-5.5-40.6-14.7C367.55,726.2,381.05,731.1,394.65,736z"></path> <path class="st0" d="M358.05,752c12.6,4.3,25.3,8.6,38,12.8C382.15,763.8,369.15,760.3,358.05,752z"></path> <path class="st0" d="M356.05,736.9c12.9,4.2,25.8,8.3,38.7,12.5C380.75,748.6,367.85,744.5,356.05,736.9z"></path> <path class="st0" d="M459.55,783.7c-0.6,3.3-2.6,5.6-6,5.6c-3,0-5.2-2.2-5.4-5.2c-0.3-3.5,1.8-6,5.3-6.2 C456.95,777.8,458.75,780.3,459.55,783.7z"></path> <path class="st0" d="M381.75,802.6c13.2-1.2,25.3,2.7,37,8.3C406.45,808.1,394.05,805.3,381.75,802.6z"></path> <path class="st0" d="M555.55,572.5c-0.2,3.6-1.8,6-5.5,6.3c-3.2,0.3-5.6-1.2-5.9-4.5c-0.3-4,2-6.5,5.9-6.8 C553.35,567.2,555.05,569.5,555.55,572.5z"></path> <path class="st0" d="M397.55,779.1c-12.4-0.4-23.5-4.1-33.7-10.7C375.05,771.9,386.35,775.5,397.55,779.1z"></path> <path class="st0" d="M405.65,794.8c-11.4-1.6-22.5-4.5-33-9.5C384.05,787.2,395.25,789.6,405.65,794.8z"></path> <path class="st0" d="M454.35,352.4c-16.1,34.8-30.4,70.1-44.6,105.4C407.95,444.5,439.95,369.1,454.35,352.4z"></path> <path class="st0" d="M465.05,365.4c-12.3,29.1-24.6,58.3-36.9,87.5c-0.8-0.3-1.5-0.6-2.2-0.9c9.3-30.4,23.4-58.8,36.8-87.5 C463.45,364.8,464.25,365.1,465.05,365.4z"></path> <path class="st0" d="M631.05,402.7c0.7,20.6-2.9,40.6-8.6,60.3C625.35,442.9,628.15,422.8,631.05,402.7z"></path> <path class="st0" d="M455.75,482.9c-17.1,2.8-34.3,5.5-51.4,8.3C420.65,482.8,438.35,482.9,455.75,482.9z"></path> <path class="st0" d="M543.65,482.9c18.2-1.4,35.9,1.1,53.5,5.2C579.25,486.9,561.55,483.7,543.65,482.9z"></path> <path class="st0" d="M551.45,498.4c15.1-1.1,30.3-1.9,45.3-4.4C582.15,500.3,566.85,499.3,551.45,498.4z"></path> <path class="st0" d="M478.15,491.2c-9.6,4.5-19.7,4.2-29.9,2.4C458.25,492.8,468.25,492,478.15,491.2z"></path> </g></g></svg>