<svg xmlns="http://www.w3.org/2000/svg" xmlns:xlink="http://www.w3.org/1999/xlink" id="Capa_1" x="0px" y="0px" viewBox="0 0 1333 1333" style="enable-background:new 0 0 1333 1333;" xml:space="preserve"><style type="text/css"> .st0{fill:#4A4A4A;}</style><g> <path class="st0" d="M1209.3,955.64c-5.8-65.5-9.3-131.2-13.1-196.8c-3.5-60.9-7.9-121.8-14.7-182.5c-2.9-25.9-13.8-44.4-39.8-53.9 c-29.1-10.7-57.2-24.3-86-35.6c-36.9-14.6-72.6-30.5-98.6-62.3c-5.6-6.9-13.3-12-22.4-13.5c-6.4-1-10.8-4.2-15-9.1 c-10.7-12.4-26.2-15.4-40.7-8.4c-3.8,1.9-7.2,4.8-11.2,7.5c-3-7.7-2.7-15.4-3-23c-0.3-8.5,2.4-14.1,9.9-19.3 c15.7-10.8,25.8-25.7,27.9-45.2c2.7-24.9-12.5-46.9-36.8-53.2c-23.2-6-47.3,5.7-56.3,27.3c-1.8,4.4-3.2,8.9-2.7,13.7 c0.4,4.3,2.4,7.5,6.9,8.2c4.7,0.8,8.2-1.1,9.8-5.7c0.9-2.6,1.2-5.4,1.8-8.1c2.5-10.9,8.7-18.4,19.6-21.7 c24.5-7.4,46.9,14,41.2,39.2c-3.3,14.7-12.6,25.2-24.5,33.5c-10.1,7.1-15.3,16.2-15.4,28.7c-0.1,8.3-0.7,16.8-4.7,25 c-11.8-11.1-26-15.1-38.6-6.9c-13.1,8.5-25.6,17.9-39.8,24.9c-1.4,0.7-2.5,2.2-3.7,3.3c-8.8,8.4-17.5,17-26.6,25.2 c-24.3,21.8-55.6,29.2-84.9,40.8c-3.6,1.4-3.8-1-5-3.4c-4.3-8.9-10.3-10.1-17.6-3.4c-2.3,2.1-3.9,2.2-6.4,1.2 c-27.4-10.6-55-21-80.9-34.9c-16.4-8.8-30.3-20.4-37-38.9c-2.8-7.6-9.2-12.4-16.5-15.6c-14.4-6.2-27-2-38.5,7.3 c-2.9-3.4-3-7.5-3.5-11.2c-1.6-13-0.5-24.3,12.9-32.1c11-6.5,17.7-17.6,21.9-29.6c6.5-18.5,5.2-36.3-7.9-51.6 c-12.4-14.5-28.6-19.4-47.3-15.9c-19.7,3.7-36.3,21.3-37,38.8c-0.2,5.3,0.6,10.4,7.1,11.3c6,0.8,9.1-2.9,10.3-8.5 c0.6-3,1-6,1.9-8.9c5-14.8,19.9-22.4,36.2-18.5c16.8,4,26.8,18.9,24.1,36.4c-2.4,15.8-11.1,27.9-24.1,36.4 c-11.3,7.4-16.6,17.3-16.9,30.5c-0.2,8-1.5,15.8-4.5,23.2c-2.7,0-3.7-1.9-5.2-3c-17.4-13-41.6-8-50.9,11.6 c-7.2,15.4-18.5,26.1-32.6,34.4c-29.5,17.5-62.1,28-93.6,41.1c-3.9,1.6-4.7-1.1-6-3.5c-2.5-4.6-6.6-5.8-11.4-4.6 c-4.8,1.2-8.6,4.6-7.9,9.4c1.4,8.5-3.5,11-9.8,13.3c-3.4,1.2-6.7,2.7-9.9,4.2c-16.6,7.7-33.8,14.1-49.4,23.9 c-12.3,7.8-20.1,18.4-18.8,33.7c0.9,10.5,6.3,18.3,16.1,22.4c10.4,4.3,20.2,2.8,28.8-4.5c8.3-7.1,9.2-18.5,2.1-24.9 c-3.2-2.9-7-4.7-11.4-3.1c-4.5,1.6-6.6,4.9-5.6,9.8c0.4,2,0.4,4-2,4.8c-2,0.7-3.9-0.1-5.4-1.3c-3.9-3.2-4.6-7.4-3-12 c2.1-5.9,6.5-9.5,11.8-12.3c18.5-9.6,37.8-17.4,56.8-25.7c4-1.7,5.4-0.7,6.3,3.2c9.9,41,19.9,81.9,29.9,122.8 c0.9,3.6-0.1,6.2-2.5,9c-8,9.1-13.5,19.6-17.1,31.1c-10,31.4-5.4,62,5.9,92c8.6,22.8,17.3,45.6,26.5,68.2 c26.3,64.4,15.1,122.6-28,175.9c-3.4,4.1-6.8,8.2-10.2,12.3c27.1-24.6,46.6-54,55.7-89.6c8.4-33,2.9-65-7.9-96.4 c-3.9-11.4-8.2-22.7-13.1-36.3c11,10,20.4,18.1,30.9,24.8c10.5,6.8,21.5,12.5,33.4,16.2c-6.4-4-13.1-7.2-19.5-11 c-47.8-27.7-76.8-86.5-68.8-138.8c6-39,32.6-65,70.3-67c26.8-1.5,49,10.2,68,28.2c27.3,25.7,40.9,58.8,50,94.2 c2.9,11.2,4.3,22.7,6.5,34.1c1.1-2.5,1.5-4.9,1.9-7.3c3.9-27.9,10.7-55,23.9-80.1c12.7-24.3,29.1-45.1,53.6-58.7 c48.4-26.9,106-1.2,115.9,53c8.4,46.3-6.9,85.8-39.6,118.8c-10.9,11-23.7,19.7-36.6,28.3c18.5-7.2,34.4-18.6,49.3-31.8 c-6.2,15-11.2,30.2-15.9,45.5c-7.3,24.2-10,48.8-6.5,74c5.2,37,24.6,67.2,46.1,96.5c6.1,8.3,17.7,14.7,17.7,25 c0,8.1-4.1,16.2-7.7,24.3c1.5-0.1,3.1-0.3,4.6-0.4c14.5-34.4,23.8-70.4,27.9-107.7c1.7-15.3,6.7-27.6,17.6-38.1 c11.4-10.9,22.6-22.1,33.5-33.5c4-4.2,10.3-9.5,5.5-15.6c-4.6-6-11.7-2.7-17.5,0.1s-10.7,6.8-15.2,11.4c-1.4,1.4-2.1,3.8-5,3.7 c3.4-13.7,6.9-27.1,10-40.5c1.7-7.5,2.6-14.7,13.4-12.5c2.3,0.5,5.2-1.5,7.7-2.7c1.6-0.7,3.2-2.9,1.8-3.9 c-6.8-4.8-0.4-7.5,1.4-10.9c1.4-2.7,3.5-5.6,0.8-8.4c-2.7-2.8-6.1-3.9-9.7-1.1c-0.9,0.7-1.8,1.3-3,0.6c-2.1-5.9-0.4-9.5,6.1-10.6 c2.5-0.4,4.8-1.2,7.2-2c3.2-1.1,6.5-2.2,7-6.2c0.5-4.2-3.9-3.8-6-6.1c2.5-3,7.2-5.7,2.7-10.2c-4.6-4.6-8.4-0.8-13,2.7 c2.2-8.3,2.5-15.5,13.3-15.1c5.1,0.2,10.5-3.6,5.9-10.8c-1.2-1.8-0.9-3.1,0.8-4.1c5.8-3.5,9.6-7.8,5.3-15.6 c3.5,3.7,5.8,7.1,7.7,10.7c12.8,25.2,25.5,50.5,38.2,75.7c23.6,46.8,47.2,93.5,71,140.3c4.2,8.2,5.4,16.4,3.5,25.7 c-1.8,8.6-3.4,17.5-1.7,26.5c1.4-26.8,9.5-51.5,22.6-74.9c13-23.2,24.8-47.1,36.7-70.9c21.1-42.2,41.9-84.5,62.7-126.7 c1.7-3.5,3.1-6.8,8.2-7c14.2-0.4,28.1-2.8,42.1-4.9c4.9-0.8,9.8-1.8,14.7-2.8c5.2-1.1,10.3-2.3,15.4-3.5c4.5-1.1,9.2-1.9,13.1-4.7 c-1.2-0.4-2.3-0.3-3.3,0c-25.7,7.4-52,11-78.5,13.7c-6.3,0.7-6.8-1.2-4.2-6.1c2.3-4.4,4.6-8.9,6.4-13.5c2.1-5.6,5.7-7.6,11.8-8.2 c24.9-2.4,49.4-7,73.3-14.7c2.5-0.8,5.5-0.8,6.8-4.8c-27.6,2-54.6,6-82.2,9.5c0.6-1.9,0.8-3,1.2-3.9c9.2-19.9,18.1-39.9,27.7-59.6 c3.5-7.2,2.3-12.5-2.6-18.1c-7.5-8.6-14.5-17.5-22-26c-3.2-3.7-3.1-5.6,1.4-8.1c6.3-3.5,12.2-7.7,18.3-11.6c4.6-2.9,6.3-6.5,4.6-12 c-2.8-9-5.3-18.1-7.7-27.2c-4.6-17.5-9.1-35-14-53.7c39.5,16.5,77.6,32.4,115.7,48.4c11,4.6,22.2,8.8,32.6,14.7 c2.6,1.5,5.1,2.4,1.8,5.9c-14.5,15.4-21.4,34.7-27.2,54.5c-6.7,23.2-9.9,47.2-15.7,70.6c-14.8,59.4-32.9,118.1-44.9,178.2 c-8.7,43.4-13.6,87.1-12,132c2.3-2.8,1.9-5.8,2-8.4c1.2-52.3,12.4-102.9,25.4-153.1c14.4-55.8,29.3-111.5,36.6-169 c3.9-30.3,11.7-59.9,26.8-86.9c3.7-6.7,7.9-18,13.8-17c7.6,1.3,8.6,13,10.4,20.9c4.4,19.5,5.9,39.5,7.5,59.4 c7.6,95.4,14,190.9,23.7,286.1c1.8,17.5,4.4,35,6.6,52.5C1209.6,961.14,1209.6,958.44,1209.3,955.64z M937.5,423.94 c3.5,2.7,4.2,3.6,5.9,12.5c4,20.9,3.6,42,1.4,63c-2.5,24.3-6.5,48.3-11.5,72.2c-0.3,1.6-0.3,3.4-2.3,4.6 c-18.3-13.6-36.7-27.2-55.2-40.9C910,505.04,937.8,472.04,937.5,423.94z M815.8,753.74c-9.3-45.9-18.3-90.6-27.3-135.4 c-1.3-6.5-1.9-13.2-3.9-19.5c-2.9-9.1-0.5-15,7.8-19.7c8.1-4.7,15.7-10.4,23.2-16c4.1-3,6.1-3.7,7.5,2.4 c3.7,16.2,8.4,32.1,15.8,47.1c1.1,2.3,0.7,4.1,0,6.3c-13.8,41.6-19.1,84.7-21,128.2C817.8,749.04,818.5,751.04,815.8,753.74z M830.4,558.24c-1.3-6.3,10.1-16.5,18.3-16.8c2.5-0.1,5,0.2,7.7,0.3c4.1,0.8,8.4-1.5,12.8,0.6c12.5,6,14,9,11.4,22.7 c-2.3,12.3-5,24.4-9.1,36.2c-1.3,3.7-1.6,8.8-7.7,8c-6.8-0.9-15.2,2.3-19.2-6.1C838,588.94,833.6,573.74,830.4,558.24z M917.1,472.74c-13.3,22.2-28.1,40.9-47.9,55.4c-8.3,6-16.7,5.4-24,0.7c-20.8-13.6-35.6-32.8-49-55.7 C837.1,478.74,876.4,479.04,917.1,472.74z M786.5,440.44c2-3.4,4.2-7.9,10.3-4.7c21,11.1,41.5,2.1,53.2-11.7c3.7-4.4,5.2-4.2,9,0 c15,17.1,34.3,20.4,54.6,9.9c2-1,4-2.7,5.9-0.3c2.8,3.5,8.3,4.8,7.8,10.9c-0.9,11.9-6.2,17.9-17.9,20.2c-16.7,3.3-33.5,4-51.3,4.3 c-19.7-0.5-40.2-1.6-60.3-6.1C791.2,461.44,783.1,446.14,786.5,440.44z M877.6,612.04c5.4-15.5,9.3-31.3,12.1-47.4 c1-6,2.6-6.2,7.1-2.5c9.4,7.7,19.2,15.1,28.9,22.4c2.9,2.2,4.6,4.1,3.8,8.2c-9.4,46.1-18.6,92.3-27.9,138.4c-0.2,1.1-0.3,2.2-2,2.4 c-2.5-17.6-4.8-35.3-7.6-52.9c-3.2-20.3-8.2-40.1-13.9-59.8C877.2,617.84,876.5,615.24,877.6,612.04z M802.8,398.44 c10.1-5.9,27-3.7,33.9,4.6c5.1,6.2-1.1,9.3-4.3,12.1c-4.9,4.3-3.9-2.3-5.2-4c-2.9-3.7-6.2-6.2-10.9-6.9 c-8.6-1.2-16.5,3.6-17.4,10.5c-0.8,6.1,5,11.3,14,12.3c12.4,1.5,26.2-7.4,32.2-20.6c4.6-10.1,6.3-20.8,6.1-31.6 c-0.2-10.7,4.7-17.8,12.9-23.6c13.2-9.5,23.5-21.2,27-37.6c6.1-28.9-19.8-52.5-48.1-43.8c-12.6,3.9-19.9,12.5-22.6,25.3 c-0.5,2.2-0.7,4.4-1.3,6.5c-0.6,2-1.8,3.5-4.2,3c-2.3-0.4-3.1-2.1-3.2-4.2c-0.3-4,0.9-7.7,2.6-11.2c9.8-21.4,33.8-31,56-22.5 c21.2,8.2,32.6,32.7,25.8,55.8c-4.4,14.8-13.8,25.9-26.4,34.2c-6.6,4.3-9.3,9.7-9.2,17.3c0.2,8.3-0.4,16.6,1.5,24.9 c3.9,17.2,18.5,29.1,34.4,27.8c5.7-0.5,11.1-2,13.7-7.8c1.7-3.7,0.4-7-2.3-9.8c-4.5-4.6-10-5.8-16.1-4.2 c-6.1,1.6-9.7,6.2-12.1,12.3c-10.8-8.4-10.4-13.1,1-18.9c13.8-7,29.3-3,38.3,9.9c4.2,6,7.9,16.1,9,24.6c-0.5-0.1-1.2,0.1-1.4-0.2 c-4.9-6.7-8.7-8.2-16.7-2c-14.2,11-38,4.3-49.2-13.1c-4.7-7.3-6.4-6-11-0.2c-10.8,13.7-24.4,21.8-42.8,17.3 c-2.6-0.6-5.9-1.5-7.4-3.4c-5.6-7.3-9.2-3.9-12.8,2C782.7,422.34,790.8,405.44,802.8,398.44z M823.9,417.04 c0.2,4.7-4.9,4.1-8.6,4.6c-4.1-0.7-10.4,0.6-10.7-5.8c-0.3-4.7,4.2-6.8,8.8-6.9C819,408.84,823.7,411.34,823.9,417.04z M885.4,416.74c0.4-5.1,5.3-7.4,10.3-7.6c4.5-0.2,9.3,1.6,8.9,6.4c-0.5,5.2-6,5.5-10.9,5.9C890.8,420.54,884.9,422.44,885.4,416.74 z M774.9,423.04c0.2,44.3,24.1,76.2,54.5,104.5c9,8.4,9.3,8.1-0.9,15.3c-15.5,11-31.1,22-48.4,34.3 C773.6,524.84,759.6,474.34,774.9,423.04z M724.4,464.94c13-9,24.6-19.6,37-32.8c-3.5,23.5-3.3,44.8-1.2,66 c0.3,2.8,0.2,5.6,0.9,8.2c4.8,17.8,2.6,33.5-12.9,45.7c-3.1,2.5-5.3,6.1-8,9.3c0.4-18.8-10.1-29-25-35.7c-7.3-3.2-8.8-7.2-6.6-14.7 c3.5-11.6,5.8-23.6,8.5-35.5C718.2,470.94,720.4,467.64,724.4,464.94z M703.5,550.64c-3.1-1-3-2.9-2.4-5.8c1.3-6.6,3.9-7.3,9.2-3.5 c7.9,5.7,11.6,13.4,8.5,19.5c-1.5,3-3.6,5.1-7.2,4.1c-3.3-1-5.2-3-3.3-8.2C709.2,554.04,707.1,551.84,703.5,550.64z M701.9,559.04 c1.1,7.9,5.9,12.3,12.3,11.2c6.9-1.1,11.8-8,10.7-15.4c-1.3-8.7-6.9-14.2-14.1-18.4c-1.7-1-3.5-1.7-5.1-2.8 c-2.2-1.4-1.1-3.4-0.7-5.2c0.3-1.5,1.1-2.2,2.9-2c11.8,1.3,26.4,18.2,26.4,32c0.3,8.6-5.2,14.9-13.2,19.1c-7.3,3.9-14.6,2-21.1-2.5 c-6-4.2-7.7-12.8-3.9-17.5c1-1.3,2.3-2.6,4.1-2.4C702.6,555.34,701.7,557.54,701.9,559.04z M708.9,473.34 c-3.4,14.3-6.4,27.2-9.5,40.1c-0.8,3.2-2.5,2.6-4.9,1.5c-13.2-6.1-26.6-12.1-41.7-18.9C672,488.24,689.6,481.14,708.9,473.34z M641.8,499.94c2.1-5.1,4.6-0.8,6.5,0c14.8,6.2,29.5,12.7,44.2,19.1c2.4,1,5.7,1.6,4.7,5.9c-0.2,3.4-1.3,5.3-5.6,3.4 c-15.6-7.2-31.2-14.2-46.9-21.1C641,505.54,640.5,503.24,641.8,499.94z M239.9,488.14c24-9.4,48.2-18.4,71.6-29.2 c10.4-4.7,20.4-10.1,29.7-16.7c11.5-8.2,20.6-18.2,26.6-31.2c6.8-14.8,24.2-20.2,39-13.1c11.4,5.5,11.9,10,1.5,18.9 c-4-8.3-9.7-14.1-19.7-12.7c-6,0.9-12,3.1-12.9,9.8c-1,7.3,5.1,9.9,10.7,11.8c10.9,3.7,25-1.6,32.1-11.9 c6.7-9.6,10.1-20.6,10.2-32.1c0.1-14.8,5.6-25.5,18.2-34.1c14.7-10,22.9-24.8,23.6-42.9c0.7-18.7-13.3-34.6-31.6-36.8 c-20.6-2.5-36.1,8.5-40.3,28.4c-0.1,0.5-0.2,1.1-0.4,1.6c-0.8,2.9-0.8,7-5,6.2c-4.5-0.9-3.5-5.2-2.6-8.3 c3.2-11.3,9.3-20.7,19.8-26.7c17.3-9.9,38.6-7.5,52.5,5.8c14.1,13.4,17.8,36.2,8.8,54.7c-5.1,10.4-11.9,19.6-21.9,25.5 c-7.7,4.6-11.1,10.9-11.6,19.7c-0.9,16.4,1.2,31.7,14,43.5c9.1,8.5,21.5,10.5,30.8,5.5c8.7-4.7,9-11.9,0.8-17.3 c-7.6-5-17.3-3.2-23.1,3.9c-1.5,1.9-1.6,7.9-6.5,2.8c-3.4-3.6-6.8-6.7-1.5-11.7c12.7-12.1,37.8-8.6,44.1,7.8 c9,23.1,26.9,36,47.6,46.3c23.1,11.5,47,21.1,71.2,30c3.2,1.2,8.6,0.8,6.3,7.1c-2.2,6.2-6.1,2.1-8.7,1 c-25.1-10.3-50.6-19.8-74.7-32.5c-15.3-8.1-29-18.5-39.8-32.2c-1.6-2.1-3.1-5.2-6.3-1.6c-13.3,14.5-40.7,9.2-53.9-10.5 c-1.5-2.3-2.9-4.6-4.6-7.4c-4.2,5-7.8,9.9-12,14.1c-14.1,14.1-33.2,15.7-49.1,4.3c-2.5-1.8-3.8-2.4-6,0.2 c-25,28.8-59.5,41.7-93.2,56c-10,4.2-20.1,7.9-30.3,11.5c-2.2,0.8-5.1,3.6-6.8-1C234.5,490.84,236.6,489.44,239.9,488.14z M393.3,422.14c-5-1.2-11.1-0.9-11.1-7c0-4.8,4.8-6.2,9.3-6.2c5.4,0,9.8,2.9,10.2,7.9C402,422.04,396.1,420.64,393.3,422.14z M474.6,408.94c4.1,0.3,8.6,2.2,8.1,6.4c-0.6,5.8-6.2,5.9-11,6.2c-3.5-0.4-7.7,0-8.9-4.2C462,414.04,469.8,408.54,474.6,408.94z M211.3,508.74c-14.7,6.3-29.4,12.8-44.1,19.3c-7.1,3.2-14.3,6.2-20.4,11.1c-6.8,5.5-10.2,12.5-7.9,21.2c1.8,6.8,6.7,10.2,13.7,9.2 c4.7-0.7,8.5-3.1,7.2-9c-0.4-2-1.2-3.8,1-5.1s4.4-0.3,6.2,0.8c5.9,3.6,5.3,13-1.3,18.6c-7.3,6.2-15.6,6.8-24.1,3.2 s-13.3-11.7-13-23.4c0.3-6.8,4.2-13.8,10.8-19.5c7.4-6.5,16.3-10.4,25.1-14.5c14.6-6.7,29.2-13.3,43.9-19.8c2-0.9,4.6-3.9,6.4,1 C216.5,506.24,214.4,507.34,211.3,508.74z M255.8,638.94c-4,0.3-2.8-3.5-3.3-5.4c-6.5-26.7-12.8-53.4-19.2-80 c-5.1-20.7-10.4-41.4-15.6-62.1c-1.2-4.7-2.3-9.6,4.6-11.3c5,0.6,6.2,4.5,7.3,8.7c8.1,32.3,16.2,64.5,24.3,96.8 c3.4,13.7,6.7,27.5,10,41.2C265,631.24,260.3,638.54,255.8,638.94z M495.7,637.44c-36.7,25-55.3,61.6-66.7,103.2 c-4.7-16.2-10.6-31.7-18.4-46.4c-17.2-32.1-40.5-57.4-76.3-69c-19.2-6.2-38.3-5.7-57,1.4c-5.8,2.2-7.9,1.9-9.5-4.5 c-9.2-38-18.6-75.9-28.3-113.7c-1.6-6.2,2.1-7,6.1-8.5c30.1-11.3,60.3-22.5,88.1-39c11.7-7,23-14.5,32-24.9 c2.1-2.5,3.8-3.4,6.9-1.6c22.1,12.7,43.8,3.9,56.6-11.7c3.2-3.9,4.5-2.9,7.3,0.2c16.8,18.2,32,21.3,55,11.5c2.4-1,3.8-1,5.6,1.1 c19,21.8,43.9,34.3,70,45c15.3,6.3,30.5,12.8,47.5,19.9c-16.5,7-31.2,13.1-45.9,19.5c-6.8,3-13.4,6.6-20.3,9.6 c-21.9,9.5-33.7,26.8-39.5,49.3c-4.3,17-7.3,34.1-9.9,51.4C498.5,633.04,498.5,635.54,495.7,637.44z M582.2,627.94 c-36.4-9.5-36.5-9.3-74.4,1.9c5.7-28.2,6.3-57.1,25.9-80c1.4-1.7,3.3-3,5.2-4.2c23.4-15.1,49.2-25,76.5-34.5 c-9.5,38.4-18.6,75.3-27.8,112.1C587,625.94,587.6,629.34,582.2,627.94z M601.1,637.24c-8.5-1.9-10.8-6-8.4-14.8 c11.8-43.9,22.9-88,34.4-131.9c1-3.8,0.8-10.2,7.6-8.3c5.7,1.6,5.6,6.3,4.3,11.5c-3.5,14.2-6.5,28.6-9.8,42.9 c-0.5,2.3,0.7,5.7-4.3,4.7c-7-1.4-7.2,3.5-5.9,8.3c1,3.6,2.9,6.9-2.3,8.6c-0.4,0.2-1,0.9-1,1.2c0.8,6.7-0.2,12.9-2.2,19.6 c-0.9,2.8-0.5,7.5-1.4,11.4C608.3,605.94,604.8,621.34,601.1,637.24z M644.2,614.74c1.5-6.7,1.1-14,6.8-19.1 C648.6,602.14,649.2,609.34,644.2,614.74z M658.8,608.14c-3.3,9.5-10.4,12.5-15.4,17.3C646.5,619.14,649.8,612.84,658.8,608.14z M639.5,614.84c0.6-7-4.6-15.4,5-20.2C642.3,601.24,640.4,607.94,639.5,614.84z M631.9,565.74c-4.2-4.1-5-10.1-7.9-14.9 c-1-1.6-1.8-4.1,0.4-5.2c2.2-1.1,4.2,0.5,5.4,2.6C633,553.74,631.1,559.94,631.9,565.74z M623.5,561.14c4,4.9,5.8,10.9,8.7,17.3 c-7.7-3.1-7.3-11-11.9-15.2c-0.8-0.7-1.1-2-0.2-3C621.7,558.74,622.8,560.14,623.5,561.14z M634.3,587.84 c-8.5-1.1-13-5.3-16.8-10.9C622.9,579.94,629.7,580.64,634.3,587.84z M628.4,609.84c2.3,3.6,5.8,6.4,7,10.7 c-6,0.1-10.2-2.3-11.4-8.6c-0.2-1.3-0.2-2.8,1.1-3.6C626.7,607.34,627.7,608.74,628.4,609.84z M623.5,594.14 c14.5,1.6,9.4,12.1,12.6,18C629.7,608.24,630.1,600.14,623.5,594.14z M635.5,620.74c1,1.8,2,3.7,3.5,6.4 c-7.2,0.5-13.2,0.3-18.7-4.6C625.5,619.54,631.8,630.54,635.5,620.74z M637.2,586.84c-0.5-7.4-5-13.6-5.1-20.8 c2.8-2.7,1.6-8,6.9-9.8C630,566.14,639.3,576.64,637.2,586.84z M616.3,653.44c-11.3-8.2-10.7-18.4-7.3-29.9 c2.3-8,3.9-16.1,5.8-24.2c2.9-12.7,5.9-14,18.7-7.1c-1.6,0.2-2.7,0.5-3.6,0.3c-3.2-0.4-7-2.5-9.3,0.8c-2.6,3.8,1.8,5.7,3.5,8.3 c1.3,1.9,2,3.3-0.8,4.3c-5,1.9-5.4,5.3-2.5,9.1c2.2,2.8,0.2,3.2-1.7,3.9c-6.8,2.5-3.7,5.4-0.2,7.9c1.8,1.3,3.9,2.1,6,2.8 c14,4.4,14,4.3,15,20.3c-3.7-2.3-5.6-10-10.5-6.3c-6.3,4.8-0.6,11.6,0.4,17.5C622.5,663.14,620.6,656.54,616.3,653.44z M621.2,673.34c-0.1-0.6,0.5-1.8,1.2-2.1c3.3-1.5,5.1,0.7,6.9,2.9c1.8,2.2,4.4,2.3,6.8,2.4c2,0.1,4.5,2.3,6-0.2 c1-1.8-0.8-3.6-1.8-5.2c-2.3-4.1-4.8-8.1-6.9-12.3c-1.7-3.6-4.2-7.2-2.7-11.6c3.1-0.3,4,1.8,4.8,3.9c2.2,5.4,4.6,10.7,6.2,16.2 c1.1,3.6,5.2,8.8,2.6,10.5c-4,2.8-10,1.6-15.2,0.4c-0.8-0.2-1.3-1-2.1-1.3C625,675.94,621.8,676.74,621.2,673.34z M663.6,671.14 c-3.7,5.7-8.9,6.7-15.7,8.1C653.1,674.64,656.7,670.44,663.6,671.14z M655.4,644.54c0.5,8.5-2.1,14.2-6.4,19.4 C648,657.44,648.7,651.24,655.4,644.54z M646.1,737.74c-0.9-5-1.9-9.6-2.5-14.3c-0.7-5.9,0.7-12.3-7.2-15c-1.4-0.5-1.3-5-1.9-7.7 c-1.3-6.2-2.7-12.4-4.1-19.3c12.8,1.6,13,1.6,13.5,13.5c0.5,12.7,2.4,25.2,3.8,37.8C647.9,734.34,648.6,736.04,646.1,737.74z M642,732.44c-0.3,0.3-0.7,0.6-1,0.9c-3.2-3.4-6.3-6.8-9.5-10.2c-1.4-1.5-2.7-3.3-0.6-4.9c2.2-1.6,3.4,0.6,4.4,2.2 C637.6,724.34,639.8,728.44,642,732.44z M658.2,969.84c-0.2,1.6-0.9,3.1-2,6.3c-3-19.6-8.3-36.6-17-52.5 c-3.6-6.6-7.8-12.8-14.5-16.8c-6.1-3.7-10.5-1.3-10.4,5.8s2.8,13.6,6.2,19.7c5.8,10.4,11.3,21.1,17.9,31 c16.9,25.3,14.8,51.1,2.5,77.8c-60.5-67.2-74.2-126.2-48.3-196.5c6.9-18.7,14.2-37.3,22.6-55.4c5.5-11.8,10.3-23.9,13.5-36.6 c0.8-3,1.2-7.5,6.2-5.4c4.4,1.9,12.1-2.2,12.7,6.8c0.7,11,1.6,22.1,2.5,33.2c-0.7-0.2-1.3-0.1-1.7-0.4c-2.7-1.9-3.4-7.5-8.2-5.2 c-5.1,2.4-3.2,7.1-2.2,11c0.8,3.4,2.1,6.6,3.3,10.2c-3.8-0.7-7.8-5.2-10.5-1c-2.9,4.5,0.8,8.4,4.1,11.4c2.4,2.2,5.2,4.6,8.3,5.4 c9.5,2.6,10.5,9.2,10.7,17.6c0.4,15.7,1.7,31.3,1.5,47.4c-2.5-4.8-4.8-9.7-7.4-14.5c-2.8-5.2-6.3-9.8-11.5-12.8 c-2.5-1.5-5.3-2.2-7.8-0.4c-2.7,2-2.1,5-1.3,7.7c2,6.1,5.6,11.5,9.8,16.3c6.2,7.1,12.2,14.4,18.8,21.1c2.3,2.4,3.6,4.8,3.8,7.9 C661.3,929.54,661.3,949.74,658.2,969.84z M650.8,976.14c-9.3-19-22.2-36.2-29.9-56.2c-1.2-3-4-7.8-0.2-9.8c3.4-1.7,5.9,3,8,5.7 C642.4,933.44,647.5,954.44,650.8,976.14z M649.8,816.14c-7.1-1.1-12.9-3.9-16.2-10c0.6-0.7,1.2-1.4,1.9-2.1 C640.2,808.04,645,812.04,649.8,816.14z M641.7,786.44c5,5.7,4.9,13.1,6.8,19.9C644.2,800.44,641.8,793.84,641.7,786.44z M653.1,887.94c-8.3-3.6-19-17.6-21.3-29.2C644.2,865.94,647.8,877.44,653.1,887.94z M656.6,786.64c5.3,6.7,5.3,9.9,0.6,21.6 C657.2,800.84,655.2,794.24,656.6,786.64z M664.7,881.64c1.5-9.3,1.1-18.8,1.1-28.2c0-2.4-0.3-5.5,3-6c2.7-0.4,3.3,2.5,4.3,4.4 c4.3,8,5.7,16.8,5.3,25.7c-0.8,17-6.5,32.7-12.1,48.5C664.2,911.24,662.4,896.54,664.7,881.64z M711.4,879.54 c1.9-0.2,4.1-0.3,5.2,1.7c0.9,1.7-0.2,3.2-1.2,4.5c-2.7,3.5-5.3,7.2-8.5,10.2c-10.6,10.1-21.4,20-31.9,30.6 c6.8-15,17.3-27.2,29.2-38.4c-10.9,4.8-17.3,14.6-24.9,23.6C680.5,898.84,699.1,880.44,711.4,879.54z M713.7,820.84 c-3.4,5.8-7.5,8.7-12.6,11.7C703.4,824.24,703.9,823.84,713.7,820.84z M722.1,794.74c-5.5,5.2-11.4,5.5-17.4,5.6 C709.5,797.14,713.7,792.34,722.1,794.74z M701.3,742.04c4.9,4.7,9.5,9.7,11.3,18.2C704.5,755.54,705.1,747.44,701.3,742.04z M711.1,700.04c-5.5,4-1,10.7,0.5,16.2c-8.3-1-10.5,1.6-7.7,10c1.4,4.3,2.8,7-3.6,7.5c-6.2,0.5-5.3,5.5-4.1,9.5 c0.7,2.3,3.5,3.6,3.7,6.4c-1.6,2.3-6-1.3-6.5,2.8c-0.4,3.4,1.6,6.3,4.3,7.5c12.8,5.2,9.9,14.7,6.8,24c-1.7,5.1-1.4,10.8-5.1,15.5 c4.5-10-3.3-17.5-5-26.1c-0.8-4.1-4.2-3-6-0.1c-2.2,3.3-0.8,7-0.1,10.5c0.6,3,6.5,7.3-2.1,8.2c-1.5,0.2-0.5,2.2,0.1,3.5 c1.1,2.3,3.5,3,5.4,3.5c8.9,2.5,8.6,8.4,6.2,16.5c-3.2-4.6-2.2-10.3-7.5-12.5c-1.5,1.5,0.2,4.2-0.9,6.2c-1.6,0.6-2.3-0.9-3.5-1.5 c-2.1-1.1-3.8-3.9-6.6-2.4c-2.7,1.4-0.4,4-1,6.1c-3,10.9-0.3,19.7,9.8,25.6c3,1.8,2,4.2,1.4,6.6c-2.3,8.8-4.6,17.6-7.6,29 c-1.5-6.9-2.3-11.5-3.6-15.9c-0.9-3.2-2.4-6.2-3.9-9.1c-1.3-2.5-3.1-4.9-6.4-4.2c-3.6,0.7-4.9,3.6-4.9,6.8 c-0.1,8.6,0,17.2-1.7,25.8c-1.4-17-2.8-34-4.2-51c-0.2-2.5,1.7-3.2,3.4-4.1c2.9-1.6,6-3,8.6-5c5-3.8,10.5-7.8,2.1-14.3 c-3.1,0.3-3.6,5.2-7.9,5.3c1.2-5.4,1.9-10.6,4-15.7c1.8-4.3,1.2-4.7-3.5-3.4c-1,0.3-1.5,1.6-2-0.3c-0.3-1-0.6-2.9-1-3 c-9.5-0.4-7.3-7.6-7.8-13.1c-0.6-6.1-1-12.2-1.4-18.2c0-0.9,0.7-2.7,1.2-2.8c7.8-0.6,9.5-8.4,14.7-12.1c2.8-2,5.8-3.9,4.5-7.9 c-1.4-4.4-5.3-2.5-8.4-2.3c4-10.6,3.2-16.6-2.3-19.2c-4-1.8-5.8-0.8-11.4,7.7c-0.7-10.9-1.3-20.6-2.1-30.3 c-0.3-3.5,2.2-3.9,4.6-4.7c4-1.2,8-2.5,11.2-5.3c1.7-1.4,4.4-4.4,3.1-5.2c-7.5-4.8-1-8.9,0.1-13.2c0.5-2-0.6-5-2.1-4.8 c-6.6,0.7-6.7-3.4-6.8-8c0-1.7-1.1-3.2-2.8-3.8c-2.2-0.7-3.8,0.4-5,2.1c-1.7,2.5-3.1,5.1-5.1,8.5c-2.5-6.9-0.6-13.7-3.1-19.8 c-0.6-1.4,0.8-2.6,2.3-2.8c1.6-0.2,4.6-0.5,4.5,0.7c-0.5,5.1,2.3,2.5,3.7,1.8c2.1-1.1,3.9-4.5,2.8-5.4c-4.9-3.9-0.1-5.2,1.5-7.3 c0.8-1.1,1.9-2.1,2.6-3.2c1.6-2.7,2.7-5.5,0.9-8.6c-2.2-3.9-5.3-1-8.3-0.9c1.2-6.5,7.7-14.2-4.1-17.6c2-3.6,4.3-6.1,4.4-10.6 c0.2-9.7,1-9.6-8.4-6.7c-1.8-2.5,0-5.2-0.3-7.8c-0.5-5.9,1.3-13.4-8.9-12.5c-2.1,0.2-1.3-2-1.4-3.1c-1.9-12.2,3.3-23.3,5.7-34.9 c0.6-3,3-1.5,4.7-0.8c15.2,6.6,30.4,13.4,45.8,19.9c4.1,1.7,4.4,4.3,3.4,7.9c-1.3,4.8-2.4,9.7-3.7,14.5c-4.5,16.6,1,25.2,18.2,28.1 c1.3,0.2,2.5,0.6,5,1.2c-8.8,10.1-16.6,19.7-25,28.8c-4.9,5.3-5.1,10.5-2.2,16.7c9.2,19.3,18.2,38.6,27.2,58 C714.6,691.64,717.5,695.44,711.1,700.04z M654.1,739.04c0.4-7.8,3.1-14.6,9.4-19.8C660.3,725.74,657.2,732.34,654.1,739.04z M717.8,744.34c-3.4-6.2-2.7-12.2-2.7-18.2C715.6,732.14,721.7,737.34,717.8,744.34z M717.5,720.64c1.8-7.3-0.2-14.8,1.4-22 C722.4,706.14,719.6,713.34,717.5,720.64z M721.8,741.74c2.9-5.2,5.8-10.5,9.5-17C738.5,736.94,725.3,736.64,721.8,741.74z M813.6,867.64c-26.5-52.4-53-104.9-79.7-157.2c-1.2-2.3-1.2-3.9-0.6-6.1c0.9-3.5,0.3-7.9-3-8.6c-5.8-1.3-6.5-5.8-8.4-9.8 c-8.7-18.3-17-36.7-26-54.8c-3.2-6.5-2.5-11.2,2.1-16.5c9.8-11.3,19.5-22.7,29.7-33.7c7.9-8.5,14.7-18,22.1-27 c4.5-5.5,9.1-10.9,14.5-17.4c22.8,130,49.7,257.5,76.2,385.2C831.6,903.84,822.7,885.74,813.6,867.64z M849.5,916.84 c-7.8-37.2-15.6-74.3-23.4-111.5c-2-9.4-1.1-18.8-0.9-28.2c1-47.8,5.7-95.2,18.2-141.6c1.2-4.3,2.4-8.6,3.9-12.7 c0.8-2.2,1.2-5.6,4.5-5.1c3.4,0.5,2.4,3.9,2.4,6.2c0,16.7-0.2,33.3-0.3,49.9c0,9.6,0,19.2,1.8,28.8c1.4-14.1,2.9-28.3,4.2-42.4 c1.2-11.9,2.2-23.8,3.4-35.6c0.2-2-0.9-5.1,2.4-5.3c2.8-0.2,3,3,3.6,4.9c8.4,26.8,13.7,54.3,17.5,82.1c2,14.6,2.7,29.3,4.7,43.8 c3.1,22.3-2.2,43.6-6.6,65c-9.1,44.4-18.4,88.8-27.8,134.2C853.3,938.34,851.7,927.54,849.5,916.84z M1017,619.04 c3.5,4.3,2.5,8,0.5,12.2c-13.6,28.8-27.2,57.7-40.9,86.5c-31.7,66.3-65.2,131.7-98.5,197.1c-1.6,3.2-3.5,6.2-6,9 c26.4-128.5,52.3-257,77.5-387.5C972.9,564.84,994.8,592.04,1017,619.04z M1016.8,554.14c1.5,5.5,0.5,8.7-4.8,11.2 c-7.8,3.6-15.7,11.5-22.7,10.7c-7.2-0.8-11.5-11.7-17.3-18c-3.9-4.3-7.2-9.2-11.5-13.1c-8.1-7.5-10.9-15.7-8.9-27.2 c4.6-27.1,5.8-54.5,1.7-83.9c13.4,13,25.5,24,38.6,33.8c2.5,1.8,3.2,4.4,3.9,7.1C1002.6,501.14,1009.5,527.64,1016.8,554.14z"></path></g></svg>